<svg width="890" height="745" viewBox="0 0 890 745" fill="none" xmlns="http://www.w3.org/2000/svg">
<g opacity="0.7">
<mask id="mask0_771_896" style="mask-type:luminance" maskUnits="userSpaceOnUse" x="17" y="130" width="1031" height="798">
<path d="M463.416 628.936L464.754 628.278L463.216 629.234L461.961 629.907L463.416 628.936ZM473.186 623.502C473.667 623.287 474.149 623.071 474.631 622.856C474.086 623.17 473.54 623.482 472.995 623.796L471.65 624.453L473.186 623.502ZM468.296 625.689L470.518 624.695C469.723 625.189 468.928 625.684 468.133 626.178C467.401 626.537 466.669 626.898 465.936 627.258L468.296 625.689ZM482.924 618.542L484.42 617.947L482.792 618.81C482.301 619.026 481.81 619.244 481.319 619.462L482.924 618.542ZM478.056 620.486C478.823 620.178 479.591 619.87 480.357 619.563C479.535 620.036 478.712 620.51 477.89 620.982C477.145 621.313 476.402 621.641 475.658 621.971L478.056 620.486ZM473.158 622.457L475.932 621.341C474.956 621.946 473.98 622.549 473.004 623.155C472.093 623.561 471.181 623.97 470.269 624.378C471.232 623.738 472.195 623.096 473.158 622.457ZM497.524 612.344L497.56 612.332L497.45 612.379L497.524 612.344ZM492.666 614.039C493.2 613.851 493.734 613.663 494.268 613.476L492.511 614.324L490.992 614.922L492.666 614.039ZM487.794 615.754L490.146 614.926L487.665 616.235C486.889 616.543 486.112 616.852 485.335 617.162L487.794 615.754ZM482.916 617.482C483.861 617.144 484.806 616.806 485.75 616.473L482.756 618.188C481.836 618.555 480.916 618.919 479.994 619.287C480.968 618.685 481.942 618.083 482.916 617.482ZM478.035 619.224L481.148 618.112C480.059 618.786 478.969 619.461 477.879 620.136C476.846 620.549 475.811 620.967 474.778 621.383C475.863 620.662 476.949 619.943 478.035 619.224ZM507.245 608.547L507.387 608.504L507.073 608.625L507.025 608.642L507.245 608.547ZM502.383 610.011L504.03 609.515L502.274 610.277C501.735 610.464 501.196 610.652 500.657 610.839L502.383 610.011ZM497.523 611.485C498.333 611.238 499.143 610.989 499.951 610.744C499.09 611.157 498.23 611.569 497.368 611.983C496.587 612.255 495.807 612.526 495.025 612.798L497.523 611.485ZM492.655 612.973L495.511 612.101C494.51 612.627 493.51 613.152 492.508 613.679C491.565 614.009 490.62 614.343 489.675 614.676L492.655 612.973ZM487.772 614.485C488.832 614.154 489.894 613.821 490.953 613.495C489.846 614.128 488.739 614.762 487.632 615.396C486.592 615.762 485.554 616.127 484.513 616.496L487.772 614.485ZM482.898 616.001C484.022 615.65 485.145 615.302 486.268 614.953L482.746 617.127C481.63 617.524 480.512 617.924 479.394 618.323C480.562 617.549 481.73 616.774 482.898 616.001ZM1044.76 155.131C1044.98 154.563 1045.19 153.993 1045.4 153.425C1045.61 153.048 1045.82 152.66 1046.03 152.282C1045.81 152.85 1045.58 153.421 1045.35 153.984C1045.16 154.364 1044.96 154.75 1044.76 155.131ZM1043.43 158.709C1043.48 158.573 1043.53 158.434 1043.58 158.298C1043.65 158.16 1043.72 158.016 1043.8 157.877C1043.75 157.999 1043.7 158.124 1043.65 158.246L1043.43 158.709ZM516.914 605.236L517.155 605.175L516.858 605.277L516.636 605.343L516.914 605.236ZM512.075 606.456C512.651 606.309 513.229 606.16 513.804 606.016L511.943 606.738L510.275 607.234C510.875 606.973 511.475 606.715 512.075 606.456ZM507.234 607.686L509.674 607.066C508.819 607.436 507.962 607.808 507.106 608.179C506.294 608.423 505.481 608.669 504.668 608.914C505.524 608.504 506.379 608.095 507.234 607.686ZM502.364 608.942C503.336 608.689 504.31 608.435 505.28 608.186C504.266 608.671 503.251 609.16 502.236 609.646C501.286 609.933 500.337 610.217 499.385 610.506L502.364 608.942ZM497.516 610.199C498.577 609.921 499.637 609.649 500.698 609.374C499.59 609.955 498.481 610.539 497.373 611.121C496.316 611.443 495.258 611.768 494.2 612.092L497.516 610.199ZM492.629 611.492C493.77 611.189 494.911 610.885 496.049 610.586L492.499 612.612C491.371 612.959 490.241 613.307 489.111 613.658C490.284 612.935 491.456 612.214 492.629 611.492ZM487.759 612.786C488.947 612.468 490.132 612.155 491.317 611.839L487.608 614.125C486.429 614.491 485.25 614.858 484.07 615.226L487.759 612.786ZM1042.4 159.7C1042.71 158.821 1043.02 157.935 1043.33 157.052C1043.62 156.552 1043.9 156.06 1044.19 155.558C1043.87 156.418 1043.55 157.28 1043.22 158.132C1042.95 158.654 1042.68 159.178 1042.4 159.7ZM1040.9 163.99C1041.12 163.382 1041.33 162.762 1041.55 162.146C1041.74 161.775 1041.94 161.413 1042.14 161.042C1041.92 161.624 1041.7 162.206 1041.48 162.779C1041.29 163.178 1041.1 163.591 1040.9 163.99ZM526.556 602.4L526.889 602.333L526.427 602.468L526.172 602.53L526.556 602.4ZM521.747 603.372C522.34 603.251 522.931 603.133 523.525 603.013L521.637 603.652C521.054 603.797 520.471 603.944 519.888 604.089L521.747 603.372ZM516.9 604.371C517.741 604.197 518.583 604.02 519.424 603.848L516.795 604.862C515.979 605.067 515.164 605.268 514.346 605.474L516.9 604.371ZM512.082 605.367C513.057 605.163 514.029 604.965 515.004 604.763L511.946 606.085C510.977 606.33 510.007 606.577 509.038 606.824L512.082 605.367ZM507.211 606.402C508.29 606.172 509.37 605.942 510.447 605.714L507.097 607.318C506.03 607.59 504.961 607.865 503.892 608.141L507.211 606.402ZM502.36 607.439C503.505 607.191 504.649 606.947 505.793 606.703L502.222 608.574L498.814 609.458C499.997 608.783 501.178 608.112 502.36 607.439ZM497.481 608.504C498.68 608.242 499.879 607.979 501.076 607.719L497.368 609.832C496.175 610.145 494.98 610.463 493.785 610.78L497.481 608.504ZM492.604 609.585C493.845 609.306 495.085 609.031 496.323 608.758C495.04 609.547 493.756 610.338 492.473 611.128C491.246 611.453 490.021 611.775 488.793 612.103L492.604 609.585ZM1041.83 158.894C1042.21 157.713 1042.6 156.539 1042.98 155.363C1043.39 154.71 1043.79 154.056 1044.19 153.402L1042.97 156.892C1042.59 157.562 1042.21 158.226 1041.83 158.894ZM1040.21 163.831C1040.54 162.809 1040.88 161.777 1041.22 160.75C1041.56 160.144 1041.91 159.537 1042.26 158.929C1041.9 159.95 1041.55 160.974 1041.19 161.985C1040.86 162.604 1040.53 163.213 1040.21 163.831ZM1038.68 168.482C1038.95 167.67 1039.22 166.841 1039.49 166.015C1039.77 165.487 1040.05 164.959 1040.33 164.43C1040.04 165.259 1039.76 166.09 1039.46 166.903C1039.2 167.433 1038.94 167.953 1038.68 168.482ZM1037.2 172.908C1037.4 172.301 1037.61 171.72 1037.82 171.11C1037.96 170.827 1038.1 170.545 1038.24 170.261C1038 170.9 1037.77 171.542 1037.53 172.188C1037.42 172.43 1037.31 172.666 1037.2 172.908ZM536.205 600.032L536.64 599.967L536.124 600.093L535.716 600.174L536.205 600.032ZM531.372 600.775L533.211 600.492C532.575 600.677 531.936 600.864 531.299 601.049C530.698 601.169 530.101 601.285 529.5 601.406L531.372 600.775ZM526.573 601.518C527.421 601.385 528.265 601.255 529.111 601.124L526.458 602.02L523.938 602.529L526.573 601.518ZM521.734 602.287C522.726 602.129 523.718 601.971 524.708 601.815L521.641 602.994C520.657 603.194 519.67 603.397 518.683 603.601L521.734 602.287ZM516.905 603.066C517.992 602.887 519.077 602.712 520.163 602.537L516.783 603.994L513.559 604.661L516.905 603.066ZM512.055 603.865C513.208 603.674 514.36 603.484 515.512 603.295L511.955 604.993C510.805 605.234 509.651 605.482 508.497 605.728L512.055 603.865ZM507.195 604.685C508.405 604.478 509.614 604.271 510.821 604.069C509.574 604.721 508.327 605.375 507.079 606.029C505.886 606.282 504.696 606.532 503.502 606.788L507.195 604.685ZM502.341 605.518C503.582 605.304 504.822 605.092 506.063 604.879L502.221 607.067C500.98 607.335 499.737 607.609 498.494 607.882L502.341 605.518ZM497.454 606.384C498.737 606.154 500.022 605.921 501.303 605.696L497.335 608.135C496.067 608.414 494.8 608.69 493.53 608.973L497.454 606.384ZM1041.25 157.43C1041.66 156.061 1042.08 154.705 1042.49 153.328C1042.98 152.601 1043.47 151.856 1043.96 151.127C1043.52 152.495 1043.07 153.828 1042.63 155.195C1042.17 155.939 1041.71 156.689 1041.25 157.43ZM1039.6 162.786C1040 161.496 1040.39 160.215 1040.79 158.929C1041.23 158.224 1041.66 157.505 1042.1 156.798L1040.86 160.589C1040.44 161.32 1040.02 162.056 1039.6 162.786ZM1038 167.967C1038.36 166.818 1038.72 165.658 1039.07 164.5C1039.47 163.82 1039.86 163.127 1040.25 162.444C1039.88 163.584 1039.5 164.727 1039.13 165.854C1038.75 166.558 1038.38 167.265 1038 167.967ZM1036.48 172.91C1036.79 171.938 1037.09 170.945 1037.39 169.956C1037.73 169.321 1038.07 168.675 1038.41 168.038C1038.09 169.016 1037.78 169.995 1037.45 170.952C1037.13 171.606 1036.81 172.258 1036.48 172.91ZM1034.95 177.759C1035.22 176.918 1035.49 176.109 1035.75 175.267C1035.99 174.787 1036.23 174.3 1036.47 173.819C1036.18 174.656 1035.89 175.498 1035.6 176.345L1034.95 177.759ZM1033.45 182.398C1033.62 181.874 1033.79 181.352 1033.96 180.832C1034.1 180.538 1034.23 180.24 1034.37 179.945C1034.18 180.488 1034 181.035 1033.81 181.578L1033.45 182.398ZM545.764 598.163L546.236 598.115L545.688 598.222L545.254 598.285L545.764 598.163ZM540.984 598.651C541.622 598.584 542.26 598.516 542.897 598.451L540.879 598.938L539.041 599.212L540.984 598.651ZM536.18 599.157L538.767 598.885L536.118 599.65C535.26 599.78 534.399 599.913 533.538 600.046L536.18 599.157ZM531.37 599.677C532.379 599.565 533.388 599.453 534.394 599.345L531.277 600.394C530.288 600.547 529.301 600.698 528.312 600.851L531.37 599.677ZM526.561 600.21L529.834 599.847L526.471 601.138C525.381 601.309 524.287 601.485 523.194 601.659C524.316 601.176 525.439 600.692 526.561 600.21ZM521.724 600.768C522.892 600.63 524.061 600.49 525.226 600.358L521.622 601.909C520.473 602.093 519.327 602.273 518.176 602.46L521.724 600.768ZM516.901 601.332C518.108 601.188 519.311 601.05 520.516 600.909L516.784 602.689C515.579 602.885 514.371 603.085 513.164 603.286L516.901 601.332ZM512.035 601.934C513.291 601.777 514.547 601.618 515.799 601.466L511.93 603.489C510.686 603.696 509.442 603.905 508.196 604.116L512.035 601.934ZM507.186 602.542C508.467 602.378 509.743 602.22 511.02 602.061L507.062 604.311C505.789 604.528 504.513 604.747 503.238 604.967L507.186 602.542ZM502.303 603.188C503.614 603.012 504.925 602.837 506.232 602.668L502.2 605.145C500.896 605.372 499.589 605.605 498.282 605.838L502.303 603.188ZM1040.6 155.402C1041.03 153.888 1041.45 152.337 1041.88 150.8C1042.4 150.083 1042.93 149.371 1043.46 148.652C1043.02 150.158 1042.58 151.678 1042.13 153.159C1041.63 153.912 1041.11 154.651 1040.6 155.402ZM1039 161.052C1039.43 159.556 1039.85 158.076 1040.28 156.571C1040.78 155.841 1041.28 155.122 1041.77 154.389C1041.33 155.862 1040.87 157.295 1040.43 158.766C1039.95 159.528 1039.48 160.292 1039 161.052ZM1037.37 166.679C1037.78 165.249 1038.2 163.827 1038.61 162.398C1039.06 161.682 1039.52 160.983 1039.97 160.265C1039.55 161.626 1039.13 162.984 1038.71 164.344C1038.26 165.117 1037.82 165.909 1037.37 166.679ZM1035.8 172.111C1036.18 170.812 1036.56 169.5 1036.93 168.19C1037.35 167.479 1037.77 166.772 1038.18 166.058C1037.8 167.31 1037.41 168.564 1037.03 169.801C1036.62 170.565 1036.21 171.349 1035.8 172.111ZM1034.29 177.328C1034.62 176.195 1034.96 175.035 1035.29 173.88C1035.66 173.186 1036.04 172.486 1036.42 171.789C1036.07 172.905 1035.73 174.023 1035.39 175.116C1035.02 175.849 1034.66 176.598 1034.29 177.328ZM1032.73 182.543C1033.04 181.505 1033.35 180.498 1033.66 179.463C1033.97 178.862 1034.27 178.245 1034.57 177.641C1034.25 178.649 1033.92 179.659 1033.6 180.678C1033.31 181.296 1033.02 181.927 1032.73 182.543ZM1031.2 187.588C1031.44 186.803 1031.68 186.019 1031.91 185.239C1032.15 184.749 1032.37 184.242 1032.6 183.751C1032.35 184.53 1032.1 185.314 1031.85 186.093C1031.63 186.588 1031.42 187.094 1031.2 187.588ZM1029.81 192.182C1029.94 191.747 1030.07 191.307 1030.21 190.871C1030.34 190.563 1030.48 190.243 1030.61 189.936C1030.47 190.371 1030.33 190.812 1030.19 191.243C1030.06 191.554 1029.94 191.872 1029.81 192.182ZM555.305 596.767L555.891 596.738L555.249 596.829L554.707 596.882L555.305 596.767ZM550.555 597.01L552.481 596.911L550.509 597.291C549.862 597.356 549.213 597.422 548.566 597.487L550.555 597.01ZM545.767 597.272C546.645 597.223 547.523 597.172 548.399 597.125C547.5 597.341 546.598 597.559 545.699 597.775C544.837 597.863 543.977 597.947 543.114 598.035L545.767 597.272ZM540.997 597.54C542.003 597.482 543.004 597.428 544.008 597.371L540.91 598.265C539.903 598.37 538.895 598.477 537.887 598.583L540.997 597.54ZM536.179 597.836C537.285 597.767 538.392 597.697 539.494 597.631L536.096 598.772C535.004 598.888 533.913 599.003 532.818 599.122L536.179 597.836ZM531.385 598.137C532.55 598.061 533.71 597.991 534.873 597.917L531.278 599.293C530.119 599.42 528.958 599.549 527.797 599.678L531.385 598.137ZM526.551 598.47C527.769 598.385 528.987 598.3 530.202 598.219C528.955 598.755 527.708 599.29 526.459 599.826C525.248 599.963 524.036 600.103 522.822 600.244L526.551 598.47ZM521.723 598.814C522.978 598.72 524.231 598.631 525.483 598.543L521.612 600.386C520.367 600.531 519.12 600.676 517.874 600.824L521.723 598.814ZM516.873 599.184C518.16 599.084 519.446 598.986 520.732 598.89L516.784 600.951C515.5 601.106 514.212 601.267 512.924 601.428L516.873 599.184ZM512.02 599.576C513.334 599.466 514.647 599.359 515.958 599.255L511.91 601.555C510.608 601.717 509.308 601.875 508.004 602.04L512.02 599.576ZM507.156 599.991C508.489 599.875 509.819 599.762 511.15 599.651L507.054 602.163C505.724 602.335 504.389 602.514 503.055 602.692L507.156 599.991ZM1038.34 158.708C1038.76 157.124 1039.18 155.498 1039.59 153.889C1040.14 153.155 1040.68 152.417 1041.22 151.681C1040.79 153.257 1040.36 154.852 1039.92 156.402C1039.39 157.173 1038.87 157.939 1038.34 158.708ZM1036.78 164.545C1037.2 162.97 1037.63 161.414 1038.05 159.831C1038.57 159.078 1039.08 158.325 1039.6 157.57C1039.15 159.14 1038.7 160.668 1038.25 162.235C1037.76 163.01 1037.27 163.773 1036.78 164.545ZM1035.2 170.35C1035.61 168.84 1036.02 167.338 1036.43 165.827C1036.91 165.077 1037.38 164.333 1037.86 163.58C1037.43 165.068 1037 166.549 1036.57 168.034C1036.12 168.813 1035.66 169.575 1035.2 170.35ZM1033.66 176.021C1034.04 174.617 1034.43 173.196 1034.81 171.78C1035.25 171.033 1035.69 170.294 1036.13 169.545C1035.73 170.942 1035.33 172.344 1034.92 173.725C1034.5 174.498 1034.08 175.25 1033.66 176.021ZM1032.16 181.521C1032.51 180.245 1032.87 178.933 1033.22 177.63C1033.62 176.897 1034.03 176.175 1034.43 175.439C1034.05 176.737 1033.68 178.037 1033.3 179.31C1032.92 180.056 1032.54 180.778 1032.16 181.521ZM1030.59 187.063C1030.94 185.822 1031.3 184.615 1031.65 183.377C1031.98 182.713 1032.33 182.063 1032.67 181.397C1032.29 182.623 1031.92 183.848 1031.55 185.085C1031.23 185.753 1030.91 186.397 1030.59 187.063ZM1029.05 192.473C1029.35 191.41 1029.66 190.347 1029.96 189.286C1030.24 188.696 1030.53 188.119 1030.81 187.527C1030.49 188.593 1030.16 189.663 1029.84 190.726C1029.58 191.316 1029.31 191.885 1029.05 192.473ZM1027.59 197.59C1027.83 196.755 1028.07 195.909 1028.31 195.066C1028.52 194.587 1028.74 194.119 1028.96 193.638C1028.7 194.476 1028.45 195.318 1028.2 196.142C1028 196.628 1027.79 197.105 1027.59 197.59ZM1026.26 202.241C1026.41 201.723 1026.56 201.189 1026.71 200.661C1026.83 200.38 1026.95 200.105 1027.07 199.823C1026.88 200.441 1026.68 201.031 1026.49 201.646C1026.41 201.842 1026.34 202.045 1026.26 202.241ZM564.839 595.853C565.049 595.853 565.259 595.855 565.469 595.855L564.807 595.917L564.175 595.947L564.839 595.853ZM560.069 595.857C560.725 595.857 561.382 595.855 562.038 595.856L560.034 596.142C559.389 596.173 558.747 596.201 558.101 596.234L560.069 595.857ZM555.328 595.867C556.209 595.862 557.088 595.861 557.967 595.859L555.254 596.377C554.382 596.422 553.507 596.467 552.635 596.512L555.328 595.867ZM550.548 595.897C551.567 595.89 552.585 595.883 553.602 595.877L550.499 596.621C549.487 596.674 548.474 596.729 547.46 596.785L550.548 595.897ZM545.774 595.938C546.884 595.925 547.992 595.915 549.1 595.906L545.701 596.884L542.401 597.069L545.774 595.938ZM540.984 595.998C542.155 595.983 543.325 595.967 544.494 595.954L540.922 597.153C539.752 597.221 538.578 597.295 537.403 597.368L540.984 595.998ZM536.18 596.079C537.404 596.055 538.629 596.032 539.849 596.013L536.096 597.45C534.885 597.525 533.675 597.597 532.463 597.674L536.18 596.079ZM531.374 596.174C532.63 596.147 533.884 596.124 535.138 596.099L531.291 597.751C530.035 597.834 528.774 597.923 527.515 598.011L531.374 596.174ZM526.54 596.299C527.835 596.262 529.131 596.224 530.421 596.193L526.448 598.084C525.168 598.173 523.889 598.26 522.606 598.353L526.54 596.299ZM521.716 596.436C523.028 596.395 524.335 596.361 525.645 596.324L521.614 598.429C520.303 598.525 518.989 598.628 517.674 598.73L521.716 596.436ZM516.852 596.613C518.194 596.561 519.538 596.507 520.875 596.463L516.758 598.8C515.428 598.904 514.098 599.01 512.765 599.119L516.852 596.613ZM512.005 596.798C513.357 596.742 514.704 596.695 516.053 596.643L511.895 599.193C510.546 599.305 509.195 599.421 507.842 599.538L512.005 596.798ZM1036.07 162.025C1036.48 160.372 1036.89 158.671 1037.3 156.991C1037.86 156.244 1038.41 155.483 1038.97 154.735C1038.54 156.379 1038.12 158.045 1037.69 159.662C1037.15 160.449 1036.61 161.241 1036.07 162.025ZM1034.55 168.057C1034.97 166.401 1035.39 164.773 1035.81 163.11C1036.34 162.34 1036.87 161.558 1037.4 160.785C1036.96 162.428 1036.51 164.024 1036.07 165.665C1035.56 166.463 1035.06 167.262 1034.55 168.057ZM1033.01 174.045C1033.42 172.456 1033.83 170.877 1034.23 169.285C1034.73 168.509 1035.22 167.725 1035.72 166.947C1035.3 168.509 1034.87 170.064 1034.45 171.623C1033.97 172.432 1033.49 173.24 1033.01 174.045ZM1031.51 179.907C1031.9 178.419 1032.28 176.911 1032.67 175.407C1033.13 174.626 1033.59 173.837 1034.06 173.053C1033.66 174.53 1033.26 176.014 1032.85 177.474C1032.41 178.288 1031.96 179.097 1031.51 179.907ZM1030.05 185.611C1030.41 184.241 1030.76 182.83 1031.12 181.43C1031.55 180.651 1031.98 179.867 1032.42 179.084C1032.04 180.472 1031.66 181.863 1031.28 183.225C1030.87 184.024 1030.46 184.815 1030.05 185.611ZM1028.51 191.378C1028.87 190.026 1029.23 188.708 1029.59 187.362C1029.97 186.626 1030.35 185.889 1030.73 185.15C1030.35 186.476 1029.97 187.797 1029.59 189.133C1029.23 189.886 1028.87 190.628 1028.51 191.378ZM1027 197.01L1027.96 193.428C1028.29 192.739 1028.63 192.048 1028.96 191.355C1028.62 192.542 1028.28 193.732 1027.95 194.915C1027.63 195.618 1027.31 196.31 1027 197.01ZM1025.55 202.394C1025.82 201.395 1026.09 200.38 1026.36 199.37C1026.64 198.75 1026.92 198.13 1027.2 197.508C1026.92 198.516 1026.63 199.528 1026.35 200.518C1026.08 201.149 1025.81 201.766 1025.55 202.394ZM1024.2 207.402C1024.41 206.661 1024.61 205.899 1024.81 205.14L1025.47 203.591C1025.22 204.458 1024.96 205.28 1024.71 206.142C1024.54 206.566 1024.37 206.979 1024.2 207.402ZM1022.82 212.363C1022.95 211.882 1023.08 211.413 1023.22 210.936L1023.43 210.396C1023.28 210.92 1023.12 211.447 1022.96 211.976L1022.82 212.363ZM574.274 595.43L574.928 595.465L574.272 595.495L573.624 595.49L574.274 595.43ZM569.554 595.183C570.233 595.217 570.915 595.25 571.591 595.285L569.521 595.475L567.54 595.469L569.554 595.183ZM564.828 594.949L567.491 595.081L564.818 595.461C563.926 595.459 563.03 595.462 562.134 595.463L564.828 594.949ZM560.078 594.73C561.108 594.775 562.139 594.818 563.165 594.867C562.123 595.065 561.076 595.266 560.032 595.466C559.018 595.467 558.005 595.466 556.989 595.468L560.078 594.73ZM555.336 594.522C556.443 594.57 557.549 594.619 558.656 594.668L555.284 595.474C554.173 595.479 553.057 595.488 551.943 595.496L555.336 594.522ZM550.554 594.337C551.737 594.38 552.921 594.422 554.099 594.469L550.493 595.505C549.326 595.513 548.161 595.519 546.991 595.53L550.554 594.337ZM545.794 594.161C547.013 594.203 548.227 594.251 549.444 594.296L545.709 595.547C544.49 595.559 543.268 595.576 542.045 595.593L545.794 594.161ZM540.982 594.018C542.248 594.054 543.515 594.089 544.777 594.13L540.911 595.607C539.655 595.625 538.398 595.644 537.139 595.667L540.982 594.018ZM536.191 593.883C537.481 593.916 538.765 593.955 540.052 593.991L536.097 595.688C534.812 595.711 533.524 595.737 532.236 595.765L536.191 593.883ZM531.361 593.785C532.681 593.809 534.001 593.835 535.315 593.866L531.282 595.783C529.97 595.813 528.652 595.848 527.335 595.884L531.361 593.785ZM526.535 593.701C527.875 593.719 529.211 593.743 530.547 593.768L526.441 595.909C525.11 595.946 523.779 595.982 522.445 596.022L526.535 593.701ZM521.69 593.648C523.048 593.66 524.404 593.675 525.757 593.692L521.61 596.045C520.256 596.089 518.895 596.142 517.535 596.194L521.69 593.648ZM516.833 593.622C518.209 593.625 519.583 593.63 520.954 593.641L516.737 596.224C515.373 596.275 514.012 596.322 512.646 596.377L516.833 593.622ZM1033.8 165.329C1034.21 163.581 1034.62 161.777 1035.03 159.999C1035.59 159.258 1036.15 158.525 1036.71 157.782C1036.29 159.504 1035.87 161.251 1035.44 162.944C1034.89 163.738 1034.35 164.539 1033.8 165.329ZM1032.31 171.586C1032.73 169.828 1033.15 168.109 1033.57 166.345C1034.1 165.574 1034.64 164.806 1035.18 164.032C1034.74 165.747 1034.3 167.412 1033.87 169.126C1033.35 169.942 1032.83 170.773 1032.31 171.586ZM1030.81 177.763C1031.22 176.091 1031.62 174.427 1032.03 172.751C1032.54 171.958 1033.04 171.15 1033.56 170.354C1033.14 171.993 1032.72 173.622 1032.3 175.254C1031.8 176.087 1031.31 176.934 1030.81 177.763ZM1029.35 183.821C1029.74 182.25 1030.12 180.656 1030.5 179.068C1030.99 178.259 1031.47 177.428 1031.95 176.616C1031.55 178.174 1031.15 179.74 1030.75 181.278C1030.29 182.123 1029.82 182.98 1029.35 183.821ZM1027.92 189.733C1028.28 188.272 1028.64 186.764 1029 185.271C1029.46 184.456 1029.91 183.62 1030.36 182.801C1029.98 184.279 1029.61 185.761 1029.22 187.213C1028.79 188.051 1028.36 188.899 1027.92 189.733ZM1026.41 195.728C1026.78 194.273 1027.14 192.848 1027.51 191.401C1027.92 190.612 1028.33 189.803 1028.74 189.01C1028.36 190.432 1027.97 191.847 1027.59 193.279C1027.2 194.094 1026.81 194.917 1026.41 195.728ZM1024.93 201.586L1025.93 197.641C1026.3 196.878 1026.67 196.096 1027.04 195.33C1026.69 196.629 1026.34 197.931 1026 199.224C1025.64 200.01 1025.28 200.803 1024.93 201.586ZM1023.5 207.227C1023.79 206.084 1024.08 204.921 1024.38 203.762C1024.71 203.043 1025.03 202.305 1025.36 201.583C1025.06 202.728 1024.75 203.877 1024.44 205.001C1024.13 205.743 1023.81 206.489 1023.5 207.227ZM1022.15 212.557C1022.39 211.63 1022.63 210.676 1022.86 209.726C1023.14 209.072 1023.42 208.402 1023.7 207.746C1023.42 208.78 1023.13 209.771 1022.85 210.797C1022.61 211.384 1022.38 211.972 1022.15 212.557ZM1020.7 217.998C1020.9 217.238 1021.1 216.487 1021.3 215.737C1021.48 215.305 1021.65 214.861 1021.82 214.427C1021.61 215.195 1021.39 215.968 1021.17 216.741C1021.02 217.16 1020.86 217.581 1020.7 217.998ZM1019.38 222.961L1019.68 221.848C1019.75 221.651 1019.83 221.448 1019.9 221.251C1019.79 221.642 1019.68 222.039 1019.57 222.428L1019.38 222.961ZM583.671 595.489L584.392 595.566L583.673 595.56L582.965 595.519L583.671 595.489ZM579.006 594.996C579.679 595.066 580.348 595.138 581.02 595.209L579 595.294C578.32 595.256 577.636 595.22 576.954 595.183L579.006 594.996ZM574.28 594.517C575.178 594.607 576.078 594.696 576.973 594.788L574.27 595.037C573.382 594.99 572.499 594.94 571.609 594.893L574.28 594.517ZM569.582 594.045C570.607 594.145 571.625 594.249 572.647 594.352L569.538 594.791C568.515 594.738 567.49 594.688 566.464 594.638L569.582 594.045ZM564.833 593.595C565.95 593.699 567.068 593.805 568.182 593.912L564.8 594.555C563.69 594.502 562.579 594.449 561.465 594.399L564.833 593.595ZM560.098 593.155C561.276 593.261 562.452 593.371 563.627 593.481L560.043 594.337C558.87 594.284 557.696 594.232 556.521 594.181L559.792 593.243L560.098 593.155ZM555.335 592.737C556.561 592.843 557.788 592.949 559.011 593.059L555.29 594.127C554.066 594.077 552.838 594.03 551.608 593.984L554.041 593.17L555.335 592.737ZM550.567 592.336C551.833 592.439 553.096 592.544 554.357 592.651L553.917 592.799L550.498 593.943C549.242 593.896 547.987 593.848 546.729 593.802L548.661 593.064L550.567 592.336ZM545.786 591.957C547.079 592.058 548.37 592.16 549.658 592.265L548.521 592.7L545.73 593.766C544.437 593.723 543.137 593.688 541.839 593.651L543.765 592.824L545.786 591.957ZM540.986 591.604C542.308 591.697 543.63 591.791 544.947 591.89L543.61 592.464L540.908 593.623C539.599 593.586 538.294 593.542 536.982 593.508L539.516 592.303L540.986 591.604ZM536.186 591.268C537.523 591.357 538.856 591.454 540.19 591.548L539.346 591.949L536.107 593.49C534.77 593.457 533.427 593.432 532.085 593.406L536.144 591.29L536.186 591.268ZM531.351 590.969C532.715 591.049 534.08 591.128 535.438 591.216L531.271 593.391C529.92 593.364 528.57 593.336 527.216 593.316L531.351 590.969ZM526.532 590.683C527.902 590.759 529.266 590.845 530.633 590.926L526.437 593.307C525.068 593.288 523.694 593.274 522.32 593.262L526.532 590.683ZM521.665 590.445C523.059 590.509 524.454 590.571 525.842 590.645L521.584 593.255C520.2 593.243 518.818 593.234 517.431 593.229L521.665 590.445ZM1031.54 168.537C1031.94 166.728 1032.34 164.86 1032.74 163.021C1033.31 162.269 1033.88 161.517 1034.45 160.764C1034.03 162.57 1033.62 164.405 1033.2 166.18C1032.65 166.97 1032.1 167.749 1031.54 168.537ZM1030.09 174.991C1030.5 173.155 1030.92 171.366 1031.33 169.526C1031.87 168.751 1032.42 167.982 1032.96 167.205C1032.53 169.017 1032.09 170.78 1031.66 172.592C1031.14 173.399 1030.61 174.187 1030.09 174.991ZM1028.63 181.388C1029.03 179.621 1029.44 177.863 1029.84 176.09C1030.35 175.299 1030.87 174.52 1031.39 173.727C1030.97 175.463 1030.55 177.189 1030.13 178.917C1029.63 179.747 1029.13 180.562 1028.63 181.388ZM1027.2 187.676C1027.59 185.996 1027.97 184.288 1028.36 182.588C1028.85 181.783 1029.34 180.996 1029.83 180.188C1029.43 181.837 1029.03 183.495 1028.63 185.122C1028.16 185.976 1027.68 186.827 1027.2 187.676ZM1025.8 193.835C1026.16 192.252 1026.53 190.613 1026.9 188.995C1027.36 188.181 1027.82 187.39 1028.28 186.572C1027.9 188.142 1027.52 189.712 1027.14 191.256C1026.69 192.113 1026.24 192.982 1025.8 193.835ZM1024.3 200.088C1024.68 198.493 1025.06 196.927 1025.44 195.342C1025.86 194.54 1026.29 193.753 1026.71 192.948C1026.33 194.464 1025.94 195.971 1025.56 197.496C1025.14 198.354 1024.72 199.235 1024.3 200.088ZM1022.84 206.188C1023.2 204.718 1023.55 203.244 1023.9 201.769C1024.29 200.98 1024.68 200.201 1025.07 199.408C1024.72 200.815 1024.36 202.223 1024.01 203.621C1023.62 204.468 1023.23 205.345 1022.84 206.188ZM1021.44 212.082C1021.75 210.765 1022.07 209.423 1022.39 208.085C1022.74 207.322 1023.1 206.564 1023.45 205.797C1023.13 207.068 1022.81 208.345 1022.49 209.593C1022.14 210.414 1021.79 211.264 1021.44 212.082ZM1020.07 217.765C1020.35 216.611 1020.63 215.44 1020.91 214.262C1021.23 213.538 1021.54 212.817 1021.86 212.09C1021.55 213.279 1021.24 214.423 1020.93 215.604C1020.64 216.317 1020.36 217.055 1020.07 217.765ZM1018.61 223.558C1018.87 222.528 1019.13 221.508 1019.38 220.492C1019.62 219.925 1019.85 219.366 1020.08 218.797C1019.82 219.768 1019.56 220.744 1019.3 221.721C1019.07 222.327 1018.85 222.954 1018.61 223.558ZM1017.25 228.989L1017.81 226.768C1017.97 226.361 1018.13 225.971 1018.28 225.563C1018.1 226.248 1017.92 226.939 1017.74 227.619C1017.57 228.071 1017.41 228.539 1017.25 228.989ZM1016.03 233.845C1016.11 233.523 1016.2 233.194 1016.28 232.87C1016.35 232.669 1016.42 232.478 1016.5 232.277C1016.42 232.563 1016.34 232.858 1016.27 233.14C1016.19 233.373 1016.11 233.613 1016.03 233.845ZM593.055 596.036L593.823 596.157L593.079 596.112L592.312 596.028L593.055 596.036ZM588.376 595.296L590.412 595.618L588.403 595.6C587.722 595.526 587.041 595.452 586.357 595.379L588.376 595.296ZM583.702 594.567C584.606 594.705 585.509 594.844 586.409 594.985L583.691 595.097L581.008 594.813L583.702 594.567ZM579.01 593.85C580.039 594.005 581.066 594.163 582.093 594.321L579.015 594.602C577.983 594.495 576.947 594.39 575.911 594.286L578.521 593.919L579.01 593.85ZM574.302 593.147C575.425 593.312 576.548 593.476 577.665 593.644L574.278 594.122C573.167 594.01 572.057 593.897 570.945 593.786L572.087 593.568L574.302 593.147ZM569.591 592.458C570.767 592.629 571.941 592.801 573.116 592.974L572.014 593.184L569.566 593.649C568.386 593.534 567.199 593.425 566.014 593.312L569.591 592.458ZM564.849 591.791C566.082 591.961 567.318 592.13 568.546 592.305L565.738 592.976L564.809 593.198C563.59 593.083 562.374 592.965 561.151 592.853L564.849 591.791ZM560.12 591.135C561.38 591.307 562.635 591.484 563.893 591.658L560.064 592.757C558.802 592.643 557.534 592.534 556.268 592.424L560.12 591.135ZM555.345 590.511C556.645 590.678 557.946 590.843 559.24 591.017L555.29 592.339C554.002 592.228 552.714 592.117 551.421 592.01L555.345 590.511ZM550.59 589.897C551.905 590.061 553.213 590.235 554.526 590.405L550.513 591.938C549.199 591.831 547.88 591.727 546.562 591.625L550.59 589.897ZM545.787 589.321C547.13 589.48 548.474 589.638 549.812 589.804L545.723 591.558C544.387 591.455 543.049 591.357 541.709 591.26L545.787 589.321ZM540.997 588.759C542.353 588.913 543.705 589.073 545.058 589.234L540.913 591.204C539.561 591.107 538.208 591.012 536.852 590.92L540.997 588.759ZM536.172 588.235C537.549 588.381 538.924 588.529 540.296 588.682L536.106 590.868C534.734 590.777 533.357 590.694 531.981 590.612L533.997 589.468L536.172 588.235ZM531.349 587.732C532.738 587.872 534.123 588.015 535.507 588.162L533.804 589.128L531.263 590.569C529.882 590.486 528.503 590.401 527.119 590.323L531.349 587.732ZM526.503 587.265C527.905 587.396 529.304 587.531 530.701 587.67L526.435 590.282C525.036 590.206 523.63 590.143 522.224 590.077L526.503 587.265ZM1029.28 171.759C1029.67 169.89 1030.05 167.955 1030.44 166.054C1031.02 165.294 1031.6 164.524 1032.18 163.763C1031.77 165.628 1031.37 167.528 1030.96 169.361C1030.4 170.162 1029.84 170.962 1029.28 171.759ZM1027.86 178.386C1028.27 176.48 1028.67 174.632 1029.08 172.723C1029.63 171.939 1030.19 171.15 1030.74 170.363C1030.32 172.234 1029.89 174.06 1029.47 175.931C1028.94 176.752 1028.4 177.568 1027.86 178.386ZM1026.45 184.949C1026.85 183.118 1027.24 181.293 1027.63 179.453C1028.16 178.647 1028.69 177.839 1029.22 177.03C1028.81 178.838 1028.4 180.636 1027.99 182.434C1027.48 183.278 1026.96 184.11 1026.45 184.949ZM1025.06 191.406C1025.45 189.658 1025.82 187.88 1026.2 186.11C1026.71 185.285 1027.21 184.462 1027.72 183.634C1027.32 185.375 1026.93 187.126 1026.53 188.843C1026.04 189.704 1025.55 190.55 1025.06 191.406ZM1023.7 197.749C1024.06 196.088 1024.43 194.373 1024.79 192.678C1025.27 191.838 1025.75 191.005 1026.23 190.162C1025.84 191.847 1025.46 193.533 1025.07 195.193C1024.61 196.053 1024.15 196.893 1023.7 197.749ZM1022.25 204.172C1022.62 202.499 1023 200.856 1023.37 199.193C1023.82 198.361 1024.26 197.538 1024.71 196.702C1024.32 198.344 1023.92 199.971 1023.53 201.62C1023.11 202.48 1022.68 203.317 1022.25 204.172ZM1020.83 210.465C1021.18 208.904 1021.54 207.339 1021.89 205.771C1022.3 204.945 1022.72 204.13 1023.13 203.299C1022.76 204.85 1022.39 206.399 1022.02 207.939C1021.63 208.791 1021.23 209.617 1020.83 210.465ZM1019.45 216.595C1019.78 215.161 1020.1 213.698 1020.43 212.241C1020.81 211.431 1021.19 210.633 1021.57 209.818C1021.23 211.259 1020.89 212.708 1020.55 214.122C1020.18 214.958 1019.81 215.764 1019.45 216.595ZM1018.08 222.583C1018.39 221.26 1018.7 219.923 1019 218.577C1019.35 217.792 1019.7 217.022 1020.04 216.234C1019.7 217.623 1019.36 218.969 1019.01 220.351C1018.71 221.105 1018.39 221.831 1018.08 222.583ZM1016.65 228.647C1016.94 227.41 1017.23 226.184 1017.52 224.961C1017.8 224.28 1018.09 223.613 1018.37 222.93C1018.06 224.16 1017.75 225.395 1017.44 226.63C1017.18 227.313 1016.91 227.968 1016.65 228.647ZM1015.27 234.447C1015.52 233.424 1015.76 232.394 1016 231.369C1016.23 230.784 1016.46 230.209 1016.69 229.622C1016.43 230.659 1016.17 231.702 1015.91 232.729C1015.7 233.31 1015.48 233.867 1015.27 234.447ZM1013.99 239.873C1014.17 239.128 1014.34 238.366 1014.52 237.61C1014.69 237.159 1014.86 236.716 1015.02 236.264C1014.83 237.033 1014.64 237.809 1014.44 238.56C1014.29 239.005 1014.14 239.43 1013.99 239.873ZM1012.92 244.368C1012.98 244.118 1013.04 243.859 1013.1 243.605L1013.18 243.38C1013.09 243.71 1013.01 244.035 1012.92 244.368ZM602.356 597.068L603.11 597.23L602.428 597.153L601.62 597.022L602.356 597.068ZM597.707 596.081C598.396 596.226 599.088 596.371 599.775 596.518L597.731 596.392L595.688 596.061L597.707 596.081ZM593.073 595.103C593.97 595.291 594.863 595.481 595.76 595.67L593.088 595.644C592.185 595.5 591.276 595.357 590.369 595.214L591.772 595.156L593.073 595.103ZM588.392 594.138C589.428 594.35 590.464 594.562 591.496 594.776L588.402 594.903C587.377 594.741 586.355 594.579 585.327 594.419L588.392 594.138ZM583.733 593.183C584.848 593.409 585.955 593.639 587.068 593.866L585.056 594.05L583.717 594.172C582.6 594 581.48 593.829 580.359 593.659L583.733 593.183ZM579.027 592.249C580.21 592.482 581.392 592.716 582.571 592.952L579.015 593.454C577.838 593.276 576.661 593.099 575.48 592.923L579.027 592.249ZM574.333 591.325C575.558 591.562 576.778 591.804 578 592.045L574.293 592.75C573.071 592.569 571.846 592.391 570.62 592.213L574.333 591.325ZM569.605 590.425C570.87 590.664 572.134 590.904 573.395 591.147L569.575 592.059C568.312 591.878 567.047 591.701 565.779 591.524L569.605 590.425ZM564.876 589.541C566.171 589.779 567.462 590.02 568.753 590.262L564.823 591.391C563.536 591.211 562.248 591.032 560.957 590.855L564.876 589.541ZM560.127 588.683C561.446 588.919 562.762 589.156 564.076 589.397C562.748 589.842 561.414 590.288 560.085 590.734C558.767 590.556 557.442 590.386 556.118 590.215L560.127 588.683ZM555.363 587.847C556.705 588.078 558.046 588.31 559.383 588.548L555.299 590.109C553.968 589.936 552.639 589.759 551.304 589.59L555.363 587.847ZM550.593 587.035C551.949 587.263 553.3 587.494 554.652 587.726L550.534 589.493C549.178 589.324 547.814 589.165 546.452 589.004L550.593 587.035ZM545.793 586.257C547.171 586.475 548.549 586.693 549.921 586.92L545.723 588.917C544.357 588.755 542.994 588.588 541.624 588.431L545.793 586.257ZM540.999 585.496C542.383 585.711 543.763 585.934 545.144 586.154L540.924 588.355C539.539 588.198 538.148 588.051 536.758 587.903L540.999 585.496ZM536.165 584.784C537.571 584.986 538.98 585.185 540.378 585.398L536.093 587.83C534.698 587.681 533.306 587.532 531.907 587.39L533.624 586.339L536.165 584.784ZM531.348 584.082C532.755 584.28 534.155 584.49 535.559 584.695L533.419 586.005L531.259 587.328C529.852 587.187 528.441 587.053 527.029 586.92L531.348 584.082ZM1027 174.993C1027.39 173.047 1027.77 171.028 1028.15 169.048C1028.73 168.291 1029.32 167.537 1029.9 166.777C1029.5 168.703 1029.11 170.668 1028.71 172.559C1028.14 173.368 1027.57 174.188 1027 174.993ZM1025.63 181.798C1026.02 179.829 1026.42 177.913 1026.81 175.944C1027.38 175.15 1027.94 174.34 1028.5 173.543C1028.09 175.473 1027.68 177.362 1027.27 179.295C1026.72 180.128 1026.17 180.969 1025.63 181.798ZM1024.26 188.532C1024.65 186.635 1025.03 184.743 1025.41 182.837C1025.96 182.018 1026.49 181.184 1027.04 180.362C1026.64 182.235 1026.24 184.096 1025.83 185.958C1025.31 186.815 1024.79 187.678 1024.26 188.532ZM1022.92 195.163C1023.29 193.347 1023.66 191.497 1024.03 189.658C1024.55 188.818 1025.07 187.963 1025.59 187.119C1025.2 188.926 1024.81 190.745 1024.42 192.526C1023.92 193.406 1023.42 194.288 1022.92 195.163ZM1021.58 201.699C1021.95 199.957 1022.31 198.167 1022.67 196.393C1023.16 195.533 1023.66 194.662 1024.15 193.798C1023.77 195.556 1023.39 197.312 1023.01 199.045C1022.53 199.931 1022.06 200.817 1021.58 201.699ZM1020.18 208.297C1020.55 206.548 1020.92 204.829 1021.29 203.087C1021.75 202.226 1022.22 201.354 1022.68 200.489C1022.29 202.205 1021.91 203.903 1021.52 205.624C1021.07 206.517 1020.63 207.408 1020.18 208.297ZM1018.8 214.772C1019.15 213.128 1019.5 211.479 1019.85 209.826C1020.29 208.962 1020.72 208.09 1021.16 207.222C1020.79 208.851 1020.43 210.48 1020.06 212.096C1019.64 212.992 1019.22 213.882 1018.8 214.772ZM1017.45 221.095C1017.78 219.57 1018.11 218.011 1018.44 216.461C1018.85 215.602 1019.25 214.736 1019.66 213.872C1019.32 215.4 1018.98 216.938 1018.63 218.437C1018.24 219.328 1017.85 220.211 1017.45 221.095ZM1016.11 227.316C1016.43 225.876 1016.74 224.43 1017.05 222.968C1017.43 222.122 1017.81 221.269 1018.19 220.418C1017.84 221.902 1017.49 223.343 1017.15 224.821C1016.8 225.657 1016.46 226.485 1016.11 227.316ZM1014.71 233.589C1015.01 232.229 1015.31 230.881 1015.61 229.532C1015.94 228.757 1016.26 227.976 1016.59 227.198C1016.27 228.541 1015.95 229.885 1015.63 231.232C1015.32 232.022 1015.01 232.803 1014.71 233.589ZM1013.35 239.631C1013.62 238.458 1013.88 237.276 1014.14 236.098C1014.43 235.385 1014.71 234.668 1014.99 233.954C1014.71 235.128 1014.43 236.308 1014.15 237.47C1013.89 238.194 1013.62 238.91 1013.35 239.631ZM1012.07 245.359C1012.29 244.421 1012.5 243.462 1012.71 242.508C1012.94 241.885 1013.17 241.256 1013.4 240.631C1013.18 241.581 1012.96 242.536 1012.73 243.462C1012.51 244.098 1012.29 244.725 1012.07 245.359ZM1010.83 250.821C1011 250.107 1011.16 249.42 1011.33 248.697C1011.46 248.324 1011.59 247.947 1011.72 247.573C1011.53 248.33 1011.34 249.082 1011.15 249.847C1011.04 250.173 1010.94 250.495 1010.83 250.821ZM1009.57 256.16C1009.65 255.849 1009.72 255.543 1009.79 255.235L1009.86 255.016L1009.6 256.081L1009.57 256.16ZM611.592 598.585L612.359 598.791L611.642 598.672L610.863 598.502L611.592 598.585ZM606.994 597.351C607.685 597.534 608.373 597.719 609.061 597.903L607.029 597.673L604.958 597.226L605.364 597.251L606.994 597.351ZM602.366 596.126C603.266 596.364 604.168 596.602 605.067 596.841L602.411 596.679C601.508 596.485 600.603 596.293 599.696 596.1L602.366 596.126ZM597.734 594.911C598.768 595.179 599.8 595.448 600.829 595.719L598.539 595.697L597.749 595.689L594.661 595.037L597.734 594.911ZM593.09 593.709C594.204 593.996 595.317 594.284 596.429 594.573L593.108 594.71C591.989 594.476 590.864 594.246 589.739 594.015L593.09 593.709ZM588.425 592.521C589.608 592.819 590.791 593.117 591.968 593.418L588.416 593.743C587.242 593.502 586.07 593.259 584.894 593.02C586.07 592.853 587.252 592.687 588.425 592.521ZM583.756 591.347C584.979 591.652 586.199 591.96 587.42 592.268L583.747 592.786C582.521 592.539 581.287 592.296 580.055 592.053L583.756 591.347ZM579.053 590.194C580.322 590.501 581.592 590.807 582.854 591.12L579.028 591.849C577.773 591.6 576.522 591.349 575.263 591.103L579.053 590.194ZM574.362 589.055C575.65 589.365 576.934 589.679 578.219 589.992L574.326 590.924C573.034 590.674 571.738 590.43 570.441 590.185L574.362 589.055ZM569.626 587.947C570.949 588.253 572.275 588.557 573.591 588.87L569.589 590.023C568.276 589.775 566.965 589.526 565.648 589.283L569.626 587.947ZM564.91 586.85C566.244 587.155 567.569 587.469 568.899 587.777C567.549 588.231 566.2 588.685 564.848 589.138C563.514 588.892 562.175 588.651 560.835 588.411L564.91 586.85ZM560.141 585.794C561.501 586.093 562.863 586.39 564.216 586.697L560.091 588.277C558.739 588.036 557.385 587.798 556.027 587.562L560.141 585.794ZM555.389 584.751C556.758 585.046 558.12 585.348 559.485 585.649L555.316 587.441C553.95 587.205 552.58 586.971 551.209 586.741L555.389 584.751ZM550.595 583.75C551.983 584.037 553.372 584.324 554.754 584.619L550.537 586.627C549.155 586.397 547.768 586.173 546.379 585.951L550.595 583.75ZM545.805 582.769C547.205 583.049 548.597 583.336 549.99 583.623L545.729 585.848C544.337 585.625 542.944 585.403 541.547 585.185L545.805 582.769ZM540.988 581.829C542.4 582.101 543.81 582.374 545.216 582.654L540.927 585.087C539.52 584.872 538.105 584.667 536.69 584.461L540.988 581.829ZM536.162 580.919C537.584 581.181 539.003 581.447 540.419 581.718L536.084 584.373C534.671 584.167 533.26 583.956 531.844 583.756L535.932 581.069L536.162 580.919ZM1024.73 178.15C1025.11 176.14 1025.48 174.05 1025.85 172.005C1026.44 171.247 1027.03 170.492 1027.62 169.732C1027.23 171.748 1026.84 173.798 1026.45 175.781C1025.88 176.577 1025.3 177.356 1024.73 178.15ZM1023.39 185.173C1023.78 183.119 1024.17 181.115 1024.56 179.061C1025.12 178.277 1025.69 177.504 1026.26 176.717C1025.85 178.719 1025.45 180.678 1025.05 182.68C1024.49 183.512 1023.94 184.345 1023.39 185.173ZM1022.06 192.121C1022.44 190.135 1022.82 188.151 1023.2 186.153C1023.75 185.34 1024.29 184.535 1024.84 183.719C1024.45 185.656 1024.05 187.582 1023.66 189.507C1023.13 190.373 1022.6 191.258 1022.06 192.121ZM1020.76 198.938C1021.12 197.04 1021.49 195.101 1021.86 193.176C1022.39 192.332 1022.91 191.482 1023.44 190.634C1023.06 192.507 1022.68 194.396 1022.3 196.243C1021.78 197.136 1021.27 198.05 1020.76 198.938ZM1019.45 205.672C1019.81 203.843 1020.17 201.975 1020.53 200.117C1021.04 199.244 1021.54 198.349 1022.05 197.473C1021.67 199.305 1021.3 201.13 1020.92 202.939C1020.43 203.845 1019.95 204.771 1019.45 205.672ZM1018.09 212.451C1018.46 210.626 1018.82 208.831 1019.19 207.011C1019.67 206.128 1020.14 205.215 1020.62 204.327C1020.24 206.117 1019.86 207.887 1019.48 209.68C1019.02 210.598 1018.56 211.537 1018.09 212.451ZM1016.75 219.114C1017.1 217.388 1017.45 215.656 1017.8 213.92C1018.25 213.028 1018.7 212.105 1019.16 211.208C1018.8 212.917 1018.43 214.624 1018.07 216.318C1017.63 217.245 1017.19 218.191 1016.75 219.114ZM1015.44 225.636C1015.77 224.022 1016.1 222.37 1016.43 220.728C1016.86 219.833 1017.28 218.906 1017.71 218.007C1017.37 219.621 1017.03 221.248 1016.68 222.831C1016.27 223.761 1015.86 224.71 1015.44 225.636ZM1014.12 232.093C1014.44 230.538 1014.76 228.989 1015.08 227.416C1015.49 226.524 1015.88 225.6 1016.29 224.702C1015.94 226.284 1015.59 227.818 1015.24 229.393C1014.87 230.289 1014.49 231.201 1014.12 232.093ZM1012.75 238.577C1013.06 237.102 1013.37 235.64 1013.68 234.174C1014.04 233.33 1014.39 232.457 1014.75 231.608L1013.77 235.963C1013.43 236.831 1013.09 237.714 1012.75 238.577ZM1011.42 244.859C1011.7 243.551 1011.98 242.231 1012.25 240.914C1012.57 240.111 1012.89 239.278 1013.21 238.471C1012.92 239.774 1012.63 241.083 1012.34 242.371C1012.03 243.197 1011.73 244.037 1011.42 244.859ZM1010.15 250.871C1010.39 249.767 1010.62 248.636 1010.86 247.51C1011.14 246.766 1011.42 245.993 1011.7 245.246C1011.45 246.358 1011.2 247.475 1010.96 248.557C1010.69 249.325 1010.42 250.106 1010.15 250.871ZM1008.87 256.782C1009.08 255.81 1009.3 254.885 1009.51 253.907C1009.71 253.344 1009.9 252.761 1010.1 252.197C1009.87 253.163 1009.65 254.129 1009.42 255.109C1009.23 255.664 1009.05 256.229 1008.87 256.782ZM1007.58 262.581C1007.72 261.937 1007.86 261.296 1008.01 260.658C1008.13 260.284 1008.26 259.893 1008.38 259.517C1008.23 260.172 1008.07 260.833 1007.92 261.489C1007.8 261.851 1007.69 262.219 1007.58 262.581ZM1006.42 267.773L1006.54 267.242C1006.57 267.145 1006.6 267.044 1006.63 266.947C1006.59 267.132 1006.55 267.322 1006.5 267.507L1006.42 267.773ZM634.536 604.427L632.479 603.639C785.28 637.162 902.638 657.978 994.661 315.865C904.211 677.137 788.484 646.627 634.536 604.427ZM997.533 303.323L997.461 303.657C904.546 659.856 785.616 636.878 630.013 602.697C629.116 602.355 628.212 602.013 627.311 601.671C782.143 627.313 902.905 641.25 997.533 303.323ZM999.166 295.488C999.045 296.069 998.927 296.658 998.807 297.233C903.629 642.345 781.907 626.92 625.452 600.965C624.434 600.579 623.423 600.193 622.403 599.808C778.44 617.362 902.167 624.142 999.166 295.488ZM1000.72 287.942C1000.53 288.868 1000.33 289.802 1000.14 290.733C902.706 624.856 778.204 616.984 620.899 599.243C619.79 598.826 618.675 598.41 617.56 597.993C774.718 607.43 901.373 606.964 1000.72 287.942ZM1002.23 280.519C1002 281.67 1001.77 282.804 1001.54 283.938C901.83 607.405 774.517 607.068 616.315 597.526C615.147 597.09 613.98 596.655 612.807 596.22C771.019 597.523 900.559 589.717 1002.23 280.519ZM1003.64 273.352C1003.38 274.672 1003.12 275.996 1002.86 277.304C900.888 589.981 770.784 597.169 611.718 595.819C610.504 595.371 609.287 594.923 608.068 594.477C767.276 587.639 899.666 572.466 1003.64 273.352ZM1005.08 266.092C1004.79 267.571 1004.49 269.049 1004.2 270.537C899.954 572.582 767.059 587.293 607.114 594.125C605.864 593.668 604.611 593.213 603.355 592.76C763.555 577.777 898.792 555.2 1005.08 266.092ZM1006.46 258.938C1006.16 260.497 1005.87 262.066 1005.57 263.594C899.044 555.212 763.341 577.437 602.485 592.447C601.207 591.985 599.927 591.525 598.644 591.066C759.805 567.94 897.869 537.941 1006.46 258.938ZM1007.82 251.776C1007.5 253.454 1007.18 255.131 1006.86 256.796C898.064 537.868 759.586 567.607 597.859 590.784C596.552 590.318 595.237 589.857 593.923 589.396C756.038 558.128 896.928 520.694 1007.82 251.776ZM1009.19 244.522C1008.86 246.309 1008.52 248.059 1008.18 249.845C897.1 520.554 755.818 557.799 593.188 589.139C591.864 588.675 590.541 588.21 589.213 587.748C752.284 548.336 896.003 503.441 1009.19 244.522ZM1010.51 237.363C1010.18 239.182 1009.85 241.014 1009.51 242.802C896.146 503.241 752.064 548.011 588.532 587.51C587.186 587.046 585.829 586.591 584.475 586.133C748.482 538.581 895.015 486.224 1010.51 237.363ZM1011.83 230.126C1011.48 232.027 1011.14 233.922 1010.79 235.811C895.133 485.982 748.256 538.261 583.827 585.913C582.47 585.453 581.117 584.991 579.757 584.535C744.697 528.845 894.037 469.002 1011.83 230.126ZM1013.15 222.826C1012.8 224.8 1012.44 226.736 1012.09 228.7C894.145 468.717 744.472 528.526 579.142 584.33C577.766 583.873 576.379 583.427 574.995 582.978C740.884 519.144 893.053 451.804 1013.15 222.826ZM1014.43 215.569C1014.08 217.563 1013.73 219.573 1013.38 221.539C893.136 451.488 740.654 518.829 574.404 582.787C573.021 582.336 571.643 581.882 570.255 581.438C737.061 509.471 892.028 434.618 1014.43 215.569ZM1015.72 208.232C1015.36 210.291 1015 212.335 1014.64 214.381C892.101 434.273 736.827 509.158 569.681 581.259C568.282 580.814 566.874 580.381 565.467 579.945C733.212 499.835 891.002 417.454 1015.72 208.232ZM1017 200.854C1016.64 202.961 1016.28 205.041 1015.91 207.132C891.067 417.079 732.981 499.522 564.915 579.773C563.51 579.338 562.107 578.899 560.695 578.47C729.37 490.22 889.974 400.288 1017 200.854ZM1018.25 193.482C1017.89 195.608 1017.53 197.749 1017.17 199.849C890.021 399.897 729.131 489.912 560.156 578.311C558.737 577.882 557.311 577.464 555.885 577.045C725.485 480.655 888.904 383.159 1018.25 193.482ZM1019.51 186.045C1019.14 188.224 1018.77 190.38 1018.41 192.544C888.945 382.745 725.248 480.346 555.364 576.891C553.938 576.473 552.512 576.055 551.079 575.645C721.605 471.112 887.843 366.03 1019.51 186.045ZM1020.76 178.561C1020.39 180.775 1020.02 182.974 1019.66 185.169C887.876 365.598 721.363 470.805 550.565 575.501C549.129 575.093 547.687 574.692 546.244 574.294C717.701 461.611 886.765 348.909 1020.76 178.561ZM620.77 600.585L621.558 600.84L620.838 600.682L620.03 600.462L620.77 600.585ZM616.211 599.107L618.256 599.77L616.283 599.443C615.588 599.254 614.887 599.066 614.188 598.878L616.211 599.107ZM611.61 597.633C612.514 597.921 613.419 598.209 614.319 598.498L612.289 598.268L611.657 598.197C610.759 597.955 609.864 597.713 608.964 597.471L611.61 597.633ZM607.029 596.171C608.052 596.496 609.069 596.823 610.089 597.149L607.054 596.963C606.024 596.688 604.987 596.415 603.953 596.141L607.029 596.171ZM602.393 594.718C603.511 595.067 604.631 595.415 605.744 595.766L602.416 595.735C601.305 595.442 600.197 595.147 599.082 594.856L602.393 594.718ZM597.777 593.277C598.951 593.64 600.119 594.008 601.29 594.373C600.123 594.422 598.947 594.469 597.776 594.518C596.602 594.211 595.423 593.907 594.244 593.603C595.424 593.495 596.599 593.386 597.777 593.277ZM593.113 591.854C594.34 592.227 595.568 592.599 596.789 592.975L593.122 593.313C591.901 592.999 590.677 592.686 589.451 592.375C590.674 592.202 591.893 592.028 593.113 591.854ZM588.464 590.446C589.723 590.823 590.977 591.204 592.231 591.585C590.969 591.764 589.712 591.944 588.448 592.123C587.189 591.804 585.929 591.488 584.667 591.172L588.464 590.446ZM583.78 589.059C585.071 589.439 586.36 589.819 587.645 590.203L583.766 590.946C582.477 590.626 581.183 590.309 579.888 589.993C581.186 589.682 582.485 589.371 583.78 589.059ZM579.094 587.692C580.409 588.071 581.72 588.453 583.029 588.837L579.054 589.791C577.745 589.472 576.435 589.153 575.122 588.837C576.446 588.455 577.772 588.074 579.094 587.692ZM574.386 586.349C575.721 586.727 577.054 587.107 578.383 587.489C577.043 587.877 575.697 588.264 574.354 588.65C573.019 588.331 571.676 588.021 570.334 587.709C571.684 587.256 573.038 586.802 574.386 586.349ZM569.661 585.03C571.016 585.404 572.371 585.779 573.72 586.159C572.352 586.62 570.978 587.08 569.607 587.54C568.261 587.226 566.916 586.91 565.566 586.599C566.931 586.076 568.298 585.554 569.661 585.03ZM564.926 583.737C566.295 584.106 567.659 584.481 569.022 584.856C567.645 585.385 566.262 585.913 564.881 586.442C563.513 586.132 562.134 585.831 560.758 585.529C562.148 584.931 563.538 584.334 564.926 583.737ZM560.165 582.477C561.552 582.839 562.94 583.201 564.32 583.571C562.916 584.175 561.509 584.78 560.103 585.384C558.726 585.08 557.355 584.771 555.974 584.473C557.371 583.808 558.77 583.142 560.165 582.477ZM555.403 581.239C556.797 581.596 558.185 581.96 559.575 582.323L555.34 584.34C553.946 584.041 552.545 583.753 551.144 583.463L555.403 581.239ZM550.603 580.045C552.016 580.392 553.432 580.735 554.838 581.092L550.54 583.337C549.138 583.046 547.738 582.754 546.331 582.471L550.603 580.045ZM545.817 578.871C547.232 579.211 548.639 579.563 550.05 579.91L545.741 582.356C544.327 582.073 542.906 581.799 541.485 581.525L545.817 578.871ZM540.98 577.753C542.415 578.08 543.854 578.401 545.281 578.741L540.915 581.414C539.492 581.141 538.068 580.869 536.64 580.604L540.98 577.753ZM545.755 578.45C544.321 578.108 542.878 577.782 541.437 577.452L545.805 574.582C547.241 574.978 548.675 575.378 550.104 575.784L545.755 578.45ZM550.548 579.626C549.13 579.276 547.713 578.924 546.29 578.581L550.619 575.928C552.046 576.334 553.468 576.747 554.888 577.162L550.548 579.626ZM555.358 580.82C553.944 580.46 552.523 580.112 551.102 579.762L555.408 577.316C556.826 577.732 558.242 578.149 559.653 578.574C558.223 579.322 556.791 580.072 555.358 580.82ZM560.127 582.06C558.727 581.694 557.328 581.327 555.923 580.967C557.348 580.223 558.77 579.478 560.192 578.734C561.597 579.158 562.994 579.591 564.392 580.024C562.971 580.703 561.551 581.382 560.127 582.06ZM564.899 583.321C563.509 582.947 562.113 582.579 560.716 582.213C562.127 581.541 563.535 580.868 564.944 580.195C566.34 580.627 567.736 581.058 569.125 581.499C567.717 582.106 566.309 582.714 564.899 583.321ZM569.642 584.618C568.265 584.238 566.886 583.861 565.505 583.487C566.904 582.884 568.302 582.281 569.699 581.678C571.078 582.117 572.448 582.565 573.821 583.01C572.428 583.546 571.037 584.082 569.642 584.618ZM574.378 585.938C573.014 585.553 571.649 585.171 570.28 584.792C571.659 584.263 573.035 583.733 574.411 583.203C575.782 583.647 577.154 584.089 578.518 584.541C577.138 585.007 575.76 585.473 574.378 585.938ZM579.096 587.284C577.748 586.896 576.395 586.51 575.041 586.128C576.41 585.667 577.775 585.205 579.141 584.744C580.487 585.192 581.824 585.651 583.166 586.105C581.811 586.498 580.456 586.892 579.096 587.284ZM583.792 588.654C582.465 588.263 581.139 587.873 579.806 587.487C581.145 587.1 582.479 586.712 583.815 586.325C585.154 586.775 586.495 587.224 587.825 587.682C586.482 588.006 585.138 588.33 583.792 588.654ZM588.484 590.042C587.175 589.65 585.859 589.264 584.543 588.877C585.868 588.558 587.189 588.238 588.509 587.919C589.818 588.372 591.118 588.831 592.423 589.288C591.112 589.539 589.797 589.791 588.484 590.042ZM593.147 591.454C591.866 591.065 590.589 590.672 589.304 590.285C590.589 590.038 591.875 589.791 593.158 589.544C594.45 589.996 595.744 590.445 597.028 590.901L593.147 591.454ZM597.819 592.88C596.561 592.491 595.295 592.108 594.029 591.723C595.291 591.544 596.555 591.365 597.815 591.184C599.067 591.632 600.315 592.082 601.564 592.532L597.819 592.88ZM602.445 594.324C601.229 593.944 600.015 593.561 598.796 593.182L602.433 592.845C603.656 593.285 604.879 593.725 606.096 594.168C604.88 594.221 603.665 594.273 602.445 594.324ZM607.091 595.78C605.915 595.407 604.73 595.038 603.548 594.669C604.717 594.62 605.884 594.57 607.05 594.519C608.221 594.949 609.39 595.379 610.557 595.81C609.404 595.8 608.249 595.79 607.091 595.78ZM611.682 597.245L608.356 596.183C609.457 596.193 610.551 596.201 611.646 596.211C612.762 596.622 613.876 597.033 614.987 597.447L611.682 597.245ZM616.29 598.722C615.264 598.391 614.234 598.06 613.202 597.731L616.232 597.914C617.255 598.296 618.277 598.679 619.297 599.062L616.29 598.722ZM620.86 600.202C619.962 599.911 619.062 599.62 618.163 599.328L620.808 599.628C621.704 599.965 622.598 600.302 623.491 600.64L620.86 600.202ZM625.44 601.693C624.75 601.467 624.065 601.242 623.373 601.017L625.349 601.345L627.396 602.122L626.19 601.858L625.44 601.693ZM629.997 603.184L629.162 602.911L629.9 603.073L630.696 603.375L629.997 603.184ZM1022.45 181.31C1022.82 179.221 1023.18 177.09 1023.55 174.974C1024.15 174.21 1024.74 173.442 1025.33 172.675C1024.95 174.751 1024.57 176.856 1024.19 178.899C1023.61 179.706 1023.03 180.507 1022.45 181.31ZM1021.18 188.446C1021.55 186.366 1021.92 184.291 1022.29 182.194C1022.87 181.4 1023.44 180.608 1024.02 179.812C1023.62 181.889 1023.23 183.921 1022.83 185.997C1022.28 186.819 1021.73 187.628 1021.18 188.446ZM1019.89 195.549C1020.26 193.503 1020.63 191.463 1021 189.406C1021.55 188.595 1022.1 187.79 1022.65 186.976C1022.26 189.001 1021.88 191.015 1021.49 193.025C1020.96 193.874 1020.42 194.704 1019.89 195.549ZM1018.62 202.56C1018.98 200.588 1019.34 198.578 1019.71 196.581C1020.23 195.744 1020.76 194.92 1021.29 194.08C1020.91 196.045 1020.54 198.03 1020.16 199.966C1019.65 200.841 1019.13 201.69 1018.62 202.56ZM1017.33 209.538C1017.7 207.587 1018.06 205.642 1018.42 203.674C1018.93 202.815 1019.44 201.972 1019.94 201.108C1019.57 203.039 1019.19 204.959 1018.81 206.867C1018.32 207.768 1017.83 208.641 1017.33 209.538ZM1016.03 216.477C1016.38 214.575 1016.74 212.678 1017.1 210.766C1017.59 209.889 1018.07 209.034 1018.56 208.152C1018.18 210.036 1017.8 211.894 1017.43 213.777C1016.96 214.686 1016.49 215.574 1016.03 216.477ZM1014.74 223.303C1015.09 221.493 1015.43 219.648 1015.78 217.813C1016.23 216.936 1016.69 216.085 1017.14 215.204C1016.78 217.004 1016.42 218.805 1016.06 220.589C1015.62 221.5 1015.18 222.397 1014.74 223.303ZM1013.44 230.09C1013.78 228.313 1014.13 226.547 1014.47 224.756C1014.89 223.887 1015.32 223.046 1015.74 222.172C1015.4 223.882 1015.06 225.607 1014.71 227.282C1014.29 228.222 1013.86 229.156 1013.44 230.09ZM1012.12 236.829C1012.45 235.127 1012.78 233.427 1013.12 231.721C1013.53 230.819 1013.95 229.949 1014.36 229.042C1014.01 230.728 1013.65 232.36 1013.3 234.041C1012.91 234.973 1012.51 235.902 1012.12 236.829ZM1010.83 243.416C1011.14 241.837 1011.45 240.229 1011.76 238.628C1012.13 237.772 1012.51 236.948 1012.87 236.087L1011.88 240.785C1011.53 241.663 1011.18 242.544 1010.83 243.416ZM1009.52 249.942C1009.83 248.426 1010.13 246.929 1010.44 245.402C1010.76 244.615 1011.08 243.858 1011.4 243.067C1011.09 244.509 1010.79 245.957 1010.49 247.38C1010.16 248.233 1009.84 249.094 1009.52 249.942ZM1008.2 256.408L1009.05 252.249C1009.35 251.473 1009.65 250.729 1009.94 249.95C1009.67 251.238 1009.4 252.53 1009.13 253.784C1008.82 254.655 1008.51 255.541 1008.2 256.408ZM1006.93 262.631C1007.18 261.435 1007.43 260.218 1007.67 259.006C1007.92 258.307 1008.18 257.637 1008.43 256.936C1008.16 258.131 1007.9 259.331 1007.63 260.543C1007.4 261.234 1007.17 261.943 1006.93 262.631ZM1005.67 268.697C1005.89 267.65 1006.11 266.63 1006.33 265.576C1006.5 265.092 1006.66 264.628 1006.83 264.143C1006.61 265.134 1006.39 266.131 1006.17 267.121C1006 267.639 1005.84 268.18 1005.67 268.697ZM1004.43 274.58C1004.58 273.831 1004.74 273.081 1004.9 272.335C1005.01 271.995 1005.12 271.667 1005.23 271.325C1005.08 272.021 1004.92 272.726 1004.77 273.41C1004.65 273.794 1004.54 274.197 1004.43 274.58ZM1003.33 279.737L1003.5 278.925L1003.57 278.689C1003.49 279.045 1003.41 279.382 1003.33 279.737ZM750.706 636.417C847.185 648.78 924.733 600.503 989.167 341.186C928.881 602.032 856.739 656.527 766.669 645.621C729.958 641.176 690.253 625.881 647.161 609.279L646.465 609.012C683.508 621.189 718.179 632.248 750.706 636.417ZM992.121 327.439C927.115 598.421 848.705 648.579 750.756 636.028C716.391 631.625 679.612 619.514 640.164 606.526L639.09 606.173L638.244 605.848C788.874 647.092 902.765 674.027 992.121 327.439ZM1000.53 290.824L1000.37 291.53L1000.49 290.951L1000.53 290.824ZM1002.24 283.005C1002.1 283.677 1001.96 284.35 1001.81 285.01C1001.7 285.407 1001.58 285.792 1001.47 286.185C1001.61 285.496 1001.75 284.829 1001.89 284.139L1002.24 283.005ZM1003.78 275.783C1003.57 276.762 1003.36 277.748 1003.15 278.721C1002.99 279.26 1002.82 279.785 1002.66 280.319C1002.85 279.387 1003.03 278.436 1003.22 277.491C1003.4 276.921 1003.59 276.355 1003.78 275.783ZM1005.32 268.5C1005.06 269.715 1004.8 270.926 1004.55 272.149C1004.32 272.866 1004.09 273.566 1003.85 274.272L1004.56 270.709C1004.81 269.973 1005.07 269.24 1005.32 268.5ZM1006.78 261.432C1006.52 262.764 1006.25 264.1 1005.97 265.404C1005.69 266.243 1005.4 267.064 1005.12 267.891C1005.39 266.503 1005.66 265.156 1005.93 263.764C1006.22 262.988 1006.5 262.215 1006.78 261.432ZM1008.22 254.393C1007.92 255.876 1007.62 257.362 1007.31 258.836C1007.01 259.691 1006.7 260.53 1006.39 261.372C1006.67 259.919 1006.94 258.437 1007.22 256.96C1007.56 256.106 1007.89 255.255 1008.22 254.393ZM1009.67 247.258C1009.35 248.879 1009.02 250.467 1008.69 252.088C1008.34 253.008 1007.98 253.911 1007.63 254.817L1008.55 250.003C1008.92 249.09 1009.3 248.18 1009.67 247.258ZM1011.05 240.268C1010.73 241.934 1010.4 243.609 1010.08 245.244C1009.69 246.198 1009.3 247.132 1008.91 248.071C1009.23 246.363 1009.56 244.679 1009.88 242.961C1010.27 242.065 1010.66 241.172 1011.05 240.268ZM1012.43 233.198C1012.09 234.96 1011.75 236.719 1011.4 238.47C1011 239.408 1010.59 240.33 1010.19 241.256C1010.51 239.512 1010.83 237.734 1011.15 235.964C1011.58 235.045 1012.01 234.126 1012.43 233.198ZM1013.83 226.053C1013.47 227.908 1013.11 229.72 1012.75 231.568C1012.32 232.525 1011.88 233.466 1011.44 234.41C1011.78 232.56 1012.11 230.713 1012.45 228.855C1012.91 227.923 1013.37 226.993 1013.83 226.053ZM1015.16 218.99C1014.81 220.865 1014.46 222.754 1014.1 224.6C1013.64 225.551 1013.18 226.488 1012.71 227.428C1013.06 225.521 1013.4 223.619 1013.75 221.696C1014.22 220.796 1014.69 219.898 1015.16 218.99ZM1016.51 211.838C1016.14 213.784 1015.78 215.721 1015.41 217.655C1014.93 218.58 1014.45 219.493 1013.97 220.409C1014.32 218.472 1014.66 216.499 1015 214.538C1015.5 213.639 1016.01 212.741 1016.51 211.838ZM1017.85 204.631C1017.48 206.64 1017.11 208.612 1016.74 210.61C1016.23 211.529 1015.72 212.438 1015.21 213.349C1015.57 211.33 1015.92 209.319 1016.28 207.289C1016.8 206.405 1017.33 205.519 1017.85 204.631ZM1019.15 197.453C1018.79 199.478 1018.42 201.52 1018.06 203.517C1017.53 204.412 1017 205.3 1016.47 206.19C1016.83 204.138 1017.18 202.079 1017.54 200.007C1018.08 199.157 1018.62 198.306 1019.15 197.453ZM1020.46 190.203C1020.09 192.286 1019.72 194.354 1019.34 196.423C1018.8 197.285 1018.25 198.144 1017.71 199.002C1018.06 196.923 1018.42 194.809 1018.77 192.706C1019.34 191.873 1019.9 191.038 1020.46 190.203ZM1021.77 182.911C1021.4 185.039 1021.02 187.132 1020.64 189.244C1020.07 190.087 1019.5 190.928 1018.93 191.769C1019.29 189.623 1019.66 187.493 1020.02 185.336C1020.61 184.528 1021.19 183.718 1021.77 182.911ZM1023.04 175.63C1022.67 177.765 1022.3 179.921 1021.93 182.027C1021.34 182.838 1020.76 183.65 1020.17 184.459C1020.53 182.299 1020.89 180.122 1021.25 177.938C1021.85 177.172 1022.44 176.397 1023.04 175.63ZM1030.22 133.078C1027.89 147.365 1025.55 161.271 1023.19 174.804C1022.58 175.576 1021.98 176.356 1021.38 177.13C1023.83 162.311 1026.25 147.052 1028.65 131.344L1028.32 130.972C1025.86 147.037 1023.38 162.631 1020.88 177.767C886.784 348.474 717.455 461.306 545.745 574.154C404.545 535.26 231.855 545.475 17.4895 842.396L17.7593 842.694C231.821 546.17 404.278 535.701 545.306 574.442L540.909 577.331C400.132 544.977 229.71 559.463 20.9398 846.21L21.21 846.508C229.669 560.163 399.852 545.425 540.452 577.632L536.081 580.504C395.751 554.647 227.605 573.357 24.3985 850.033L24.6677 850.33C227.557 574.062 395.456 555.103 535.603 580.818L531.261 583.67C391.403 564.267 225.542 587.152 27.8646 853.864L28.1332 854.161C225.486 587.864 391.09 564.732 530.756 584.002L526.408 586.859C387.059 573.865 223.516 600.897 31.3526 857.719L31.6216 858.016C223.453 601.617 386.733 574.336 525.883 587.205L521.562 590.045C382.76 583.407 221.548 614.592 34.8723 861.609L35.1407 861.906C221.474 615.322 382.41 583.892 521.002 590.413L516.719 593.229C378.497 592.888 219.631 628.164 38.4015 865.51L38.6687 865.806C219.544 628.902 378.121 593.391 516.122 593.622L511.884 596.411C374.276 602.306 217.769 641.603 41.9405 869.422L42.208 869.718C217.668 642.357 373.868 602.83 511.238 596.835L507.027 599.607C370.082 611.674 215.966 654.964 45.5093 873.367L45.7776 873.663C215.853 655.73 369.648 612.212 506.34 600.06L502.165 602.81C365.932 620.973 214.231 668.222 49.1086 877.345L49.3757 877.64C214.099 669.006 365.455 621.542 501.413 603.305L497.307 606.013C361.831 630.193 212.563 681.314 52.7189 881.335L52.9852 881.63C212.408 682.12 361.302 630.798 496.479 606.559L492.452 609.217C357.785 639.326 210.974 694.265 56.3566 885.356L56.6238 885.652C210.79 695.103 357.191 639.977 491.525 609.828C490.216 610.693 488.907 611.559 487.597 612.425C353.8 648.367 209.474 707.077 60.0308 889.417L60.2978 889.713C209.258 707.948 353.13 649.072 486.556 613.113C485.281 613.957 484.006 614.799 482.73 615.643C349.861 657.316 208.051 719.689 63.7185 893.493L63.984 893.787C207.792 720.6 349.099 658.086 481.546 616.427C480.317 617.24 479.089 618.056 477.86 618.87C345.992 666.156 206.732 732.141 67.4498 897.618L67.7158 897.912C206.424 733.105 345.116 667.007 476.501 619.772C475.326 620.55 474.152 621.328 472.978 622.107C342.183 674.882 205.505 744.374 71.2035 901.767L71.4685 902.06C205.126 745.409 341.143 675.852 471.369 623.177C470.283 623.898 469.197 624.621 468.112 625.343C338.462 683.469 204.396 756.375 74.9911 905.953L75.2577 906.248C203.914 757.524 337.185 684.611 466.138 626.654L463.227 628.592C334.812 691.916 203.4 768.131 78.8112 910.176L79.0745 910.467C202.759 769.445 333.179 693.321 460.712 630.27L458.365 631.835C331.266 700.198 202.535 779.611 82.6642 914.434L82.9306 914.729C201.618 781.228 329.002 702.063 454.886 634.157C454.414 634.472 453.942 634.79 453.469 635.106C327.79 708.323 201.787 790.797 86.5451 918.724L86.8082 919.015C200.239 793.092 324.104 711.216 447.826 638.853C323.921 716.601 200.963 801.916 90.4651 923.057L90.726 923.345C198.14 805.578 317.341 721.676 437.741 645.663C317.257 726.845 199.006 814.049 94.4079 927.415L94.6675 927.702C202.373 810.961 324.571 721.973 448.771 638.723C452.037 636.675 455.302 634.632 458.568 632.594C461.826 630.703 465.083 628.816 468.34 626.936C471.597 625.197 474.853 623.463 478.108 621.736C481.326 620.168 484.541 618.608 487.754 617.054C491.039 615.609 494.322 614.172 497.601 612.741C500.807 611.484 504.01 610.236 507.208 608.993C510.47 607.871 513.727 606.757 516.979 605.649C520.166 604.707 523.347 603.774 526.524 602.847C529.754 602.05 532.979 601.261 536.196 600.478C539.397 599.847 542.592 599.222 545.777 598.604C548.956 598.136 552.126 597.675 555.288 597.219C558.479 596.908 561.662 596.605 564.835 596.307C567.988 596.161 571.132 596.021 574.266 595.886C577.409 595.903 580.54 595.926 583.662 595.951C586.797 596.131 589.92 596.314 593.033 596.501C596.161 596.846 599.279 597.193 602.382 597.543C605.458 598.046 608.52 598.552 611.571 599.057C614.647 599.726 617.709 600.396 620.758 601.065C623.811 601.896 626.85 602.727 629.874 603.556C632.914 604.552 635.941 605.548 638.949 606.538C641.653 607.577 644.342 608.613 647.019 609.645C690.135 626.254 729.86 641.557 766.621 646.009C859.616 657.269 933.529 599.08 994.984 317.037C995.996 312.709 997.007 308.366 998.012 303.925C998.82 300.601 999.625 297.233 1000.43 293.839C1001.55 289.424 1002.67 284.867 1003.78 280.322C1004.95 275.884 1006.13 271.455 1007.29 266.919C1008.19 263.654 1009.09 260.379 1009.98 257.056C1011.03 253.4 1012.08 249.65 1013.12 245.905C1014.36 241.79 1015.59 237.623 1016.82 233.406C1017.95 229.795 1019.09 226.197 1020.21 222.526C1021.19 219.567 1022.15 216.57 1023.12 213.563C1024.4 209.84 1025.68 206.018 1026.95 202.2C1028.28 198.541 1029.6 194.887 1030.92 191.153C1032.04 188.192 1033.16 185.225 1034.28 182.225C1035.45 179.313 1036.61 176.347 1037.77 173.386C1039.16 170.098 1040.54 166.758 1041.93 163.402C1043.34 160.244 1044.76 157.109 1046.16 153.898L1047.16 151.797L1046.35 150.903L1046.34 150.919L1046.34 150.9L1046.05 150.573L1045.04 153.26C1044.71 153.85 1044.38 154.426 1044.04 155.015C1044.41 153.95 1044.78 152.893 1045.16 151.835C1045.43 151.387 1045.71 150.944 1045.98 150.498L1045.42 149.881C1045.21 150.474 1045.01 151.067 1044.8 151.667C1044.37 152.367 1043.94 153.062 1043.51 153.759C1043.92 152.493 1044.33 151.233 1044.74 149.956L1045.06 149.476L1044.63 149.003L1044.38 149.782C1043.88 150.537 1043.38 151.302 1042.87 152.054C1043.24 150.813 1043.61 149.547 1043.98 148.285L1043.58 147.839C1043.11 148.476 1042.64 149.107 1042.17 149.743L1042.9 147.095L1042.59 146.752C1042.23 148.046 1041.88 149.338 1041.52 150.625C1040.96 151.374 1040.41 152.122 1039.86 152.868C1040.48 150.515 1041.09 148.149 1041.7 145.771L1041.39 145.424C1040.67 148.205 1039.95 150.969 1039.23 153.715C1038.67 154.475 1038.11 155.244 1037.55 156.003C1038.5 152.142 1039.45 148.248 1040.39 144.321L1040.07 143.97C1039.03 148.294 1037.99 152.578 1036.94 156.82C1036.38 157.573 1035.81 158.314 1035.24 159.065C1036.49 153.692 1037.74 148.254 1038.97 142.754L1038.65 142.4C1037.33 148.282 1036 154.093 1034.66 159.829C1034.09 160.591 1033.51 161.349 1032.94 162.109C1034.45 155.202 1035.96 148.192 1037.46 141.077L1037.13 140.72C1035.56 148.212 1033.97 155.59 1032.38 162.85C1031.79 163.62 1031.21 164.395 1030.63 165.162C1032.38 156.696 1034.12 148.076 1035.85 139.302L1035.53 138.941C1033.72 148.091 1031.91 157.071 1030.08 165.885C1029.49 166.655 1028.9 167.427 1028.31 168.195C1030.27 158.155 1032.22 147.902 1034.16 137.434L1033.83 137.07C1031.83 147.903 1029.81 158.505 1027.78 168.878C1027.19 169.646 1026.6 170.404 1026.01 171.167C1028.15 159.553 1030.28 147.659 1032.39 135.48L1032.06 135.113C1029.89 147.654 1027.69 159.894 1025.49 171.838C1024.89 172.609 1024.29 173.379 1023.7 174.147C1026 160.938 1028.29 147.374 1030.55 133.447L1030.22 133.078Z" fill="white"/>
</mask>
<g mask="url(#mask0_771_896)">
<path d="M-33.7426 785.768L876.044 -37.3361L1244.18 369.564L334.389 1192.67L-33.7426 785.768Z" fill="url(#paint0_linear_771_896)"/>
</g>
</g>
<defs>
<linearGradient id="paint0_linear_771_896" x1="1036.11" y1="324.897" x2="194.999" y2="818.304" gradientUnits="userSpaceOnUse">
<stop stop-color="#F57E20"/>
<stop offset="1" stop-color="#BE3C20"/>
</linearGradient>
</defs>
</svg>
