<svg width="276" height="335" viewBox="0 0 276 335" fill="none" xmlns="http://www.w3.org/2000/svg">
<path opacity="0.2" d="M273.214 328.961C273.214 331.886 213.271 334.257 139.327 334.257C65.3829 334.257 5.43994 331.886 5.43994 328.961C5.43994 326.036 65.3829 323.665 139.327 323.665C213.271 323.665 273.214 326.036 273.214 328.961Z" fill="black"/>
<path d="M275.659 122.455V262.017H0V122.455C0 115.089 5.972 109.12 13.335 109.12H262.323C269.69 109.12 275.659 115.089 275.659 122.455Z" fill="#2C3A49"/>
<path d="M266.314 124.338V245.257C266.314 246.915 264.972 248.261 263.31 248.261H12.3472C11.7202 248.261 11.1352 248.069 10.6542 247.738C9.86519 247.196 9.34619 246.288 9.34619 245.257V124.338C9.34619 122.68 10.6892 121.334 12.3462 121.334H263.309C264.355 121.334 265.279 121.865 265.813 122.676C266.133 123.153 266.314 123.722 266.314 124.338Z" fill="#0D1015"/>
<path d="M119.628 248.261H9.16602V144.17C11.028 143.749 12.964 143.527 14.952 143.527C29.44 143.527 41.184 155.285 41.184 169.791C41.184 176.915 38.35 183.376 33.75 188.109C34.382 190.213 34.723 192.442 34.723 194.751C34.723 194.823 34.72 194.894 34.72 194.964C35.733 194.825 36.768 194.751 37.821 194.751C42.727 194.751 47.269 196.318 50.973 198.981C54.388 192.735 61.012 188.5 68.626 188.5C75.543 188.5 81.643 191.995 85.263 197.318C88.619 195.676 92.391 194.752 96.38 194.752C101.689 194.752 106.617 196.386 110.688 199.181C112.172 198.541 113.807 198.184 115.526 198.184C122.272 198.184 127.741 203.659 127.741 210.414C127.741 210.912 127.712 211.403 127.654 211.884C130.251 209.334 133.813 207.761 137.741 207.761C141.669 207.761 145.23 209.335 147.828 211.884C147.77 211.403 147.741 210.912 147.741 210.414C147.741 203.659 153.209 198.184 159.956 198.184C161.675 198.184 163.31 198.54 164.794 199.181C168.865 196.386 173.793 194.752 179.102 194.752C183.09 194.752 186.863 195.676 190.219 197.318C193.84 191.995 199.939 188.5 206.856 188.5C214.47 188.5 221.094 192.735 224.509 198.981C228.213 196.318 232.755 194.751 237.661 194.751C238.714 194.751 239.749 194.826 240.762 194.964C240.762 194.893 240.759 194.823 240.759 194.751C240.759 192.442 241.1 190.212 241.732 188.109C237.132 183.376 234.298 176.915 234.298 169.791C234.298 155.285 246.042 143.527 260.53 143.527C262.518 143.527 264.454 143.749 266.316 144.17V248.261H153.426H119.628Z" fill="#D6D6D6" fill-opacity="0.56"/>
<path d="M87.75 248.221C87.728 240.321 81.317 233.923 73.413 233.923C71.61 233.923 69.885 234.255 68.296 234.864C66.335 233.48 63.942 232.669 61.361 232.669C59.226 232.669 57.221 233.225 55.481 234.198C52.605 230.082 47.906 227.334 42.554 227.131C41.075 225.548 38.967 224.56 36.629 224.56C33.956 224.56 31.585 225.854 30.108 227.849C29.354 226.843 28.487 225.927 27.526 225.119C28.807 222.777 29.534 220.089 29.534 217.231C29.534 209.638 24.395 203.245 17.403 201.34C18.155 199.77 18.574 198.011 18.574 196.154C18.574 192.986 17.353 190.106 15.355 187.954C18.921 186.301 21.396 182.69 21.396 178.499C21.396 172.746 16.733 168.083 10.98 168.083C10.361 168.083 9.75404 168.137 9.16504 168.241V248.22H87.75V248.221Z" fill="#F9F9F9" fill-opacity="0.86"/>
<path d="M245.946 218.263C245.946 221.122 246.672 223.81 247.953 226.152C246.992 226.96 246.126 227.875 245.371 228.882C243.896 226.887 241.522 225.591 238.851 225.591C236.512 225.591 234.405 226.581 232.928 228.163H232.926C227.575 228.367 222.875 231.114 219.999 235.229C218.259 234.256 216.255 233.7 214.119 233.7C211.539 233.7 209.147 234.513 207.186 235.896C205.596 235.287 203.871 234.954 202.068 234.954C194.497 234.954 188.302 240.824 187.77 248.259H87.7112C87.1802 240.824 80.9842 234.954 73.4132 234.954C71.6102 234.954 69.8852 235.287 68.2952 235.896C66.3342 234.513 63.9422 233.7 61.3622 233.7C59.2272 233.7 57.2222 234.256 55.4822 235.229C52.6062 231.113 47.9062 228.366 42.5552 228.163H42.5532C41.0752 226.581 38.9692 225.591 36.6292 225.591C33.9572 225.591 31.5842 226.887 30.1092 228.882C29.3542 227.875 28.4882 226.96 27.5272 226.152C28.8082 223.81 29.5342 221.122 29.5342 218.263C29.5342 211.958 25.9912 206.479 20.7832 203.713C21.6912 203.531 22.6322 203.434 23.5982 203.434C30.0842 203.434 35.5642 207.758 37.3092 213.682C39.6972 212.1 42.5632 211.18 45.6402 211.18C52.4782 211.18 58.2562 215.72 60.1222 221.952C60.3332 221.938 60.5422 221.933 60.7552 221.933C63.8252 221.933 66.5942 223.219 68.5542 225.279C70.8572 222.015 74.6592 219.884 78.9602 219.884C85.9922 219.884 91.6932 225.584 91.6932 232.617C91.6932 233.389 91.6252 234.143 91.4942 234.879C93.3962 236.194 94.9182 238.019 95.8742 240.152C98.5312 236.303 102.972 233.782 108.002 233.782C108.449 233.782 108.89 233.804 109.325 233.843C111.383 230.407 115.139 228.106 119.434 228.106C120.941 228.106 122.375 228.392 123.7 228.907H123.703C123.786 228.749 123.873 228.594 123.96 228.441C124.491 227.519 125.113 226.655 125.812 225.862C126.394 225.202 127.033 224.59 127.714 224.032C127.852 223.92 127.991 223.811 128.129 223.704C128.551 223.384 128.988 223.085 129.442 222.806C129.508 222.767 129.573 222.726 129.639 222.687C129.802 222.59 129.967 222.495 130.132 222.406C130.212 222.365 130.29 222.321 130.367 222.28C130.447 222.239 130.525 222.197 130.605 222.159C130.765 222.077 130.928 221.999 131.09 221.924C131.17 221.888 131.25 221.851 131.33 221.817C131.495 221.742 131.66 221.674 131.825 221.608C131.9 221.577 131.975 221.547 132.053 221.518C132.07 221.511 132.087 221.503 132.101 221.499C132.259 221.438 132.419 221.383 132.579 221.327C132.666 221.298 132.751 221.269 132.836 221.242C132.921 221.213 133.008 221.186 133.096 221.159C133.327 221.089 133.557 221.023 133.79 220.965C133.909 220.933 134.028 220.904 134.147 220.878C134.234 220.856 134.324 220.837 134.414 220.82C134.492 220.803 134.572 220.786 134.652 220.772C134.853 220.731 135.055 220.694 135.256 220.663C135.336 220.651 135.419 220.639 135.499 220.629C135.72 220.597 135.941 220.571 136.164 220.549C136.28 220.537 136.399 220.527 136.516 220.517C136.768 220.498 137.023 220.486 137.278 220.478C137.431 220.473 137.584 220.471 137.739 220.471C137.894 220.471 138.047 220.473 138.2 220.478C138.455 220.485 138.71 220.497 138.962 220.517C139.079 220.527 139.197 220.537 139.314 220.549C139.537 220.571 139.758 220.597 139.979 220.629C140.059 220.639 140.142 220.651 140.222 220.663C140.596 220.724 140.967 220.794 141.333 220.879C141.457 220.908 141.58 220.937 141.702 220.969C141.709 220.972 141.719 220.974 141.726 220.976C141.838 221.005 141.949 221.034 142.058 221.066C142.167 221.095 142.274 221.129 142.383 221.161C142.47 221.188 142.555 221.214 142.64 221.244C142.727 221.271 142.812 221.3 142.897 221.329C142.982 221.358 143.067 221.387 143.152 221.419C143.217 221.443 143.285 221.468 143.351 221.492C143.62 221.594 143.887 221.703 144.149 221.82C144.224 221.854 144.302 221.888 144.377 221.922C144.544 222 144.709 222.08 144.874 222.162C144.954 222.201 145.032 222.242 145.112 222.283C145.19 222.324 145.267 222.368 145.347 222.409C145.512 222.501 145.677 222.594 145.84 222.69C145.905 222.729 145.971 222.77 146.037 222.809C146.491 223.088 146.928 223.387 147.35 223.707C147.488 223.814 147.629 223.923 147.765 224.035C148.039 224.258 148.304 224.489 148.563 224.729C148.949 225.091 149.318 225.469 149.667 225.865C150.366 226.659 150.987 227.522 151.519 228.444C151.606 228.597 151.694 228.752 151.776 228.91H151.778C153.103 228.396 154.537 228.109 156.044 228.109C160.339 228.109 164.096 230.41 166.153 233.846C166.587 233.807 167.029 233.785 167.476 233.785C172.506 233.785 176.947 236.306 179.605 240.155C180.561 238.022 182.083 236.197 183.985 234.882C183.854 234.147 183.786 233.392 183.786 232.62C183.786 225.587 189.486 219.887 196.519 219.887C200.819 219.887 204.622 222.018 206.924 225.282C208.885 223.222 211.654 221.936 214.723 221.936C214.937 221.936 215.145 221.941 215.354 221.955C217.223 215.723 223 211.183 229.836 211.183C232.915 211.183 235.781 212.103 238.169 213.685C239.914 207.761 245.393 203.437 251.88 203.437C252.846 203.437 253.787 203.534 254.695 203.716C249.489 206.479 245.946 211.958 245.946 218.263Z" fill="#E8E8E8" fill-opacity="0.46"/>
<path d="M187.729 248.221C187.751 240.321 194.162 233.923 202.066 233.923C203.869 233.923 205.594 234.255 207.183 234.864C209.144 233.48 211.537 232.669 214.118 232.669C216.253 232.669 218.258 233.225 219.998 234.198C222.874 230.082 227.573 227.334 232.925 227.131H232.926C234.405 225.548 236.512 224.56 238.85 224.56C241.523 224.56 243.894 225.854 245.371 227.849C246.125 226.843 246.992 225.927 247.953 225.119C246.672 222.777 245.945 220.089 245.945 217.231C245.945 209.638 251.084 203.245 258.076 201.34C257.325 199.77 256.905 198.011 256.905 196.154C256.905 192.986 258.126 190.106 260.124 187.954C256.558 186.301 254.083 182.69 254.083 178.499C254.083 172.746 258.746 168.083 264.499 168.083C265.118 168.083 265.725 168.137 266.314 168.241V248.22H187.729V248.221Z" fill="#F9F9F9" fill-opacity="0.86"/>
<path opacity="0.1" d="M118.006 121.333L9.34717 229.993V191.479L79.4922 121.333H118.006Z" fill="#F9F9F9" fill-opacity="0.86"/>
<path opacity="0.1" d="M204.92 121.333L77.9881 248.261H51.5801L178.508 121.333H204.92Z" fill="#F9F9F9" fill-opacity="0.86"/>
<path opacity="0.1" d="M266.314 124.338V178.812L196.865 248.261L124.245 248.283L251.177 121.355L263.31 121.333C264.356 121.333 265.28 121.864 265.814 122.675C266.133 123.153 266.314 123.722 266.314 124.338Z" fill="#F9F9F9" fill-opacity="0.86"/>
<path d="M275.702 262.018C275.702 265.672 274.804 269.117 273.213 272.141C272.188 274.101 270.869 275.884 269.317 277.436C265.372 281.381 259.921 283.821 253.899 283.821H21.8489C13.4629 283.821 6.1789 279.084 2.5349 272.141C0.943905 269.117 0.0458984 265.673 0.0458984 262.018H275.702Z" fill="#F9F9F9" fill-opacity="0.86"/>
<path d="M273.214 272.142C272.187 274.102 270.87 275.884 269.317 277.436C265.371 281.382 259.919 283.821 253.899 283.821H21.8471C13.4621 283.821 6.17916 279.083 2.53516 272.142H273.214Z" fill="#E2E2E2"/>
<path d="M158.469 271.824V272.466C158.469 273.861 157.329 275.001 155.935 275.001H119.733C118.338 275.001 117.198 273.861 117.198 272.466V271.824C117.198 270.429 118.338 269.29 119.733 269.29H155.935C157.329 269.29 158.469 270.43 158.469 271.824Z" fill="#2C3A49"/>
<path d="M178.625 283.821H97.1221V317.824H178.625V283.821Z" fill="#2C3A49"/>
<path opacity="0.2" d="M178.625 283.821H97.1221V296.28H178.625V283.821Z" fill="black"/>
<path d="M207.956 329.505H67.791V323.46C67.791 320.348 70.314 317.825 73.426 317.825H202.32C205.432 317.825 207.955 320.348 207.955 323.46V329.505H207.956Z" fill="#2C3A49"/>
<path opacity="0.2" d="M158.469 272.145V272.466C158.469 273.861 157.329 275.001 155.935 275.001H119.733C118.338 275.001 117.198 273.861 117.198 272.466V272.145H158.469Z" fill="black"/>
<path d="M131.638 133.358L102.704 245.648H181.376L152.442 133.358H131.638Z" fill="url(#paint0_linear_469_5341)" fill-opacity="0.59"/>
<path d="M118.318 242.014L134.233 136.991H149.845L165.76 242.014H118.318Z" fill="url(#paint1_linear_469_5341)" fill-opacity="0.7"/>
<path d="M153.666 127.903L157.016 127.739L167.027 127.25L169.842 127.113C169.842 127.113 174.093 109.258 172.922 90.9658C172.922 90.9658 172.206 95.2148 169.994 98.5598C169.102 99.9118 167.965 101.117 166.531 101.835C164.62 102.789 163.121 102.278 162.044 101.117C160.427 99.3788 159.752 96.1858 160.029 94.2778L153.666 127.903Z" fill="#EB472C"/>
<path opacity="0.2" d="M167.025 127.25L169.84 127.113C169.84 127.113 174.091 109.258 172.92 90.9658C172.92 90.9658 172.204 95.2148 169.992 98.5598L167.025 127.25Z" fill="black"/>
<path d="M171.706 138.755C173.946 143.43 175.947 146.159 178.028 156.6C178.033 156.622 178.037 156.645 178.041 156.669C178.046 156.645 178.051 156.622 178.055 156.6C180.136 146.159 182.137 143.43 184.377 138.755C186.627 134.059 184.377 128.344 184.377 128.344L178.055 127.904H178.028L171.706 128.344C171.706 128.344 169.457 134.059 171.706 138.755Z" fill="#F59D35"/>
<path d="M178.046 145.62C178.988 142.842 179.938 140.961 180.918 139.02C181.237 138.388 181.567 137.735 181.895 137.051C182.973 134.801 182.528 130.482 182.149 128.906H178.228H174.197C173.817 130.479 173.114 134.793 174.196 137.051C174.524 137.735 174.854 138.388 175.173 139.02C176.155 140.961 177.105 142.841 178.046 145.62Z" fill="#FDC52C"/>
<path d="M178.045 138.956C177.86 138.583 177.675 138.217 177.492 137.854C177.178 137.234 176.857 136.596 176.537 135.929C176.146 135.114 176.14 133.28 176.364 131.502H179.915C180.046 133.146 179.981 135.038 179.554 135.929C179.242 136.579 178.923 137.212 178.614 137.824L178.601 137.851C178.417 138.215 178.231 138.581 178.045 138.956Z" fill="#FDED5D"/>
<path d="M169.581 130.154C171.873 131.566 174.162 132.405 176.452 132.67C179.802 133.058 183.152 132.219 186.504 130.154L186.273 127.452L183.567 95.6758L183.415 93.9048L183.319 92.7598L182.919 88.0748C182.702 85.5418 180.584 83.5968 178.044 83.5968C177.952 83.5968 177.863 83.5988 177.774 83.6038C175.354 83.7358 173.378 85.6328 173.171 88.0738L172.754 92.9518L172.658 94.0748L172.511 95.8098L169.795 127.663L169.581 130.154Z" fill="#F9F9F9" fill-opacity="0.86"/>
<path d="M172.509 95.8118C174.131 96.3538 176.22 96.8938 178.095 96.8938C180.078 96.8938 182.093 96.2698 183.566 95.6768L183.414 93.9058C182.067 94.4918 180.026 95.2068 178.095 95.2068C176.3 95.2068 174.2 94.6168 172.656 94.0768L172.509 95.8118Z" fill="#2C3A49"/>
<path d="M169.581 130.154C175.223 133.632 180.862 133.632 186.504 130.154L186.273 127.452C184.42 128.336 181.34 129.508 178.043 129.508C175.002 129.508 171.888 128.51 169.794 127.664L169.581 130.154Z" fill="#2C3A49"/>
<path opacity="0.1" d="M176.452 132.67C179.802 133.058 183.152 132.219 186.504 130.154L186.273 127.452L183.567 95.6758L183.415 93.9048L183.319 92.7598L182.919 88.0748C182.702 85.5418 180.584 83.5968 178.044 83.5968C177.952 83.5968 177.863 83.5988 177.774 83.6038C178.384 88.7488 182.285 122.819 179.463 128.904C178.773 130.395 177.7 131.636 176.452 132.67Z" fill="black"/>
<path d="M183.318 92.7609C182.737 93.0909 181.932 93.4389 180.864 93.6749C180.074 93.8479 179.136 93.9599 178.042 93.9599C177.133 93.9599 176.307 93.8819 175.563 93.7569C174.559 93.5879 173.707 93.3319 173.011 93.0579C172.922 93.0229 172.836 92.9899 172.753 92.9539L173.17 88.0759C173.372 85.6759 175.288 83.8029 177.65 83.6159C177.686 83.6129 177.719 83.6099 177.755 83.6089C177.85 83.6019 177.945 83.5989 178.042 83.5989C178.225 83.5989 178.405 83.6089 178.583 83.6309C180.877 83.8819 182.717 85.7259 182.918 88.0769L183.318 92.7609Z" fill="#EB472C"/>
<path opacity="0.2" d="M153.666 127.903L157.016 127.739L162.043 101.116C160.426 99.3779 159.751 96.1849 160.028 94.2769L153.666 127.903Z" fill="black"/>
<path opacity="0.2" d="M183.318 92.7608C182.737 93.0908 181.932 93.4388 180.864 93.6748C180.074 93.8478 179.136 93.9598 178.042 93.9598C177.133 93.9598 176.307 93.8818 175.563 93.7568C177.753 93.2508 180.273 91.8178 180.498 89.0438C180.752 85.9118 179.409 84.3088 178.583 83.6288C180.877 83.8798 182.717 85.7238 182.918 88.0748L183.318 92.7608Z" fill="black"/>
<path d="M124.079 93.8818C124.11 94.0048 124.135 94.1378 124.154 94.2768L124.079 93.8818Z" fill="#2C3A49"/>
<path d="M151.575 147.803C148.215 154.814 145.215 158.906 142.094 174.563C142.087 174.597 142.08 174.63 142.075 174.667C142.068 174.631 142.06 174.597 142.053 174.563C138.932 158.905 135.932 154.813 132.572 147.803C129.198 140.761 132.572 132.191 132.572 132.191L142.053 131.531H142.094L151.575 132.191C151.575 132.191 154.949 140.761 151.575 147.803Z" fill="#F59D35"/>
<path d="M142.068 158.099C140.656 153.933 139.231 151.112 137.761 148.202C137.283 147.255 136.788 146.275 136.296 145.249C134.679 141.874 135.347 135.398 135.914 133.035H141.794H147.839C148.408 135.393 149.463 141.863 147.841 145.249C147.349 146.275 146.855 147.254 146.376 148.201C144.905 151.112 143.48 153.931 142.068 158.099Z" fill="#FDC52C"/>
<path d="M142.068 151.1C141.4 149.406 140.734 147.866 140.078 146.349L140.05 146.283C139.586 145.211 139.107 144.103 138.637 142.957C137.714 140.706 137.766 136.211 138.099 133.035H145.71C146.188 136.486 146.365 140.849 145.5 142.957C145.018 144.131 144.531 145.258 144.059 146.348C143.402 147.866 142.736 149.406 142.068 151.1Z" fill="#FDED5D"/>
<path d="M155.422 119.422C155.024 121.464 154.654 123.336 154.32 125C154.082 126.197 153.861 127.286 153.665 128.253C153.009 131.483 152.614 133.358 152.614 133.358C148.227 134.862 143.839 135.422 139.45 135.038C136.846 134.812 134.243 134.249 131.637 133.358C131.637 133.358 131.213 131.348 130.514 127.904C130.337 127.026 130.14 126.054 129.93 124.998C129.592 123.318 129.219 121.425 128.815 119.357C124.803 98.7898 117.97 61.0118 118.332 44.0508C118.433 39.3618 119.409 34.7568 120.916 30.3878C121.388 29.0048 121.915 27.6468 122.485 26.3128C122.928 25.2788 123.398 24.2598 123.887 23.2598C128.791 13.2388 135.726 5.13379 139.474 1.14479C140.142 0.436785 141.023 0.0557852 141.923 0.00578523C142.955 -0.0522148 144.014 0.325785 144.785 1.14479C148.579 5.18379 155.638 13.4408 160.549 23.6398C161.002 24.5798 161.433 25.5358 161.848 26.5048C162.413 27.8398 162.937 29.2018 163.407 30.5868C164.872 34.8988 165.821 39.4318 165.917 44.0498C166.282 61.0298 159.434 98.8688 155.422 119.422Z" fill="#F9F9F9" fill-opacity="0.86"/>
<path d="M155.421 119.422C155.023 121.464 154.653 123.336 154.319 125C145.954 128.298 137.828 128.242 129.929 124.999C129.591 123.319 129.218 121.426 128.814 119.358C137.754 122.873 146.621 122.767 155.421 119.422Z" fill="#2C3A49"/>
<path d="M153.666 128.253C153.412 129.505 153.197 130.553 153.029 131.368C152.764 132.654 152.615 133.358 152.615 133.358C151.319 133.802 150.022 134.164 148.724 134.444C147.312 134.748 145.901 134.954 144.489 135.063C142.809 135.194 141.131 135.186 139.451 135.039C136.847 134.813 134.244 134.25 131.638 133.359C131.638 133.359 131.461 132.518 131.146 130.994C130.974 130.161 130.761 129.122 130.514 127.905C131.744 128.577 135.808 130.505 142.126 130.505C143.559 130.505 144.906 130.405 146.145 130.244C147.62 130.051 148.944 129.771 150.09 129.465C151.627 129.056 152.841 128.602 153.666 128.253Z" fill="#2C3A49"/>
<path opacity="0.1" d="M153.029 131.368C152.764 132.654 152.615 133.358 152.615 133.358C151.319 133.802 150.022 134.164 148.724 134.444C147.312 134.748 145.9 134.954 144.488 135.063C142.808 135.194 141.131 135.186 139.451 135.039C136.847 134.813 134.243 134.25 131.637 133.359C131.637 133.359 131.461 132.518 131.146 130.994C132.667 131.584 136.79 132.974 141.938 133.036C146.258 133.086 150.589 132.066 153.029 131.368Z" fill="black"/>
<path d="M163.407 30.5898C157.235 32.2228 149.415 33.7888 142.115 33.7888C134.945 33.7888 127.164 32.1388 120.916 30.3888C121.389 29.0058 121.916 27.6468 122.487 26.3148C128.39 27.9508 135.604 29.4618 142.116 29.4618C148.748 29.4618 156.002 28.0348 161.848 26.5078C162.415 27.8418 162.937 29.2038 163.407 30.5898Z" fill="#2C3A49"/>
<path opacity="0.1" d="M139.451 135.037C136.846 134.81 134.243 134.249 131.638 133.357C131.638 133.357 117.822 67.9818 118.333 44.0508C118.434 39.3608 119.41 34.7578 120.917 30.3888C121.389 29.0058 121.917 27.6458 122.486 26.3138C122.929 25.2798 123.399 24.2608 123.889 23.2608C128.793 13.2398 135.727 5.13584 139.474 1.14684C140.142 0.438835 141.024 0.0578359 141.923 0.00683594C137.808 8.93984 127.946 41.4988 139.451 135.037Z" fill="black"/>
<path d="M160.549 23.6378C157.896 24.3558 154.781 25.0078 151.239 25.4428C149.261 25.6838 147.148 25.8598 144.904 25.9418C143.97 25.9778 143.012 25.9948 142.032 25.9948C133.762 25.9948 127.882 24.7058 123.887 23.2568C128.791 13.2358 135.726 5.13382 139.474 1.14782C140.214 0.360824 141.219 -0.0231763 142.215 0.00282372C143.154 0.0248237 144.084 0.407824 144.782 1.14782C148.214 4.79582 154.309 11.8938 159.077 20.7548H159.078C159.584 21.6988 160.076 22.6608 160.549 23.6378Z" fill="#EB472C"/>
<path d="M142.187 75.5128C150.583 75.5128 157.39 68.7062 157.39 60.3098C157.39 51.9134 150.583 45.1068 142.187 45.1068C133.791 45.1068 126.984 51.9134 126.984 60.3098C126.984 68.7062 133.791 75.5128 142.187 75.5128Z" fill="#2C3A49"/>
<path d="M154.211 60.3098C154.211 60.3618 154.211 60.4168 154.209 60.4688C154.125 66.9728 148.852 72.2478 142.346 72.3318C142.294 72.3338 142.239 72.3338 142.187 72.3338C141.056 72.3338 139.962 72.1768 138.924 71.8838C137.037 71.3498 135.336 70.3668 133.949 69.0588C132.759 67.9368 131.796 66.5788 131.142 65.0578C130.513 63.5998 130.163 61.9948 130.163 60.3098C130.163 53.6788 135.556 48.2858 142.187 48.2858C143.872 48.2858 145.48 48.6358 146.935 49.2648C148.456 49.9188 149.817 50.8818 150.936 52.0718C152.244 53.4588 153.227 55.1598 153.761 57.0468C154.054 58.0848 154.211 59.1788 154.211 60.3098Z" fill="#06C29D"/>
<path d="M150.937 52.0719L133.949 69.0599C132.759 67.9379 131.796 66.5799 131.142 65.0589L146.936 49.2659C148.457 49.9189 149.817 50.8819 150.937 52.0719Z" fill="#3CE2B7"/>
<path d="M154.211 60.3098C154.211 60.3618 154.211 60.4168 154.209 60.4688L142.346 72.3318C142.294 72.3338 142.239 72.3338 142.187 72.3338C141.056 72.3338 139.962 72.1768 138.924 71.8838L153.762 57.0458C154.054 58.0848 154.211 59.1788 154.211 60.3098Z" fill="#3CE2B7"/>
<path opacity="0.15" d="M153.761 57.0468C153.227 55.1598 152.244 53.4588 150.936 52.0718C149.816 50.8818 148.456 49.9188 146.935 49.2648C145.479 48.6358 143.872 48.2858 142.187 48.2858C135.556 48.2858 130.163 53.6788 130.163 60.3098C130.163 60.6418 130.177 60.9688 130.204 61.2908C130.713 55.1258 135.893 50.2638 142.187 50.2638C143.872 50.2638 145.48 50.6138 146.935 51.2428C148.456 51.8968 149.817 52.8598 150.936 54.0498C152.244 55.4368 153.227 57.1378 153.761 59.0248C153.968 59.7588 154.106 60.5188 154.167 61.3028C154.192 61.0278 154.203 60.7488 154.208 60.4698C154.21 60.4178 154.21 60.3628 154.21 60.3108C154.211 59.1788 154.054 58.0848 153.761 57.0468Z" fill="black"/>
<path opacity="0.2" d="M144.904 25.9428C143.97 25.9788 143.012 25.9958 142.032 25.9958C133.762 25.9958 127.882 24.7068 123.887 23.2578C128.791 13.2368 135.726 5.1348 139.474 1.1488C140.214 0.361801 141.219 -0.0221997 142.215 0.00380028C142.071 0.1778 136.652 6.6728 136.89 14.5648C137.057 20.1228 140.179 24.3868 144.904 25.9428Z" fill="black"/>
<path d="M130.516 127.903L127.166 127.739L117.155 127.25L114.34 127.113C114.34 127.113 110.089 109.258 111.26 90.9658C111.26 90.9658 111.976 95.2148 114.188 98.5598C115.08 99.9118 116.217 101.117 117.651 101.835C119.562 102.789 121.061 102.278 122.138 101.117C123.755 99.3788 124.43 96.1858 124.153 94.2778L130.516 127.903Z" fill="#EB472C"/>
<path opacity="0.2" d="M117.155 127.25L114.34 127.113C114.34 127.113 110.089 109.258 111.26 90.9658C111.26 90.9658 111.976 95.2148 114.188 98.5598L117.155 127.25Z" fill="black"/>
<path d="M112.475 138.755C110.235 143.43 108.234 146.159 106.153 156.6C106.148 156.622 106.143 156.645 106.14 156.669C106.135 156.645 106.13 156.622 106.126 156.6C104.045 146.159 102.044 143.43 99.8037 138.755C97.5537 134.059 99.8037 128.344 99.8037 128.344L106.126 127.904H106.153L112.475 128.344C112.475 128.344 114.725 134.059 112.475 138.755Z" fill="#F59D35"/>
<path d="M106.135 145.62C105.193 142.842 104.243 140.961 103.263 139.02C102.944 138.388 102.614 137.735 102.286 137.051C101.208 134.801 101.653 130.482 102.031 128.906H105.952H109.983C110.363 130.479 111.066 134.793 109.984 137.051C109.656 137.735 109.326 138.388 109.007 139.02C108.027 140.961 107.077 142.841 106.135 145.62Z" fill="#FDC52C"/>
<path d="M106.135 138.956C105.949 138.581 105.764 138.215 105.58 137.85L105.571 137.832C105.261 137.218 104.94 136.583 104.627 135.929C104.2 135.038 104.135 133.146 104.266 131.502H107.817C108.041 133.28 108.035 135.114 107.644 135.929C107.327 136.59 107.004 137.23 106.691 137.849C106.507 138.215 106.321 138.581 106.135 138.956Z" fill="#FDED5D"/>
<path d="M114.601 130.154C112.309 131.566 110.02 132.405 107.73 132.67C104.38 133.058 101.03 132.219 97.6777 130.154L97.9087 127.452L100.615 95.6758L100.767 93.9048L100.863 92.7598L101.263 88.0748C101.48 85.5418 103.598 83.5968 106.138 83.5968C106.229 83.5968 106.319 83.5988 106.408 83.6038C108.828 83.7358 110.804 85.6328 111.011 88.0738L111.428 92.9518L111.524 94.0748L111.671 95.8098L114.387 127.663L114.601 130.154Z" fill="#F9F9F9" fill-opacity="0.86"/>
<path d="M111.673 95.8118C110.051 96.3538 107.962 96.8938 106.087 96.8938C104.104 96.8938 102.089 96.2698 100.616 95.6768L100.768 93.9058C102.115 94.4918 104.157 95.2068 106.087 95.2068C107.882 95.2068 109.982 94.6168 111.526 94.0768L111.673 95.8118Z" fill="#2C3A49"/>
<path d="M114.601 130.154C108.959 133.632 103.32 133.632 97.6777 130.154L97.9087 127.452C99.7617 128.336 102.842 129.508 106.139 129.508C109.18 129.508 112.294 128.51 114.388 127.664L114.601 130.154Z" fill="#2C3A49"/>
<path opacity="0.1" d="M107.73 132.67C104.38 133.058 101.03 132.219 97.6777 130.154L97.9087 127.452L100.615 95.6758L100.767 93.9048L100.863 92.7598L101.263 88.0748C101.48 85.5418 103.598 83.5968 106.138 83.5968C106.229 83.5968 106.319 83.5988 106.408 83.6038C105.798 88.7488 101.897 122.819 104.719 128.904C105.409 130.395 106.482 131.636 107.73 132.67Z" fill="black"/>
<path d="M111.429 92.9539C111.345 92.9899 111.26 93.0239 111.171 93.0579C109.956 93.5349 108.272 93.9619 106.139 93.9619C103.563 93.9619 101.876 93.3379 100.863 92.7619L101.263 88.0769C101.48 85.5439 103.598 83.5989 106.138 83.5989C106.271 83.5989 106.401 83.6039 106.531 83.6159C108.893 83.8039 110.809 85.6769 111.011 88.0769L111.429 92.9539Z" fill="#EB472C"/>
<path opacity="0.2" d="M130.516 127.903L127.166 127.739L122.139 101.116C123.756 99.3779 124.431 96.1849 124.154 94.2769L130.516 127.903Z" fill="black"/>
<path opacity="0.2" d="M111.171 93.0579C109.956 93.5349 108.272 93.9619 106.139 93.9619C103.563 93.9619 101.876 93.3379 100.863 92.7619L101.263 88.0769C101.48 85.5439 103.598 83.5989 106.138 83.5989C106.271 83.5989 106.401 83.6039 106.531 83.6159C106.23 83.7749 104.017 85.0739 104.316 88.7799C104.619 92.5149 109.607 93.5149 111.171 93.0579Z" fill="black"/>
<path opacity="0.5" d="M150.091 129.464C149.569 131.448 149.106 133.128 148.724 134.443C147.312 134.747 145.901 134.953 144.489 135.062L144.452 135.038C144.452 135.038 145.104 133.453 146.146 130.243C149.129 121.055 155.313 98.5448 158.546 61.7818C161.912 23.5208 145.184 4.38977 145.184 4.38977C145.184 4.38977 159.242 15.1568 162.042 44.4298C164.334 68.3788 154.822 111.467 150.091 129.464Z" fill="#F9F9F9" fill-opacity="0.86"/>
<defs>
<linearGradient id="paint0_linear_469_5341" x1="142.04" y1="95.5009" x2="142.04" y2="203.704" gradientUnits="userSpaceOnUse">
<stop stop-color="white"/>
<stop offset="1" stop-color="white" stop-opacity="0"/>
</linearGradient>
<linearGradient id="paint1_linear_469_5341" x1="142.039" y1="95.5009" x2="142.039" y2="203.704" gradientUnits="userSpaceOnUse">
<stop stop-color="white"/>
<stop offset="1" stop-color="white" stop-opacity="0"/>
</linearGradient>
</defs>
</svg>
