<svg width="158" height="158" viewBox="0 0 158 158" fill="none" xmlns="http://www.w3.org/2000/svg">
<circle cx="79" cy="79" r="78.5" fill="#1E2836" stroke="#F57E20"/>
<path d="M67.75 98.6875V102.464C67.7502 103.942 67.4592 105.405 66.8936 106.77C66.328 108.136 65.4989 109.376 64.4538 110.421L62.125 112.75H95.875L93.5462 110.421C92.5011 109.376 91.672 108.136 91.1064 106.77C90.5408 105.405 90.2498 103.942 90.25 102.464V98.6875M112.75 53.6875V90.25C112.75 92.4878 111.861 94.6339 110.279 96.2162C108.696 97.7986 106.55 98.6875 104.312 98.6875H53.6875C51.4497 98.6875 49.3036 97.7986 47.7213 96.2162C46.1389 94.6339 45.25 92.4878 45.25 90.25V53.6875M112.75 53.6875C112.75 51.4497 111.861 49.3036 110.279 47.7213C108.696 46.1389 106.55 45.25 104.312 45.25H53.6875C51.4497 45.25 49.3036 46.1389 47.7213 47.7213C46.1389 49.3036 45.25 51.4497 45.25 53.6875M112.75 53.6875V79C112.75 81.2378 111.861 83.3839 110.279 84.9662C108.696 86.5486 106.55 87.4375 104.312 87.4375H53.6875C51.4497 87.4375 49.3036 86.5486 47.7213 84.9662C46.1389 83.3839 45.25 81.2378 45.25 79V53.6875" stroke="white" stroke-width="1.5" stroke-linecap="round" stroke-linejoin="round"/>
</svg>
