<svg width="895" height="593" viewBox="0 0 895 593" fill="none" xmlns="http://www.w3.org/2000/svg">
<g opacity="0.7">
<mask id="mask0_771_883" style="mask-type:luminance" maskUnits="userSpaceOnUse" x="-353" y="-156" width="1163" height="627">
<path d="M364.522 118.848L363.273 119.663L364.88 118.828L366.098 118.093L364.522 118.848ZM354.862 124.476C354.432 124.781 354 125.085 353.569 125.389C354.118 125.081 354.664 124.771 355.212 124.463L356.464 123.641L354.862 124.476ZM359.239 121.388L357.25 122.791C358.08 122.359 358.912 121.928 359.742 121.497C360.425 121.051 361.109 120.605 361.792 120.159L359.239 121.388ZM345.627 130.32L344.351 131.303L345.924 130.342C346.361 130.031 346.799 129.72 347.237 129.409L345.627 130.32ZM349.783 127.125C349.126 127.628 348.47 128.131 347.815 128.633C348.641 128.167 349.469 127.702 350.295 127.236C350.959 126.764 351.62 126.293 352.284 125.821L349.783 127.125ZM353.978 123.919L351.602 125.736C352.62 125.205 353.637 124.673 354.656 124.143C355.47 123.566 356.287 122.991 357.104 122.415C356.062 122.917 355.019 123.417 353.978 123.919ZM332.845 139.712L332.816 139.736L332.913 139.666L332.845 139.712ZM336.782 136.399C336.348 136.762 335.913 137.126 335.481 137.489L337.106 136.411L338.397 135.41L336.782 136.399ZM340.743 133.085L338.831 134.684L341.224 133.219C341.884 132.709 342.547 132.198 343.209 131.688L340.743 133.085ZM344.72 129.772C343.946 130.412 343.174 131.052 342.405 131.694L345.408 129.994C346.193 129.39 346.976 128.785 347.763 128.18C346.747 128.71 345.733 129.241 344.72 129.772ZM348.708 126.463L346.163 128.573C347.299 127.98 348.435 127.387 349.572 126.794C350.455 126.117 351.342 125.44 352.228 124.764C351.054 125.33 349.881 125.896 348.708 126.463ZM324.618 146.133L324.509 146.234L324.774 146.026L324.812 145.993L324.618 146.133ZM328.359 142.699L327.092 143.863L328.644 142.741C329.079 142.373 329.516 142.006 329.952 141.638L328.359 142.699ZM332.107 139.272C331.481 139.842 330.854 140.412 330.23 140.982C331.025 140.453 331.819 139.923 332.614 139.393C333.247 138.861 333.878 138.328 334.511 137.795L332.107 139.272ZM335.872 135.846L333.663 137.856C334.627 137.264 335.589 136.672 336.553 136.079C337.319 135.436 338.088 134.795 338.856 134.152L335.872 135.846ZM339.664 132.418C338.838 133.161 338.01 133.904 337.189 134.648C338.298 134.019 339.408 133.391 340.518 132.762C341.364 132.055 342.207 131.349 343.056 130.642L339.664 132.418ZM343.455 129.001C342.579 129.788 341.707 130.576 340.833 131.363L344.5 129.444C345.412 128.687 346.326 127.929 347.24 127.172C345.978 127.781 344.716 128.39 343.455 129.001ZM-339.633 376.967C-340.229 376.86 -340.828 376.751 -341.425 376.644C-341.856 376.634 -342.297 376.615 -342.729 376.604C-342.126 376.698 -341.519 376.796 -340.919 376.887C-340.492 376.913 -340.06 376.942 -339.633 376.967ZM-335.872 377.643C-336.016 377.618 -336.161 377.591 -336.304 377.565C-336.46 377.556 -336.62 377.545 -336.777 377.536C-336.647 377.556 -336.514 377.577 -336.384 377.597L-335.872 377.643ZM316.837 152.758L316.661 152.935L316.9 152.731L317.07 152.574L316.837 152.758ZM320.355 149.22C319.935 149.64 319.513 150.061 319.095 150.482L320.665 149.25L321.943 148.068C321.412 148.452 320.885 148.836 320.355 149.22ZM323.884 145.685L322.105 147.467C322.86 146.92 323.618 146.373 324.373 145.826C324.997 145.252 325.624 144.679 326.249 144.105C325.46 144.631 324.673 145.158 323.884 145.685ZM327.45 142.137C326.736 142.844 326.021 143.552 325.311 144.259C326.246 143.635 327.184 143.011 328.12 142.387C328.852 141.716 329.581 141.045 330.315 140.374L327.45 142.137ZM331.004 138.61C330.224 139.381 329.45 140.153 328.672 140.925C329.736 140.269 330.804 139.614 331.87 138.958C332.687 138.213 333.506 137.469 334.325 136.724L331.004 138.61ZM334.611 135.067C333.768 135.893 332.924 136.72 332.086 137.546L335.64 135.527C336.514 134.734 337.39 133.94 338.269 133.148C337.048 133.787 335.83 134.427 334.611 135.067ZM338.209 131.54C337.329 132.399 336.455 133.258 335.579 134.116L339.438 132.093C340.354 131.267 341.272 130.439 342.19 129.613L338.209 131.54ZM-334.499 377.269C-335.412 377.086 -336.332 376.9 -337.249 376.715C-337.824 376.704 -338.393 376.699 -338.969 376.687C-338.067 376.85 -337.162 377.015 -336.265 377.173C-335.676 377.205 -335.087 377.238 -334.499 377.269ZM-330.044 378.168C-330.677 378.044 -331.319 377.912 -331.958 377.782C-332.377 377.761 -332.789 377.746 -333.207 377.724C-332.596 377.834 -331.985 377.944 -331.38 378.048C-330.938 378.085 -330.485 378.131 -330.044 378.168ZM309.477 159.603L309.249 159.855L309.601 159.526L309.785 159.339L309.477 159.603ZM312.767 155.964C312.36 156.412 311.957 156.86 311.551 157.309L313.064 156.011C313.486 155.584 313.91 155.158 314.332 154.731L312.767 155.964ZM316.1 152.304C315.521 152.939 314.939 153.573 314.363 154.208L316.576 152.465C317.168 151.867 317.757 151.27 318.352 150.671L316.1 152.304ZM319.416 148.67C318.743 149.405 318.076 150.139 317.404 150.875L320.102 148.919C320.807 148.211 321.515 147.504 322.222 146.795L319.416 148.67ZM322.792 145.009C322.043 145.82 321.294 146.631 320.549 147.441L323.637 145.379C324.416 144.6 325.198 143.821 325.981 143.043L322.792 145.009ZM326.159 141.366C325.361 142.225 324.568 143.084 323.774 143.943L327.205 141.828L329.705 139.348C328.521 140.02 327.341 140.694 326.159 141.366ZM329.565 137.715C328.728 138.612 327.889 139.509 327.055 140.405L330.765 138.295C331.642 137.429 332.526 136.563 333.409 135.698L329.565 137.715ZM332.983 134.073C332.111 134.997 331.241 135.923 330.374 136.848C331.708 136.148 333.043 135.447 334.377 134.748C335.283 133.858 336.186 132.969 337.094 132.08L332.983 134.073ZM-334.896 376.36C-336.109 376.089 -337.316 375.822 -338.524 375.554C-339.291 375.568 -340.059 375.58 -340.827 375.591L-337.202 376.323C-336.431 376.338 -335.665 376.347 -334.896 376.36ZM-329.824 377.487C-330.876 377.256 -331.934 377.019 -332.99 376.784C-333.688 376.773 -334.387 376.762 -335.086 376.749C-334.027 376.965 -332.965 377.181 -331.913 377.39C-331.214 377.425 -330.522 377.453 -329.824 377.487ZM-325.045 378.549C-325.883 378.367 -326.732 378.176 -327.58 377.985C-328.178 377.958 -328.775 377.931 -329.374 377.902C-328.513 378.077 -327.652 378.252 -326.804 378.417C-326.215 378.464 -325.634 378.502 -325.045 378.549ZM-320.483 379.533C-321.11 379.399 -321.715 379.282 -322.344 379.146C-322.66 379.123 -322.974 379.1 -323.29 379.075C-322.621 379.199 -321.948 379.325 -321.273 379.453C-321.009 379.481 -320.748 379.505 -320.483 379.533ZM302.516 166.692L302.238 167.033L302.61 166.653L302.887 166.344L302.516 166.692ZM305.622 162.915L304.44 164.352C304.924 163.899 305.41 163.445 305.894 162.992C306.304 162.536 306.708 162.082 307.119 161.627L305.622 162.915ZM308.709 159.167C308.162 159.828 307.62 160.488 307.075 161.148L309.2 159.325L310.924 157.417L308.709 159.167ZM311.84 155.399C311.199 156.171 310.556 156.943 309.917 157.715L312.496 155.679C313.17 154.935 313.849 154.19 314.528 153.445L311.84 155.399ZM314.975 151.643C314.267 152.486 313.562 153.33 312.857 154.175L315.836 152.012L318.054 149.58L314.975 151.643ZM318.138 147.881C317.385 148.775 316.634 149.668 315.883 150.562L319.159 148.37C319.953 147.504 320.755 146.638 321.555 145.771L318.138 147.881ZM321.323 144.12C320.527 145.055 319.733 145.988 318.943 146.923C320.14 146.184 321.339 145.445 322.538 144.705C323.365 143.809 324.187 142.913 325.017 142.017L321.323 144.12ZM324.517 140.37C323.699 141.328 322.884 142.286 322.068 143.245L325.91 141.058C326.774 140.128 327.644 139.198 328.513 138.268L324.517 140.37ZM327.756 136.61C326.903 137.596 326.047 138.582 325.2 139.568L329.322 137.4C330.209 136.453 331.093 135.505 331.985 134.557L327.756 136.61ZM-335.861 375.118C-337.25 374.776 -338.628 374.441 -340.024 374.094C-340.9 374.144 -341.787 374.181 -342.664 374.229C-341.261 374.548 -339.887 374.843 -338.486 375.16C-337.612 375.145 -336.733 375.136 -335.861 375.118ZM-330.413 376.433C-331.725 376.114 -333.029 375.802 -334.337 375.486C-335.167 375.504 -336.007 375.51 -336.838 375.526L-332.944 376.391C-332.101 376.405 -331.255 376.422 -330.413 376.433ZM-325.143 377.705C-326.314 377.425 -327.493 377.139 -328.67 376.854C-329.456 376.845 -330.251 376.826 -331.038 376.815C-329.868 377.076 -328.695 377.34 -327.535 377.593C-326.738 377.631 -325.939 377.67 -325.143 377.705ZM-320.116 378.918C-321.107 378.685 -322.115 378.438 -323.121 378.193C-323.841 378.163 -324.57 378.124 -325.292 378.092C-324.287 378.317 -323.283 378.543 -322.296 378.755C-321.569 378.81 -320.842 378.865 -320.116 378.918ZM-315.164 380.074C-316.022 379.875 -316.856 379.694 -317.716 379.494C-318.252 379.455 -318.793 379.412 -319.329 379.373C-318.461 379.551 -317.589 379.732 -316.714 379.917L-315.164 380.074ZM-310.411 381.156C-310.947 381.033 -311.482 380.912 -312.016 380.791C-312.339 380.759 -312.665 380.724 -312.988 380.692C-312.426 380.809 -311.86 380.927 -311.298 381.044L-310.411 381.156ZM296.03 173.958L295.747 174.34L296.119 173.923L296.395 173.582L296.03 173.958ZM298.889 170.097C298.506 170.611 298.122 171.125 297.741 171.639L299.19 170.152L300.364 168.712L298.889 170.097ZM301.776 166.224L300.221 168.31L302.232 166.422C302.782 165.751 303.336 165.078 303.889 164.405L301.776 166.224ZM304.678 162.353C304.067 163.163 303.456 163.974 302.849 164.784L305.343 162.638C305.978 161.866 306.612 161.094 307.249 160.322L304.678 162.353ZM307.591 158.489L305.608 161.119L308.435 158.885C309.139 158.035 309.848 157.184 310.556 156.333C309.568 157.051 308.578 157.77 307.591 158.489ZM310.539 154.614C309.825 155.549 309.108 156.483 308.4 157.416L311.573 155.11C312.317 154.215 313.057 153.321 313.805 152.427L310.539 154.614ZM313.486 150.755C312.746 151.719 312.013 152.683 311.277 153.648L314.713 151.346C315.497 150.41 316.285 149.474 317.074 148.538L313.486 150.755ZM316.487 146.877C315.711 147.877 314.933 148.876 314.164 149.876L317.878 147.581C318.691 146.617 319.506 145.653 320.323 144.689L316.487 146.877ZM319.485 143.018C318.69 144.036 317.903 145.052 317.114 146.069L321.069 143.814C321.906 142.829 322.745 141.845 323.585 140.86L319.485 143.018ZM322.532 139.148C321.712 140.186 320.893 141.224 320.08 142.262L324.268 140.058C325.129 139.053 325.996 138.048 326.864 137.043L322.532 139.148ZM-337.275 373.526C-338.794 373.121 -340.344 372.692 -341.882 372.272C-342.768 372.36 -343.652 372.454 -344.538 372.54C-343.018 372.928 -341.486 373.325 -339.986 373.699C-339.079 373.646 -338.18 373.581 -337.275 373.526ZM-331.599 375.031C-333.102 374.635 -334.594 374.247 -336.105 373.845C-336.986 373.899 -337.86 373.963 -338.743 374.015C-337.248 374.382 -335.785 374.726 -334.292 375.092C-333.394 375.072 -332.495 375.054 -331.599 375.031ZM-325.928 376.503C-327.369 376.128 -328.802 375.758 -330.242 375.383C-331.087 375.405 -331.921 375.44 -332.768 375.46C-331.383 375.795 -330.002 376.127 -328.618 376.461C-327.725 376.471 -326.819 376.496 -325.928 376.503ZM-320.455 377.923C-321.765 377.586 -323.086 377.242 -324.406 376.898C-325.229 376.892 -326.05 376.891 -326.876 376.882C-325.603 377.191 -324.329 377.501 -323.069 377.802C-322.202 377.838 -321.32 377.889 -320.455 377.923ZM-315.198 379.287C-316.342 378.997 -317.509 378.69 -318.672 378.386C-319.461 378.356 -320.255 378.322 -321.047 378.289C-319.912 378.565 -318.776 378.841 -317.66 379.102C-316.843 379.161 -316.013 379.231 -315.198 379.287ZM-309.917 380.608C-310.968 380.345 -311.993 380.1 -313.042 379.838C-313.715 379.794 -314.399 379.738 -315.073 379.692C-314.039 379.924 -313.004 380.16 -311.962 380.4C-311.284 380.467 -310.595 380.542 -309.917 380.608ZM-304.797 381.867C-305.594 381.67 -306.39 381.475 -307.182 381.281C-307.721 381.231 -308.274 381.168 -308.814 381.117C-308.016 381.298 -307.213 381.482 -306.415 381.663C-305.879 381.729 -305.333 381.802 -304.797 381.867ZM-300.136 383.015C-300.578 382.907 -301.024 382.796 -301.467 382.687C-301.801 382.648 -302.145 382.599 -302.479 382.559C-302.032 382.66 -301.582 382.766 -301.139 382.864C-300.806 382.913 -300.469 382.966 -300.136 383.015ZM289.961 181.451L289.636 181.94L290.042 181.434L290.364 180.996L289.961 181.451ZM292.594 177.49L291.526 179.096L292.859 177.594C293.244 177.07 293.632 176.546 294.019 176.023L292.594 177.49ZM295.263 173.506C294.772 174.236 294.28 174.965 293.793 175.694C294.437 175.031 295.085 174.367 295.73 173.704C296.245 173.008 296.757 172.311 297.273 171.614L295.263 173.506ZM297.927 169.541C297.364 170.376 296.806 171.21 296.245 172.044L298.596 169.836C299.199 169.024 299.806 168.211 300.412 167.399L297.927 169.541ZM300.64 165.549C300.017 166.465 299.392 167.38 298.773 168.295L301.488 165.955C302.146 165.075 302.801 164.195 303.462 163.315L300.64 165.549ZM303.346 161.579C302.687 162.542 302.034 163.505 301.377 164.467L304.395 162.078C305.096 161.145 305.8 160.213 306.503 159.281L303.346 161.579ZM306.1 157.592C305.405 158.596 304.71 159.6 304.02 160.604C305.118 159.805 306.214 159.006 307.313 158.206C308.049 157.234 308.788 156.263 309.529 155.291L306.1 157.592ZM308.859 153.616C308.139 154.648 307.423 155.68 306.708 156.711L310.268 154.323C311.028 153.326 311.79 152.329 312.553 151.332L308.859 153.616ZM311.653 149.635C310.91 150.69 310.169 151.746 309.431 152.802L313.219 150.46C314.007 149.434 314.803 148.409 315.599 147.383L311.653 149.635ZM314.467 145.661C313.702 146.735 312.94 147.809 312.181 148.884L316.225 146.576C317.029 145.539 317.828 144.502 318.636 143.465L314.467 145.661ZM317.306 141.69C316.526 142.777 315.75 143.864 314.975 144.951L319.226 142.711C320.053 141.655 320.888 140.598 321.722 139.542L317.306 141.69ZM-333.278 373.269C-334.854 372.821 -336.465 372.348 -338.062 371.887C-338.971 371.98 -339.882 372.07 -340.792 372.162C-339.215 372.592 -337.622 373.034 -336.066 373.449C-335.135 373.391 -334.208 373.329 -333.278 373.269ZM-327.462 374.905C-329.032 374.464 -330.586 374.036 -332.163 373.591C-333.074 373.65 -333.985 373.71 -334.897 373.767C-333.318 374.183 -331.774 374.574 -330.197 374.989C-329.282 374.965 -328.375 374.932 -327.462 374.905ZM-321.663 376.509C-323.171 376.091 -324.672 375.678 -326.181 375.26C-327.069 375.286 -327.952 375.316 -328.842 375.341C-327.343 375.731 -325.85 376.117 -324.354 376.505C-323.452 376.512 -322.562 376.505 -321.663 376.509ZM-315.999 378.076C-317.403 377.691 -318.82 377.296 -320.235 376.904C-321.102 376.901 -321.963 376.905 -322.832 376.9C-321.424 377.267 -320.014 377.637 -318.62 377.993C-317.74 378.027 -316.876 378.045 -315.999 378.076ZM-310.504 379.595C-311.783 379.249 -313.09 378.882 -314.391 378.52C-315.227 378.491 -316.055 378.472 -316.892 378.442C-315.585 378.782 -314.275 379.122 -312.987 379.447C-312.153 379.503 -311.337 379.541 -310.504 379.595ZM-304.939 381.077C-306.185 380.744 -307.403 380.431 -308.646 380.1C-309.39 380.054 -310.124 380.016 -310.87 379.968C-309.626 380.273 -308.382 380.577 -307.128 380.889C-306.392 380.958 -305.674 381.01 -304.939 381.077ZM-299.499 382.511C-300.568 382.229 -301.637 381.947 -302.704 381.666C-303.356 381.608 -303.997 381.558 -304.65 381.499C-303.569 381.766 -302.484 382.034 -301.405 382.298C-300.763 382.374 -300.139 382.436 -299.499 382.511ZM-294.354 383.867C-295.195 383.648 -296.045 383.422 -296.892 383.198C-297.413 383.138 -297.927 383.086 -298.45 383.025C-297.6 383.235 -296.747 383.448 -295.909 383.65C-295.388 383.725 -294.874 383.793 -294.354 383.867ZM-289.677 385.099C-290.199 384.964 -290.735 384.822 -291.265 384.681C-291.567 384.639 -291.865 384.602 -292.168 384.559C-291.538 384.709 -290.932 384.843 -290.305 384.992C-290.097 385.026 -289.884 385.065 -289.677 385.099ZM284.308 189.183C284.201 189.364 284.095 189.545 283.988 189.726L284.38 189.188L284.728 188.659L284.308 189.183ZM286.746 185.083C286.411 185.647 286.074 186.211 285.74 186.775L287.009 185.199C287.365 184.66 287.717 184.122 288.074 183.583L286.746 185.083ZM289.174 181.011C288.721 181.767 288.271 182.521 287.821 183.277L289.651 181.208C290.134 180.48 290.619 179.752 291.104 179.024L289.174 181.011ZM291.64 176.915C291.114 177.788 290.588 178.66 290.064 179.532L292.288 177.243C292.85 176.4 293.414 175.557 293.98 174.713L291.64 176.915ZM294.112 172.831C293.534 173.78 292.96 174.727 292.386 175.675L294.962 173.251L296.806 170.508L294.112 172.831ZM296.608 168.743C295.997 169.742 295.387 170.74 294.779 171.739L297.632 169.278C298.288 168.307 298.951 167.335 299.614 166.362L296.608 168.743ZM299.129 164.653C298.483 165.693 297.839 166.734 297.2 167.774L300.351 165.28C301.033 164.277 301.713 163.274 302.398 162.271L299.129 164.653ZM301.663 160.569C301 161.635 300.339 162.701 299.679 163.767L303.063 161.302C303.775 160.264 304.495 159.225 305.213 158.187L301.663 160.569ZM304.239 156.475C303.546 157.57 302.851 158.665 302.166 159.759L305.821 157.307C306.551 156.251 307.278 155.196 308.012 154.14L304.239 156.475ZM306.818 152.397C306.114 153.504 305.417 154.611 304.717 155.718L308.584 153.326C309.336 152.248 310.095 151.17 310.854 150.092L306.818 152.397ZM309.453 148.304C308.724 149.432 307.991 150.56 307.27 151.687L311.382 149.339C312.15 148.249 312.919 147.159 313.694 146.068L309.453 148.304ZM312.086 144.23C311.348 145.365 310.619 146.498 309.886 147.632L314.202 145.359C314.987 144.255 315.775 143.152 316.567 142.049L312.086 144.23ZM-329.267 373.01C-330.899 372.521 -332.57 372.004 -334.225 371.5C-335.153 371.599 -336.087 371.684 -337.016 371.781C-335.384 372.253 -333.734 372.738 -332.125 373.195C-331.173 373.133 -330.217 373.075 -329.267 373.01ZM-323.303 374.779C-324.941 374.294 -326.555 373.825 -328.199 373.336C-329.133 373.401 -330.074 373.455 -331.01 373.517C-329.372 373.976 -327.772 374.408 -326.135 374.866C-325.191 374.837 -324.245 374.81 -323.303 374.779ZM-317.37 376.515C-318.944 376.053 -320.51 375.598 -322.086 375.135C-323.006 375.166 -323.933 375.191 -324.855 375.22C-323.295 375.652 -321.741 376.081 -320.184 376.511C-319.245 376.514 -318.307 376.515 -317.37 376.515ZM-311.562 378.215C-313.038 377.786 -314.531 377.347 -316.021 376.91C-316.93 376.912 -317.845 376.907 -318.756 376.906C-317.281 377.315 -315.801 377.729 -314.34 378.128C-313.412 378.159 -312.487 378.186 -311.562 378.215ZM-305.91 379.869C-307.272 379.478 -308.667 379.064 -310.053 378.656C-310.944 378.63 -311.838 378.601 -312.731 378.572C-311.345 378.956 -309.956 379.341 -308.591 379.709C-307.695 379.765 -306.804 379.814 -305.91 379.869ZM-300.166 381.488C-301.512 381.107 -302.83 380.745 -304.171 380.367C-304.998 380.319 -305.825 380.27 -306.655 380.219C-305.322 380.57 -303.991 380.918 -302.65 381.275C-301.818 381.349 -300.995 381.416 -300.166 381.488ZM-294.55 383.061L-298.121 382.061C-298.885 381.996 -299.649 381.93 -300.415 381.863C-299.222 382.178 -298.026 382.495 -296.835 382.807C-296.07 382.895 -295.313 382.975 -294.55 383.061ZM-289.181 384.564C-290.179 384.288 -291.19 384.003 -292.197 383.72C-292.873 383.645 -293.55 383.57 -294.228 383.494C-293.216 383.763 -292.2 384.034 -291.201 384.292C-290.524 384.386 -289.856 384.472 -289.181 384.564ZM-284.188 385.963C-284.929 385.759 -285.687 385.544 -286.443 385.331L-288.11 385.106C-287.236 385.331 -286.398 385.53 -285.528 385.752C-285.078 385.824 -284.637 385.891 -284.188 385.963ZM-279.213 387.301C-279.695 387.171 -280.167 387.047 -280.645 386.919L-281.22 386.828C-280.688 386.961 -280.155 387.094 -279.62 387.228L-279.213 387.301ZM279.129 197.081L278.826 197.661L279.186 197.112L279.513 196.552L279.129 197.081ZM281.326 192.896C281.008 193.497 280.689 194.1 280.373 194.7L281.594 193.017L282.6 191.31L281.326 192.896ZM283.536 188.713L282.292 191.069L283.982 188.964C284.436 188.197 284.895 187.428 285.353 186.658L283.536 188.713ZM285.772 184.516C285.285 185.425 284.797 186.333 284.315 187.24C285.017 186.445 285.724 185.648 286.428 184.852C286.947 183.98 287.464 183.108 287.984 182.236L285.772 184.516ZM288.014 180.331C287.49 181.308 286.968 182.284 286.445 183.261L288.859 180.773C289.43 179.82 290.007 178.865 290.583 177.91L288.014 180.331ZM290.295 176.125C289.729 177.164 289.16 178.204 288.6 179.241L291.331 176.669C291.934 175.669 292.533 174.67 293.139 173.67L290.295 176.125ZM292.573 171.942C291.987 173.011 291.409 174.08 290.827 175.149L293.808 172.576C294.441 171.534 295.079 170.492 295.718 169.448L292.573 171.942ZM294.906 167.731C294.291 168.838 293.674 169.945 293.065 171.051L296.309 168.48C296.966 167.409 297.623 166.339 298.285 165.267L294.906 167.731ZM297.235 163.542C296.605 164.668 295.983 165.792 295.358 166.917L298.835 164.382C299.511 163.288 300.191 162.195 300.872 161.1L297.235 163.542ZM299.616 159.338C298.963 160.485 298.312 161.633 297.667 162.78L301.374 160.29C302.07 159.177 302.773 158.062 303.476 156.947L299.616 159.338ZM302.007 155.145C301.339 156.307 300.677 157.468 300.017 158.629L303.954 156.191C304.664 155.065 305.375 153.939 306.091 152.812L302.007 155.145ZM304.434 150.952C303.752 152.125 303.072 153.299 302.396 154.472L306.537 152.106C307.265 150.964 308.006 149.821 308.744 148.678L304.434 150.952ZM306.891 146.761C306.191 147.946 305.494 149.13 304.803 150.315L309.177 148.007C309.917 146.86 310.652 145.713 311.397 144.567L306.891 146.761ZM-325.266 372.742C-326.98 372.204 -328.739 371.634 -330.476 371.078C-331.399 371.179 -332.317 371.291 -333.24 371.39C-331.544 371.907 -329.828 372.439 -328.156 372.939C-327.193 372.872 -326.226 372.811 -325.266 372.742ZM-319.124 374.652C-320.849 374.115 -322.542 373.6 -324.273 373.06C-325.21 373.127 -326.145 373.198 -327.084 373.264C-325.388 373.765 -323.732 374.239 -322.037 374.741C-321.068 374.708 -320.09 374.687 -319.124 374.652ZM-313.05 376.521C-314.694 376.015 -316.331 375.513 -317.979 375.004C-318.921 375.04 -319.875 375.063 -320.82 375.097C-319.197 375.574 -317.582 376.045 -315.965 376.518C-314.996 376.516 -314.017 376.525 -313.05 376.521ZM-307.094 378.355C-308.64 377.883 -310.206 377.398 -311.767 376.916C-312.711 376.921 -313.67 376.909 -314.616 376.912C-313.073 377.365 -311.524 377.822 -309.997 378.263C-309.031 378.292 -308.057 378.329 -307.094 378.355ZM-301.281 380.144C-302.722 379.708 -304.201 379.248 -305.668 378.794C-306.602 378.77 -307.551 378.731 -308.488 378.705C-307.023 379.133 -305.555 379.563 -304.111 379.975C-303.169 380.03 -302.219 380.092 -301.281 380.144ZM-295.354 381.903C-296.791 381.473 -298.203 381.062 -299.634 380.637C-300.523 380.589 -301.428 380.528 -302.32 380.477C-300.901 380.874 -299.489 381.267 -298.062 381.669C-297.161 381.746 -296.252 381.829 -295.354 381.903ZM-289.558 383.616L-293.461 382.462C-294.308 382.394 -295.169 382.313 -296.018 382.242C-294.722 382.605 -293.425 382.97 -292.135 383.33C-291.277 383.425 -290.414 383.523 -289.558 383.616ZM-283.978 385.266C-285.111 384.935 -286.26 384.592 -287.406 384.253C-288.192 384.169 -288.993 384.074 -289.783 383.988C-288.642 384.31 -287.498 384.633 -286.374 384.943C-285.576 385.051 -284.773 385.16 -283.978 385.266ZM-278.705 386.825C-279.624 386.558 -280.566 386.277 -281.505 385.996C-282.211 385.905 -282.93 385.803 -283.637 385.709C-282.603 385.993 -281.604 386.251 -280.577 386.53C-279.953 386.628 -279.327 386.728 -278.705 386.825ZM-273.288 388.359C-274.044 388.142 -274.792 387.931 -275.539 387.722C-276 387.652 -276.47 387.574 -276.933 387.502C-276.161 387.707 -275.385 387.915 -274.61 388.123C-274.169 388.201 -273.727 388.281 -273.288 388.359ZM-268.346 389.756L-269.454 389.443C-269.662 389.406 -269.875 389.367 -270.082 389.331C-269.689 389.435 -269.292 389.542 -268.9 389.646L-268.346 389.756ZM274.384 205.192L274.082 205.851L274.444 205.23L274.769 204.6L274.384 205.192ZM276.341 200.928C276.057 201.543 275.779 202.155 275.496 202.769L276.6 201.076C276.915 200.471 277.232 199.865 277.549 199.26L276.341 200.928ZM278.341 196.62C277.96 197.438 277.578 198.257 277.2 199.075L278.794 196.877C279.206 196.089 279.614 195.304 280.028 194.515L278.341 196.62ZM280.332 192.339C279.896 193.271 279.466 194.2 279.032 195.131L280.996 192.682C281.473 191.776 281.954 190.868 282.434 189.96L280.332 192.339ZM282.369 188.025C281.889 189.039 281.409 190.054 280.933 191.067L283.213 188.487C283.733 187.505 284.255 186.523 284.78 185.54L282.369 188.025ZM284.407 183.729C283.898 184.796 283.392 185.863 282.887 186.93L285.452 184.285C286.005 183.249 286.56 182.213 287.116 181.177L284.64 183.511L284.407 183.729ZM286.479 179.42C285.944 180.528 285.41 181.637 284.88 182.746L287.697 180.091C288.279 179.012 288.866 177.932 289.454 176.851L287.512 178.528L286.479 179.42ZM288.568 175.115C288.01 176.256 287.456 177.395 286.905 178.535L287.256 178.232L289.985 175.876C290.585 174.771 291.185 173.668 291.787 172.563L290.167 173.847L288.568 175.115ZM290.682 170.81C290.109 171.973 289.538 173.135 288.97 174.297L289.925 173.541L292.266 171.685C292.889 170.551 293.522 169.415 294.153 168.28L292.459 169.515L290.682 170.81ZM292.828 166.502C292.233 167.686 291.639 168.871 291.053 170.054L292.229 169.197L294.604 167.466C295.24 166.32 295.869 165.176 296.509 164.03L294.18 165.595L292.828 166.502ZM294.989 162.202C294.383 163.398 293.786 164.593 293.187 165.789L293.962 165.268L296.94 163.268C297.594 162.102 298.258 160.934 298.92 159.767L295.03 162.177L294.989 162.202ZM297.199 157.892C296.572 159.106 295.943 160.32 295.326 161.533L299.323 159.059C299.99 157.884 300.654 156.709 301.328 155.533L297.199 157.892ZM299.413 153.601C298.779 154.819 298.157 156.036 297.529 157.253L301.718 154.859C302.4 153.672 303.09 152.484 303.78 151.296L299.413 153.601ZM301.692 149.296C301.036 150.527 300.377 151.758 299.733 152.989L304.15 150.659C304.846 149.464 305.544 148.27 306.247 147.074L301.692 149.296ZM-321.355 372.439C-323.116 371.86 -324.926 371.248 -326.711 370.653C-327.648 370.76 -328.586 370.866 -329.524 370.971C-327.758 371.535 -325.969 372.116 -324.229 372.662C-323.269 372.591 -322.315 372.512 -321.355 372.439ZM-315.063 374.481C-316.852 373.899 -318.603 373.343 -320.396 372.758C-321.34 372.831 -322.28 372.908 -323.225 372.978C-321.446 373.532 -319.707 374.056 -317.928 374.609C-316.968 374.572 -316.021 374.52 -315.063 374.481ZM-308.818 376.492C-310.542 375.937 -312.261 375.386 -313.99 374.826C-314.933 374.866 -315.867 374.915 -316.813 374.952C-315.106 375.48 -313.409 376.001 -311.709 376.524C-310.741 376.518 -309.784 376.501 -308.818 376.492ZM-302.68 378.47C-304.322 377.946 -305.988 377.406 -307.646 376.87C-308.588 376.879 -309.517 376.902 -310.46 376.908C-308.839 377.408 -307.211 377.914 -305.608 378.402C-304.63 378.426 -303.654 378.449 -302.68 378.47ZM-296.668 380.408C-298.217 379.917 -299.813 379.396 -301.392 378.885C-302.326 378.866 -303.245 378.862 -304.182 378.84C-302.639 379.314 -301.094 379.788 -299.571 380.246C-298.605 380.298 -297.63 380.359 -296.668 380.408ZM-290.528 382.315C-292.092 381.825 -293.632 381.352 -295.188 380.868C-296.094 380.823 -296.989 380.788 -297.897 380.741C-296.397 381.185 -294.904 381.623 -293.397 382.072C-292.445 382.148 -291.476 382.241 -290.528 382.315ZM-284.538 384.174C-285.982 383.727 -287.43 383.277 -288.878 382.827C-289.755 382.76 -290.625 382.7 -291.505 382.631C-290.114 383.043 -288.722 383.455 -287.338 383.863C-286.411 383.961 -285.462 384.078 -284.538 384.174ZM-278.75 385.971C-280.046 385.573 -281.362 385.162 -282.675 384.752C-283.512 384.667 -284.345 384.587 -285.185 384.5C-283.929 384.873 -282.668 385.25 -281.431 385.609C-280.544 385.724 -279.634 385.858 -278.75 385.971ZM-273.166 387.696C-274.302 387.35 -275.453 386.994 -276.61 386.635C-277.393 386.537 -278.174 386.44 -278.96 386.34C-277.78 386.681 -276.637 386.997 -275.464 387.334C-274.703 387.45 -273.924 387.582 -273.166 387.696ZM-267.442 389.402C-268.458 389.096 -269.466 388.796 -270.471 388.499C-271.077 388.409 -271.677 388.325 -272.285 388.234C-271.317 388.506 -270.346 388.781 -269.373 389.057C-268.734 389.168 -268.079 389.292 -267.442 389.402ZM-262.076 391.001L-264.27 390.347C-264.7 390.274 -265.117 390.213 -265.548 390.139C-264.866 390.332 -264.179 390.529 -263.501 390.719C-263.029 390.81 -262.545 390.911 -262.076 391.001ZM-257.278 392.432C-257.596 392.338 -257.921 392.239 -258.241 392.144C-258.451 392.105 -258.653 392.07 -258.863 392.031C-258.577 392.111 -258.286 392.196 -258.004 392.274C-257.764 392.325 -257.517 392.381 -257.278 392.432ZM270.065 213.541L269.777 214.264L270.119 213.6L270.437 212.898L270.065 213.541ZM271.817 209.14L271.054 211.055L272.064 209.318C272.349 208.694 272.632 208.071 272.918 207.446L271.817 209.14ZM273.575 204.748C273.233 205.596 272.891 206.444 272.553 207.29L274.036 205.009L275.162 202.557L273.575 204.748ZM275.353 200.346C274.962 201.311 274.574 202.275 274.185 203.239L275.997 200.735C276.432 199.793 276.871 198.849 277.31 197.905L275.662 199.962L275.353 200.346ZM277.152 195.939C276.721 196.989 276.289 198.039 275.862 199.086L278.002 196.416C278.473 195.404 278.942 194.392 279.414 193.379L278.644 194.25L277.152 195.939ZM278.963 191.536C278.51 192.635 278.059 193.733 277.608 194.831L278.351 193.991L280.001 192.123C280.504 191.049 281.016 189.973 281.524 188.897L278.963 191.536ZM280.81 187.118C280.327 188.266 279.841 189.415 279.366 190.56L281.376 188.488L282.041 187.802C282.564 186.695 283.083 185.589 283.61 184.48L280.81 187.118ZM282.659 182.717C282.164 183.888 281.676 185.058 281.184 186.228L284.083 183.497C284.629 182.353 285.182 181.208 285.734 180.062L282.659 182.717ZM284.56 178.292C284.04 179.495 283.518 180.699 283.007 181.9L286.16 179.178C286.722 178.013 287.284 176.849 287.851 175.683L284.56 178.292ZM286.458 173.889C285.929 175.104 285.411 176.318 284.887 177.534L288.253 174.866C288.832 173.68 289.416 172.494 290.001 171.308L286.458 173.889ZM288.415 169.465C287.866 170.701 287.316 171.938 286.775 173.173L290.371 170.552C290.964 169.35 291.563 168.15 292.164 166.948L288.415 169.465ZM290.376 165.059C289.816 166.304 289.264 167.548 288.712 168.793L292.522 166.235C293.128 165.023 293.737 163.811 294.35 162.598L290.376 165.059ZM292.387 160.643C291.81 161.901 291.236 163.16 290.668 164.418L294.686 161.929C295.308 160.703 295.939 159.477 296.571 158.251L294.558 159.401L292.387 160.643ZM294.417 156.238C293.828 157.504 293.245 158.768 292.665 160.033L294.365 159.062L296.901 157.612C297.534 156.383 298.165 155.153 298.804 153.923L294.417 156.238ZM296.488 151.833C295.886 153.105 295.287 154.377 294.694 155.65L299.118 153.314C299.766 152.072 300.43 150.83 301.09 149.588L296.488 151.833ZM-317.428 372.133C-319.235 371.516 -321.097 370.862 -322.93 370.226C-323.88 370.338 -324.835 370.439 -325.785 370.548C-323.975 371.152 -322.136 371.776 -320.351 372.36C-319.376 372.286 -318.401 372.211 -317.428 372.133ZM-311.007 374.3C-312.852 373.675 -314.65 373.083 -316.498 372.456C-317.456 372.533 -318.416 372.605 -319.375 372.679C-317.551 373.271 -315.764 373.839 -313.94 374.431C-312.96 374.39 -311.984 374.344 -311.007 374.3ZM-304.644 376.437C-306.419 375.841 -308.19 375.248 -309.973 374.647C-310.937 374.691 -311.901 374.735 -312.867 374.776C-311.103 375.347 -309.347 375.911 -307.591 376.476C-306.605 376.467 -305.627 376.449 -304.644 376.437ZM-298.383 378.54C-300.081 377.975 -301.803 377.393 -303.518 376.815C-304.485 376.828 -305.451 376.843 -306.42 376.854C-304.722 377.402 -303.014 377.957 -301.336 378.492C-300.347 378.513 -299.369 378.522 -298.383 378.54ZM-292.231 380.602C-293.847 380.069 -295.507 379.506 -297.15 378.954C-298.117 378.938 -299.079 378.926 -300.048 378.907C-298.402 379.435 -296.755 379.963 -295.129 380.475C-294.157 380.523 -293.2 380.557 -292.231 380.602ZM-285.969 382.635C-287.597 382.102 -289.202 381.586 -290.824 381.06C-291.766 381.017 -292.702 380.981 -293.647 380.935C-292.035 381.437 -290.435 381.929 -288.818 382.435C-287.861 382.508 -286.922 382.565 -285.969 382.635ZM-279.832 384.626C-281.355 384.133 -282.881 383.638 -284.409 383.14C-285.331 383.074 -286.244 383.016 -287.168 382.947C-285.647 383.42 -284.126 383.894 -282.613 384.361C-281.678 384.456 -280.764 384.534 -279.832 384.626ZM-273.855 386.566C-275.257 386.116 -276.681 385.65 -278.101 385.188C-278.992 385.102 -279.874 385.023 -280.768 384.934C-279.354 385.375 -277.934 385.821 -276.542 386.247C-275.637 386.36 -274.756 386.455 -273.855 386.566ZM-268.009 388.448C-269.304 388.036 -270.609 387.618 -271.923 387.193C-272.774 387.09 -273.614 386.996 -274.468 386.89C-273.1 387.306 -271.766 387.697 -270.404 388.109C-269.597 388.228 -268.814 388.33 -268.009 388.448ZM-262.062 390.307C-263.273 389.926 -264.476 389.55 -265.677 389.177C-266.406 389.072 -267.125 388.975 -267.856 388.869C-266.64 389.231 -265.42 389.594 -264.2 389.959C-263.479 390.081 -262.78 390.187 -262.062 390.307ZM-256.372 392.085C-257.376 391.773 -258.385 391.456 -259.391 391.141C-260.011 391.039 -260.622 390.944 -261.244 390.84C-260.219 391.146 -259.19 391.455 -258.174 391.756C-257.567 391.87 -256.978 391.971 -256.372 392.085ZM-251.05 393.749C-251.782 393.523 -252.528 393.287 -253.27 393.055C-253.742 392.967 -254.208 392.885 -254.681 392.796C-253.923 393.024 -253.157 393.255 -252.412 393.473C-251.953 393.569 -251.509 393.654 -251.05 393.749ZM-246.64 395.126C-246.886 395.051 -247.139 394.97 -247.389 394.894L-247.623 394.846C-247.295 394.939 -246.97 395.031 -246.64 395.126ZM266.205 222.066L265.96 222.797L266.243 222.171L266.542 221.41L266.205 222.066ZM267.729 217.564C267.503 218.231 267.274 218.9 267.05 219.565L267.985 217.744L268.743 215.818L267.729 217.564ZM269.254 213.08C268.957 213.948 268.665 214.813 268.369 215.68L269.711 213.37C270.048 212.519 270.389 211.665 270.729 210.811L269.964 211.988L269.254 213.08ZM270.813 208.562C270.466 209.561 270.12 210.561 269.777 211.557L271.466 208.961C271.85 207.997 272.231 207.035 272.618 206.07L270.813 208.562ZM272.37 204.069C271.994 205.142 271.627 206.212 271.254 207.285L272.439 205.649L273.228 204.56C273.65 203.511 274.075 202.46 274.5 201.41L272.37 204.069ZM273.968 199.544C273.565 200.681 273.162 201.817 272.764 202.951L275.01 200.15C275.457 199.046 275.906 197.944 276.358 196.838L273.968 199.544ZM275.569 195.036C275.148 196.211 274.733 197.384 274.317 198.557L276.815 195.729C277.283 194.586 277.755 193.441 278.228 192.296L275.569 195.036ZM277.207 190.511C276.768 191.721 276.329 192.931 275.895 194.139L278.629 191.319C279.117 190.141 279.611 188.962 280.105 187.782L277.207 190.511ZM278.862 185.993C278.406 187.228 277.953 188.462 277.503 189.695L280.48 186.892C280.982 185.693 281.485 184.494 281.992 183.294L278.862 185.993ZM280.547 181.471C280.077 182.726 279.61 183.979 279.146 185.232C280.206 184.317 281.27 183.398 282.332 182.482C282.852 181.258 283.382 180.032 283.91 178.806L280.547 181.471ZM282.26 176.948C281.773 178.22 281.289 179.492 280.811 180.763L284.237 178.047C284.768 176.814 285.295 175.581 285.83 174.347L282.26 176.948ZM283.996 172.431C283.5 173.714 283.009 174.994 282.519 176.275L286.14 173.635C286.687 172.383 287.246 171.129 287.803 169.876L283.996 172.431ZM285.776 167.907C285.261 169.203 284.745 170.499 284.24 171.795L288.1 169.204C288.658 167.947 289.21 166.689 289.773 165.431L285.776 167.907ZM287.57 163.396C287.047 164.696 286.535 165.996 286.019 167.296L290.066 164.79C290.638 163.519 291.221 162.248 291.803 160.977L287.57 163.396ZM289.423 158.875C288.88 160.187 288.332 161.5 287.802 162.812L292.08 160.368C292.664 159.093 293.246 157.819 293.838 156.544L292.058 157.484L289.423 158.875ZM291.279 154.374C290.73 155.686 290.197 156.997 289.656 158.309L291.875 157.137L294.116 155.955C294.713 154.673 295.317 153.391 295.923 152.108L291.279 154.374ZM-313.486 371.828C-315.355 371.165 -317.286 370.461 -319.184 369.78C-320.132 369.895 -321.079 370.013 -322.029 370.125C-320.171 370.768 -318.281 371.433 -316.452 372.057C-315.465 371.978 -314.471 371.91 -313.486 371.828ZM-306.932 374.118C-308.826 373.453 -310.677 372.817 -312.572 372.151C-313.543 372.232 -314.525 372.299 -315.498 372.378C-313.628 373.01 -311.793 373.618 -309.921 374.251C-308.925 374.205 -307.925 374.167 -306.932 374.118ZM-300.444 376.381C-302.272 375.743 -304.095 375.109 -305.931 374.467C-306.912 374.516 -307.903 374.552 -308.887 374.598C-307.072 375.21 -305.266 375.815 -303.461 376.421C-302.456 376.407 -301.447 376.398 -300.444 376.381ZM-294.055 378.609C-295.807 378.003 -297.588 377.378 -299.359 376.759C-300.347 376.777 -301.344 376.784 -302.335 376.8C-300.584 377.389 -298.822 377.985 -297.093 378.56C-296.08 378.577 -295.065 378.595 -294.055 378.609ZM-287.754 380.799C-289.438 380.221 -291.161 379.617 -292.87 379.022C-293.863 379.01 -294.864 378.989 -295.859 378.974C-294.153 379.543 -292.448 380.111 -290.763 380.667C-289.759 380.712 -288.755 380.757 -287.754 380.799ZM-281.364 382.958C-283.056 382.383 -284.723 381.825 -286.411 381.253C-287.388 381.214 -288.374 381.167 -289.355 381.124C-287.682 381.668 -286.025 382.202 -284.348 382.749C-283.352 382.82 -282.357 382.89 -281.364 382.958ZM-275.092 385.077C-276.685 384.54 -278.282 384 -279.882 383.458C-280.848 383.393 -281.821 383.322 -282.79 383.254C-281.202 383.771 -279.614 384.287 -278.037 384.797C-277.053 384.892 -276.072 384.985 -275.092 385.077ZM-268.967 387.147C-270.447 386.652 -271.955 386.139 -273.456 385.63C-274.403 385.542 -275.355 385.45 -276.305 385.359C-274.817 385.844 -273.32 386.335 -271.854 386.804C-270.889 386.921 -269.929 387.033 -268.967 387.147ZM-262.932 389.166C-264.331 388.702 -265.736 388.235 -267.153 387.759C-268.073 387.652 -268.999 387.541 -269.923 387.43C-268.471 387.892 -267.055 388.329 -265.609 388.787C-264.713 388.916 -263.824 389.04 -262.932 389.166ZM-256.821 391.16C-258.145 390.726 -259.458 390.298 -260.773 389.87C-261.605 389.754 -262.442 389.635 -263.277 389.517C-261.96 389.927 -260.641 390.339 -259.32 390.753C-258.484 390.891 -257.654 391.025 -256.821 391.16ZM-250.935 393.081C-252.078 392.709 -253.229 392.333 -254.377 391.958C-255.133 391.836 -255.893 391.711 -256.651 391.588C-255.499 391.949 -254.343 392.313 -253.202 392.666C-252.443 392.807 -251.691 392.942 -250.935 393.081ZM-245.355 394.903C-246.27 394.608 -247.203 394.301 -248.133 393.996C-248.786 393.877 -249.445 393.755 -250.101 393.635C-249.17 393.928 -248.235 394.224 -247.324 394.503C-246.664 394.639 -246.012 394.769 -245.355 394.903ZM-240.024 396.622C-240.722 396.399 -241.398 396.191 -242.103 395.963C-242.491 395.885 -242.881 395.806 -243.269 395.727C-242.523 395.951 -241.779 396.172 -241.025 396.401C-240.69 396.476 -240.359 396.548 -240.024 396.622ZM-234.791 398.266C-235.096 398.17 -235.396 398.076 -235.698 397.982L-235.923 397.932L-234.872 398.247L-234.791 398.266ZM262.796 230.783L262.582 231.547L262.846 230.87L263.097 230.113L262.796 230.783ZM264.082 226.199C263.887 226.886 263.694 227.572 263.502 228.258L264.341 226.393L265.014 224.384L264.828 224.747L264.082 226.199ZM265.391 221.593C265.136 222.49 264.88 223.386 264.627 224.281L265.843 221.915C266.137 221.039 266.434 220.162 266.731 219.284L265.391 221.593ZM266.709 216.991C266.413 218.016 266.117 219.042 265.825 220.064L266.975 218.084L267.371 217.401L268.387 214.412L266.709 216.991ZM268.046 212.383C267.725 213.488 267.404 214.592 267.085 215.696L268.897 212.909C269.268 211.828 269.644 210.743 270.019 209.658L268.046 212.383ZM269.405 207.766C269.058 208.935 268.71 210.104 268.369 211.27L270.461 208.381C270.852 207.248 271.242 206.117 271.636 204.983C270.893 205.91 270.147 206.841 269.405 207.766ZM270.778 203.15C270.417 204.359 270.059 205.565 269.701 206.772L272.021 203.878C272.434 202.697 272.855 201.513 273.275 200.328L270.778 203.15ZM272.187 198.518C271.804 199.766 271.419 201.015 271.044 202.26L273.624 199.341C274.05 198.135 274.472 196.931 274.903 195.723L272.187 198.518ZM273.602 193.903C273.211 195.169 272.827 196.433 272.439 197.698L275.228 194.826C275.672 193.587 276.124 192.348 276.575 191.107L273.602 193.903ZM275.066 189.264C274.655 190.559 274.239 191.854 273.836 193.145L276.871 190.292C277.327 189.037 277.782 187.782 278.246 186.525L275.066 189.264ZM276.53 184.649C276.111 185.952 275.705 187.252 275.292 188.553C276.371 187.623 277.449 186.695 278.529 185.764C278.999 184.49 279.475 183.216 279.952 181.941L276.53 184.649ZM278.056 180.009C277.618 181.331 277.179 182.654 276.752 183.975L280.217 181.233C280.699 179.947 281.185 178.661 281.676 177.374L278.056 180.009ZM279.585 175.39C279.139 176.718 278.704 178.044 278.265 179.371L281.935 176.701C282.429 175.405 282.927 174.108 283.429 172.812L279.585 175.39ZM281.17 170.757C280.708 172.097 280.246 173.438 279.795 174.777L283.673 172.175C284.181 170.869 284.697 169.562 285.215 168.254L281.17 170.757ZM282.771 166.137C282.298 167.483 281.834 168.827 281.37 170.172L285.458 167.643C285.977 166.332 286.496 165.021 287.022 163.708L282.771 166.137ZM284.421 161.515C283.934 162.868 283.45 164.219 282.973 165.572L287.254 163.125C287.787 161.805 288.333 160.484 288.878 159.162L284.421 161.515ZM286.102 156.9C285.601 158.256 285.106 159.613 284.616 160.969L289.112 158.596C289.655 157.276 290.194 155.955 290.745 154.635L286.348 156.779L286.102 156.9ZM-309.614 371.49C-311.534 370.787 -313.521 370.039 -315.47 369.317C-316.422 369.435 -317.372 369.558 -318.325 369.674C-316.392 370.366 -314.43 371.078 -312.524 371.752C-311.551 371.671 -310.587 371.574 -309.614 371.49ZM-302.889 373.919C-304.854 373.205 -306.777 372.519 -308.742 371.805C-309.704 371.89 -310.658 371.985 -311.623 372.067C-309.696 372.743 -307.805 373.395 -305.878 374.071C-304.88 374.021 -303.883 373.972 -302.889 373.919ZM-296.235 376.321C-298.137 375.635 -300.038 374.95 -301.95 374.257C-302.927 374.31 -303.898 374.37 -304.877 374.42C-303.012 375.073 -301.156 375.72 -299.301 376.365C-298.282 376.347 -297.251 376.342 -296.235 376.321ZM-289.707 378.678C-291.527 378.026 -293.382 377.352 -295.225 376.686C-296.219 376.708 -297.219 376.725 -298.216 376.744C-296.411 377.374 -294.594 378.014 -292.812 378.629C-291.781 378.641 -290.734 378.669 -289.707 378.678ZM-283.252 380.996C-285.008 380.373 -286.797 379.726 -288.578 379.086C-289.588 379.078 -290.614 379.053 -291.626 379.042C-289.859 379.654 -288.097 380.262 -286.349 380.86C-285.32 380.903 -284.277 380.958 -283.252 380.996ZM-276.727 383.284C-278.482 382.665 -280.212 382.064 -281.963 381.448C-282.968 381.411 -283.996 381.354 -285.004 381.315C-283.271 381.902 -281.555 382.478 -279.82 383.067C-278.793 383.135 -277.751 383.218 -276.727 383.284ZM-270.313 385.533C-271.975 384.951 -273.642 384.366 -275.313 383.779C-276.313 383.717 -277.336 383.633 -278.34 383.567C-276.686 384.127 -275.032 384.687 -273.391 385.239C-272.369 385.334 -271.332 385.441 -270.313 385.533ZM-264.035 387.733C-265.591 387.193 -267.18 386.632 -268.759 386.077C-269.749 385.99 -270.762 385.882 -271.755 385.792C-270.192 386.322 -268.619 386.859 -267.082 387.371C-266.07 387.489 -265.044 387.619 -264.035 387.733ZM-257.807 389.891C-259.308 389.375 -260.805 388.861 -262.322 388.335C-263.295 388.225 -264.292 388.096 -265.269 387.984C-263.733 388.493 -262.235 388.976 -260.703 389.481C-259.741 389.615 -258.766 389.76 -257.807 389.891ZM-251.531 392.022C-252.958 391.535 -254.374 391.056 -255.793 390.574C-256.701 390.452 -257.633 390.31 -258.546 390.185L-254.303 391.57C-253.382 391.718 -252.449 391.876 -251.531 392.022ZM-245.452 394.086C-246.719 393.658 -247.996 393.223 -249.27 392.789C-250.124 392.656 -251.003 392.504 -251.86 392.368C-250.591 392.783 -249.318 393.201 -248.062 393.608C-247.194 393.765 -246.316 393.931 -245.452 394.086ZM-239.633 396.061C-240.704 395.702 -241.797 395.328 -242.886 394.957C-243.669 394.819 -244.475 394.662 -245.261 394.522C-244.179 394.878 -243.093 395.236 -242.035 395.575C-241.237 395.735 -240.429 395.903 -239.633 396.061ZM-233.896 397.977C-234.84 397.663 -235.745 397.376 -236.695 397.059C-237.28 396.943 -237.883 396.816 -238.47 396.699C-237.522 396.995 -236.575 397.292 -235.616 397.596C-235.045 397.722 -234.466 397.852 -233.896 397.977ZM-228.251 399.827C-228.877 399.621 -229.501 399.416 -230.122 399.213C-230.509 399.13 -230.908 399.037 -231.296 398.954C-230.653 399.155 -230.006 399.36 -229.363 399.562C-228.994 399.649 -228.62 399.74 -228.251 399.827ZM-223.197 401.484L-223.713 401.315C-223.813 401.292 -223.915 401.266 -224.015 401.243C-223.833 401.299 -223.647 401.359 -223.466 401.415L-223.197 401.484ZM256.111 253.495L256.483 251.324C207.326 399.835 165.33 511.382 -175.837 415.914C181.004 522.512 213.83 407.422 256.111 253.495ZM-188.088 411.983L-187.765 412.091C165.972 513.981 206.91 399.979 256.931 248.723C257.094 247.777 257.262 246.825 257.427 245.875C200.457 392.111 150.809 503.074 -188.088 411.983ZM-195.659 409.388C-195.098 409.581 -194.531 409.779 -193.975 409.97C151.382 504.256 200.24 391.707 257.769 243.917C257.957 242.844 258.141 241.778 258.33 240.704C193.79 383.848 136.474 493.708 -195.659 409.388ZM-202.94 406.87C-202.046 407.179 -201.146 407.491 -200.247 407.802C136.813 494.536 193.586 383.452 258.613 239.122C258.82 237.955 259.031 236.784 259.242 235.613C187.148 375.578 122.107 484.257 -202.94 406.87ZM-210.095 404.382C-208.989 404.772 -207.896 405.154 -206.804 405.536C122.253 484.876 186.94 375.22 259.476 234.304C259.697 233.077 259.918 231.851 260.142 230.621C180.517 367.341 107.691 474.756 -210.095 404.382ZM-216.981 401.942C-215.713 402.391 -214.442 402.844 -213.184 403.287C107.75 475.173 180.333 366.958 260.354 229.48C260.587 228.207 260.824 226.932 261.062 225.656C173.927 359.077 93.3115 465.184 -216.981 401.942ZM-223.957 399.47C-222.535 399.972 -221.114 400.475 -219.686 400.983C93.2642 465.49 173.74 358.714 261.246 224.656C261.492 223.347 261.74 222.038 261.991 220.726C167.345 350.845 78.9094 455.62 -223.957 399.47ZM-230.812 397.004C-229.32 397.546 -227.822 398.094 -226.356 398.619C78.7913 455.842 167.162 350.487 262.166 219.819C262.421 218.484 262.678 217.148 262.938 215.81C160.799 342.599 64.5385 446.018 -230.812 397.004ZM-237.664 394.518C-236.06 395.101 -234.456 395.684 -232.861 396.26C64.3757 446.148 160.625 342.241 263.097 214.991C263.363 213.63 263.638 212.264 263.912 210.899C154.284 334.352 50.1869 436.406 -237.664 394.518ZM-244.606 392.001C-242.897 392.623 -241.22 393.226 -239.512 393.848C49.9784 436.482 154.114 333.995 264.066 210.135C264.343 208.76 264.618 207.384 264.899 206.007C147.78 326.126 35.8219 426.805 -244.606 392.001ZM-251.431 389.475C-249.699 390.119 -247.955 390.77 -246.248 391.396C35.5776 426.826 147.612 325.771 265.042 205.3C265.329 203.905 265.631 202.506 265.927 201.108C141.331 317.878 21.5209 417.169 -251.431 389.475ZM-258.33 386.918C-256.518 387.591 -254.712 388.26 -252.911 388.926C21.2525 417.147 141.171 317.52 266.069 200.439C266.367 199.037 266.659 197.638 266.962 196.236C134.891 309.654 7.20961 407.538 -258.33 386.918ZM-265.285 384.333C-263.406 385.036 -261.559 385.717 -259.689 386.414C6.90909 407.485 134.731 309.298 267.099 195.602C267.409 194.185 267.733 192.765 268.054 191.345C128.495 301.424 -7.07771 397.914 -265.285 384.333ZM-272.176 381.726C-270.283 382.443 -268.377 383.169 -266.507 383.87C-7.39216 397.824 128.341 301.065 268.19 190.739C268.509 189.321 268.821 187.904 269.148 186.484C122.127 293.2 -21.3338 388.262 -272.176 381.726ZM-279.143 379.09C-277.19 379.831 -275.248 380.565 -273.305 381.299C-21.6676 388.148 121.977 292.839 269.287 185.898C269.619 184.468 269.964 183.036 270.308 181.604C115.805 284.972 -35.5707 378.619 -279.143 379.09ZM-286.144 376.428C-284.146 377.192 -282.172 377.94 -280.189 378.695C-35.9262 378.484 115.653 284.613 270.441 181.042C270.784 179.611 271.123 178.181 271.474 176.748C109.497 276.761 -49.8074 368.974 -286.144 376.428ZM-293.119 373.738C-291.108 374.515 -289.084 375.299 -287.094 376.061C-50.1681 368.816 109.354 276.398 271.613 176.203C271.969 174.764 272.336 173.324 272.704 171.884C103.254 268.538 -63.9917 359.312 -293.119 373.738ZM-300.157 371.024C-298.096 371.821 -296.055 372.606 -294.007 373.396C-64.3684 359.136 103.109 268.176 272.837 171.358C273.206 169.917 273.574 168.478 273.953 167.037C97.0287 260.331 -78.18 349.657 -300.157 371.024ZM-307.23 368.278C-305.139 369.093 -303.061 369.9 -300.986 370.705C-78.5688 349.466 96.8876 259.966 274.092 166.521C274.473 165.077 274.864 163.633 275.259 162.189C90.8499 252.124 -92.3539 339.992 -307.23 368.278ZM259.832 239.696L259.649 240.504L259.881 239.804L260.104 238.997L259.832 239.696ZM260.888 235.021L260.415 237.118L261.14 235.255C261.333 234.56 261.529 233.862 261.724 233.165L260.888 235.021ZM261.969 230.312C261.755 231.237 261.54 232.162 261.33 233.084L262.169 231.22L262.43 230.641C262.68 229.745 262.929 228.851 263.18 227.954L261.969 230.312ZM263.049 225.627C262.807 226.672 262.569 227.714 262.328 228.758L263.717 226.052C264.007 225.026 264.301 223.996 264.593 222.966L263.049 225.627ZM264.166 220.898C263.895 222.038 263.623 223.179 263.357 224.315L265.029 221.437C265.343 220.332 265.656 219.229 265.975 218.121L264.166 220.898ZM265.283 216.193C264.995 217.389 264.716 218.58 264.432 219.774C265.07 218.795 265.711 217.808 266.35 216.826C266.686 215.66 267.026 214.491 267.366 213.322C266.671 214.281 265.977 215.236 265.283 216.193ZM266.439 211.456C266.133 212.702 265.827 213.947 265.527 215.19L267.689 212.209C268.043 210.998 268.398 209.786 268.756 208.573C267.983 209.536 267.211 210.496 266.439 211.456ZM267.601 206.74C267.283 208.015 266.971 209.288 266.658 210.56C267.456 209.567 268.252 208.577 269.051 207.581C269.42 206.337 269.791 205.092 270.163 203.845L267.601 206.74ZM268.799 202.004C268.467 203.308 268.136 204.611 267.81 205.912L270.429 202.955C270.811 201.683 271.199 200.408 271.589 199.134C270.658 200.091 269.728 201.049 268.799 202.004ZM270.015 197.276C269.67 198.601 269.329 199.923 268.991 201.245L271.84 198.314C272.234 197.024 272.628 195.735 273.026 194.445C272.022 195.389 271.018 196.335 270.015 197.276ZM271.263 192.542C270.906 193.883 270.553 195.223 270.203 196.562C271.221 195.607 272.24 194.647 273.258 193.689C273.665 192.378 274.084 191.065 274.5 189.752C273.421 190.682 272.341 191.614 271.263 192.542ZM272.54 187.806C272.17 189.162 271.801 190.518 271.439 191.873C272.534 190.931 273.63 189.985 274.726 189.04C275.143 187.722 275.557 186.405 275.979 185.085C274.833 185.992 273.686 186.901 272.54 187.806ZM273.844 183.074C273.464 184.44 273.089 185.804 272.716 187.168C273.874 186.253 275.035 185.334 276.194 184.416C276.625 183.081 277.071 181.742 277.513 180.404C276.29 181.295 275.066 182.185 273.844 183.074ZM275.191 178.337C274.794 179.715 274.397 181.092 274.011 182.468C275.247 181.569 276.486 180.668 277.722 179.767C278.164 178.428 278.598 177.091 279.046 175.752C277.761 176.613 276.475 177.476 275.191 178.337ZM276.557 173.609C276.152 174.991 275.757 176.37 275.36 177.751L279.255 175.138C279.71 173.787 280.178 172.435 280.643 171.082L276.557 173.609ZM277.98 168.873C277.557 170.265 277.129 171.658 276.719 173.05L280.843 170.498C281.309 169.144 281.772 167.792 282.246 166.437L277.98 168.873ZM279.413 164.158C278.984 165.548 278.568 166.938 278.146 168.328L282.448 165.871C282.927 164.51 283.417 163.148 283.906 161.787L279.413 164.158ZM280.92 159.427C280.469 160.828 280.011 162.229 279.575 163.63L284.102 161.241C284.593 159.877 285.086 158.514 285.587 157.15L280.92 159.427ZM279.082 163.889C279.52 162.482 279.976 161.074 280.428 159.667L275.73 161.959C275.338 163.396 274.951 164.833 274.57 166.269L279.082 163.889ZM277.648 168.612C278.07 167.213 278.491 165.815 278.922 164.417L274.431 166.785C274.052 168.219 273.681 169.653 273.313 171.086L277.648 168.612ZM276.22 173.358C276.632 171.958 277.057 170.558 277.482 169.158L273.181 171.612C272.814 173.044 272.451 174.475 272.095 175.905C273.47 175.056 274.845 174.208 276.22 173.358ZM274.852 178.091C275.251 176.701 275.65 175.31 276.057 173.919C274.691 174.764 273.324 175.606 271.958 176.45C271.606 177.874 271.265 179.297 270.924 180.72C272.233 179.844 273.542 178.97 274.852 178.091ZM273.501 182.838C273.889 181.452 274.285 180.065 274.683 178.676C273.385 179.547 272.087 180.414 270.79 181.281C270.449 182.703 270.107 184.124 269.776 185.543C271.018 184.642 272.259 183.741 273.501 182.838ZM272.195 187.579C272.571 186.201 272.951 184.823 273.334 183.444C272.102 184.34 270.87 185.234 269.637 186.128C269.311 187.538 268.998 188.945 268.68 190.353C269.852 189.428 271.023 188.506 272.195 187.579ZM270.914 192.325C271.278 190.957 271.647 189.587 272.02 188.217C270.861 189.132 269.702 190.045 268.544 190.958C268.226 192.364 267.906 193.77 267.599 195.172C268.704 194.224 269.808 193.277 270.914 192.325ZM269.663 197.07C270.017 195.713 270.376 194.352 270.738 192.993C269.643 193.935 268.55 194.873 267.456 195.812C267.154 197.199 266.866 198.583 266.572 199.968C267.602 199.003 268.632 198.039 269.663 197.07ZM268.445 201.808C268.786 200.467 269.127 199.127 269.475 197.784C268.459 198.738 267.444 199.687 266.43 200.638C266.134 202.02 265.835 203.402 265.55 204.78C266.514 203.79 267.479 202.8 268.445 201.808ZM267.243 206.551C267.575 205.225 267.913 203.896 268.252 202.567C267.303 203.543 266.353 204.516 265.405 205.489C265.126 206.846 264.857 208.198 264.585 209.553C265.47 208.554 266.357 207.552 267.243 206.551ZM266.078 211.281C266.397 209.981 266.711 208.682 267.034 207.38C266.166 208.359 265.297 209.339 264.43 210.316C264.159 211.658 263.885 213 263.622 214.337L266.078 211.281ZM264.92 216.027C265.227 214.747 265.544 213.462 265.859 212.177C265.061 213.171 264.262 214.167 263.463 215.158C263.209 216.464 262.96 217.766 262.71 219.07L264.92 216.027ZM263.8 220.742C264.094 219.502 264.385 218.263 264.681 217.021L262.535 219.977C262.289 221.253 262.043 222.53 261.803 223.802C262.469 222.783 263.134 221.765 263.8 220.742ZM262.681 225.481C262.961 224.279 263.248 223.072 263.534 221.866C262.895 222.847 262.257 223.825 261.618 224.802C261.39 226.028 261.164 227.253 260.938 228.476C261.518 227.48 262.099 226.482 262.681 225.481ZM261.598 230.177L262.382 226.774C261.829 227.726 261.278 228.671 260.727 229.618C260.511 230.787 260.296 231.955 260.085 233.122L261.598 230.177ZM260.516 234.893C260.755 233.841 260.997 232.787 261.24 231.731L259.851 234.43C259.658 235.505 259.465 236.58 259.274 237.652L260.516 234.893ZM259.457 239.578C259.665 238.658 259.874 237.735 260.082 236.812L258.99 239.24C258.822 240.183 258.656 241.123 258.491 242.064L259.457 239.578ZM258.401 244.278C258.559 243.569 258.715 242.865 258.875 242.155L258.148 244.022L257.772 246.178L258.161 245.007L258.401 244.278ZM257.358 248.957L257.549 248.1L257.312 248.817L257.166 249.656L257.358 248.957ZM-305.73 371.136C-307.715 370.387 -309.734 369.615 -311.741 368.852C-312.702 368.974 -313.666 369.092 -314.628 369.212C-312.65 369.944 -310.646 370.692 -308.693 371.405C-307.703 371.319 -306.717 371.226 -305.73 371.136ZM-298.945 373.686C-300.923 372.945 -302.898 372.206 -304.891 371.455C-305.867 371.544 -306.842 371.635 -307.819 371.721C-305.832 372.443 -303.883 373.14 -301.896 373.86C-300.909 373.807 -299.93 373.743 -298.945 373.686ZM-292.18 376.206C-294.129 375.48 -296.073 374.759 -298.031 374.027C-299.008 374.083 -299.98 374.145 -300.958 374.199C-299.021 374.901 -297.091 375.597 -295.166 376.291C-294.165 376.269 -293.178 376.231 -292.18 376.206ZM-285.503 378.692C-287.384 377.997 -289.296 377.28 -291.198 376.571C-292.186 376.598 -293.165 376.632 -294.156 376.656C-292.274 377.336 -290.376 378.027 -288.519 378.691C-287.507 378.699 -286.512 378.688 -285.503 378.692ZM-278.845 381.145C-280.708 380.461 -282.566 379.78 -284.442 379.088C-285.439 379.084 -286.424 379.093 -287.425 379.086C-285.573 379.748 -283.731 380.405 -281.897 381.055C-280.872 381.093 -279.867 381.11 -278.845 381.145ZM-272.211 383.563C-274.029 382.9 -275.844 382.24 -277.67 381.573C-278.671 381.541 -279.656 381.524 -280.66 381.489C-278.849 382.127 -277.057 382.75 -275.246 383.388C-274.228 383.452 -273.225 383.502 -272.211 383.563ZM-265.685 385.941C-267.418 385.314 -269.179 384.669 -270.933 384.028C-271.918 383.971 -272.884 383.93 -273.873 383.87C-272.141 384.478 -270.408 385.087 -268.689 385.687C-267.683 385.776 -266.687 385.856 -265.685 385.941ZM-259.182 388.284C-260.886 387.672 -262.58 387.067 -264.295 386.448C-265.258 386.367 -266.199 386.305 -267.166 386.221C-265.521 386.799 -263.863 387.387 -262.247 387.946C-261.223 388.061 -260.202 388.172 -259.182 388.284ZM-252.713 390.587C-254.347 390.006 -255.979 389.425 -257.617 388.841C-258.603 388.735 -259.564 388.649 -260.553 388.54C-258.925 389.099 -257.341 389.629 -255.717 390.186C-254.714 390.321 -253.712 390.456 -252.713 390.587ZM-246.39 392.84C-247.908 392.304 -249.45 391.751 -250.986 391.203C-251.91 391.082 -252.809 390.982 -253.737 390.859L-249.19 392.403C-248.256 392.549 -247.32 392.697 -246.39 392.84ZM-240.112 395.048C-241.571 394.537 -243.015 394.037 -244.483 393.519C-245.324 393.391 -246.139 393.283 -246.982 393.152C-245.587 393.628 -244.187 394.106 -242.807 394.57C-241.91 394.728 -241.006 394.892 -240.112 395.048ZM-233.879 397.214L-237.888 395.821C-238.706 395.68 -239.5 395.558 -240.321 395.415C-239.075 395.84 -237.826 396.268 -236.609 396.674C-235.702 396.852 -234.783 397.039 -233.879 397.214ZM-227.879 399.299C-229.034 398.901 -230.206 398.491 -231.374 398.084C-232.103 397.944 -232.809 397.821 -233.541 397.68C-232.377 398.059 -231.208 398.442 -230.03 398.831C-229.317 398.984 -228.59 399.148 -227.879 399.299ZM-222.02 401.312C-223.032 400.966 -224.022 400.635 -225.041 400.285C-225.541 400.18 -226.025 400.086 -226.526 399.98C-225.561 400.296 -224.59 400.615 -223.626 400.931C-223.097 401.053 -222.549 401.19 -222.02 401.312ZM-216.323 403.24C-217.049 402.994 -217.775 402.748 -218.497 402.504C-218.845 402.425 -219.184 402.353 -219.534 402.272C-218.857 402.494 -218.172 402.722 -217.505 402.938C-217.116 403.035 -216.711 403.143 -216.323 403.24ZM-211.33 404.929L-212.116 404.663L-212.355 404.606C-212.008 404.717 -211.676 404.819 -211.33 404.929ZM224.331 369.723C185.723 459 104.628 501.049 -151.258 424.112C103.827 505.397 187.509 471.17 224.099 388.148C239.012 354.31 246.123 312.359 253.84 266.829L253.965 266.093C245.531 304.164 237.347 339.624 224.331 369.723ZM-164.587 419.637C101.622 502.035 184.774 460.205 223.971 369.567C237.723 337.768 246.079 299.959 255.043 259.407L255.287 258.302L255.44 257.409C214.031 407.994 179.067 519.682 -164.587 419.637ZM-200.365 408.178L-199.677 408.404L-200.236 408.211L-200.365 408.178ZM-207.964 405.662C-207.313 405.882 -206.662 406.103 -206.021 406.317C-205.622 406.421 -205.232 406.519 -204.835 406.622C-205.499 406.391 -206.145 406.171 -206.81 405.939L-207.964 405.662ZM-214.958 403.295C-214.009 403.616 -213.056 403.941 -212.112 404.258C-211.565 404.392 -211.029 404.518 -210.487 404.649C-211.383 404.335 -212.296 404.009 -213.203 403.687C-213.788 403.556 -214.371 403.427 -214.958 403.295ZM-222.01 400.908C-220.833 401.306 -219.659 401.701 -218.476 402.104C-217.742 402.272 -217.022 402.43 -216.297 402.591L-219.72 401.378C-220.484 401.222 -221.244 401.068 -222.01 400.908ZM-228.834 398.558C-227.551 399.006 -226.264 399.457 -225.005 399.889C-224.138 400.072 -223.285 400.244 -222.428 400.419C-223.76 399.944 -225.058 399.492 -226.393 399.015C-227.206 398.863 -228.016 398.714 -228.834 398.558ZM-235.621 396.2C-234.19 396.698 -232.759 397.196 -231.337 397.689C-230.444 397.86 -229.565 398.022 -228.682 398.185C-230.075 397.684 -231.492 397.168 -232.904 396.654C-233.808 396.504 -234.71 396.355 -235.621 396.2ZM-242.498 393.809C-240.937 394.355 -239.403 394.882 -237.842 395.428C-236.871 395.595 -235.915 395.751 -234.955 395.91L-239.561 394.24C-240.539 394.098 -241.514 393.957 -242.498 393.809ZM-249.211 391.424C-247.613 391.996 -246.007 392.572 -244.434 393.126C-243.417 393.281 -242.416 393.424 -241.411 393.57C-243.043 392.974 -244.655 392.391 -246.296 391.789C-247.266 391.668 -248.234 391.55 -249.211 391.424ZM-255.998 389.007C-254.307 389.61 -252.619 390.212 -250.937 390.81C-249.924 390.942 -248.924 391.063 -247.921 391.187C-249.586 390.575 -251.279 389.944 -252.966 389.318C-253.974 389.216 -254.982 389.115 -255.998 389.007ZM-262.854 386.561C-261.076 387.2 -259.334 387.815 -257.562 388.449C-256.516 388.562 -255.483 388.665 -254.447 388.769C-256.21 388.116 -257.971 387.464 -259.742 386.807C-260.778 386.726 -261.812 386.647 -262.854 386.561ZM-269.607 384.1C-267.815 384.754 -266.011 385.416 -264.244 386.055C-263.19 386.143 -262.147 386.222 -261.102 386.302C-262.918 385.625 -264.729 384.951 -266.558 384.264C-267.572 384.211 -268.586 384.158 -269.607 384.1ZM-276.444 381.607C-274.584 382.287 -272.732 382.961 -270.883 383.634C-269.843 383.695 -268.813 383.747 -267.78 383.802C-269.622 383.11 -271.494 382.399 -273.356 381.693C-274.384 381.666 -275.412 381.638 -276.444 381.607ZM-283.33 379.088C-281.413 379.794 -279.526 380.479 -277.619 381.179C-276.569 381.212 -275.528 381.239 -274.484 381.266C-276.403 380.541 -278.313 379.82 -280.239 379.089C-281.269 379.09 -282.298 379.09 -283.33 379.088ZM-290.166 376.542C-288.238 377.261 -286.295 377.989 -284.391 378.693C-283.352 378.696 -282.319 378.695 -281.284 378.695C-283.23 377.953 -285.183 377.209 -287.145 376.456C-288.151 376.486 -289.158 376.515 -290.166 376.542ZM-297.07 373.97C-295.088 374.711 -293.118 375.443 -291.147 376.176C-290.128 376.15 -289.112 376.12 -288.096 376.09C-290.065 375.335 -292.064 374.561 -294.054 373.793C-295.059 373.853 -296.065 373.911 -297.07 373.97ZM-304.009 371.374C-301.987 372.135 -299.993 372.877 -297.984 373.63C-296.969 373.572 -295.955 373.512 -294.941 373.451C-296.972 372.668 -298.989 371.893 -301.029 371.104C-302.022 371.195 -303.017 371.283 -304.009 371.374ZM-310.918 368.749C-308.892 369.519 -306.85 370.301 -304.848 371.056C-303.851 370.965 -302.854 370.876 -301.858 370.784C-303.901 369.992 -305.956 369.19 -308.018 368.386C-308.983 368.51 -309.952 368.625 -310.918 368.749ZM-351.174 353.204C-337.701 358.495 -324.545 363.576 -311.701 368.451C-310.73 368.327 -309.753 368.209 -308.78 368.086C-322.771 362.624 -337.13 356.92 -351.864 350.97L-352.012 350.492C-336.944 356.579 -322.27 362.407 -307.979 367.984C-92.737 339.787 90.7133 251.757 275.393 161.688C314.01 20.4125 410.93 -122.88 775.674 -155.685L775.793 -155.301C411.546 -122.555 314.526 20.4075 275.865 161.458L280.593 159.151C324.619 21.5767 424.054 -117.585 777.193 -150.772L777.312 -150.387C424.676 -117.264 325.146 21.5642 281.085 158.912L285.786 156.619C335.17 22.7445 437.077 -112.305 778.715 -145.846L778.834 -145.463C437.708 -111.986 335.713 22.7232 286.3 156.368L290.969 154.09C345.662 23.9152 449.992 -107.038 780.241 -140.911L780.359 -140.528C450.633 -106.723 346.222 23.8832 291.512 153.825L296.188 151.544C356.133 25.0778 462.847 -101.765 781.776 -135.943L781.895 -135.56C463.498 -101.452 356.704 25.0382 296.754 151.269L301.401 149.003C366.533 26.2507 475.628 -96.4685 783.326 -130.931L783.444 -130.549C476.294 -96.1597 367.128 26.1978 302.003 148.708L306.611 146.463C376.862 27.4239 488.278 -91.1907 784.879 -125.905L784.996 -125.525C488.957 -90.8878 377.486 27.3572 307.253 146.15L311.815 143.928C387.115 28.6008 500.785 -85.9329 786.437 -120.865L786.554 -120.484C501.485 -85.6349 387.774 28.5171 312.509 143.59L317.043 141.383C397.311 29.7746 513.195 -80.6642 788.007 -115.783L788.125 -115.401C513.911 -80.3698 397.996 29.6769 317.782 141.023L322.278 138.837C407.426 30.9526 525.482 -75.3899 789.592 -110.658L789.709 -110.277C526.223 -75.1033 408.159 30.8326 323.087 138.443L327.511 136.294C417.448 32.1308 537.591 -70.1421 791.181 -105.516L791.298 -105.137C538.364 -69.8643 418.238 31.9852 328.404 135.861L332.745 133.754C427.367 33.3133 549.54 -64.899 792.782 -100.336L792.899 -99.9553C550.355 -64.6293 428.23 33.1346 333.743 133.269C335.155 132.584 336.568 131.901 337.981 131.216C437.176 34.5 561.323 -59.6493 794.399 -95.1035L794.517 -94.7232C562.183 -59.3913 438.124 34.2837 339.105 130.672C340.481 130.006 341.856 129.339 343.232 128.673C446.881 35.6804 572.896 -54.4368 796.022 -89.852L796.139 -89.4739C573.811 -54.1944 447.933 35.4182 344.511 128.055C345.837 127.413 347.166 126.773 348.493 126.132C456.458 36.8648 584.277 -49.2162 797.665 -84.5384L797.782 -84.1595C585.263 -48.9888 457.637 36.5453 349.963 125.423C351.231 124.811 352.5 124.198 353.769 123.586C465.907 38.0422 595.422 -44.0282 799.317 -79.1929L799.433 -78.8154C596.506 -43.8254 467.271 37.6435 355.509 122.748C356.684 122.183 357.86 121.617 359.035 121.053C475.19 39.2252 606.309 -38.8565 800.984 -73.799L801.101 -73.4193C607.543 -38.684 476.824 38.71 361.17 120.025L364.321 118.51C484.317 40.3979 616.927 -33.7132 802.665 -68.3588L802.781 -67.984C618.384 -33.5942 486.359 39.7108 367.048 117.204L369.592 115.985C493.249 41.5751 627.241 -28.5979 804.361 -62.8719L804.478 -62.4926C629.099 -28.5612 496.008 40.5805 373.364 114.178C373.877 113.932 374.391 113.689 374.904 113.443C502.01 42.732 637.242 -23.5324 806.069 -57.3452L806.185 -56.9706C640.005 -23.6927 506.378 41.0394 381.006 110.503C511.103 43.63 647.224 -18.5659 807.795 -51.7629L807.91 -51.3913C651.814 -19.1246 518.826 40.5621 392.01 105.306C523.314 43.1279 658.657 -14.0571 809.53 -46.148L809.644 -45.7783C654.283 -12.7372 515.391 46.9307 380.412 111.249C376.984 113.012 373.561 114.778 370.141 116.546C366.852 118.382 363.568 120.221 360.288 122.062C357.13 123.975 353.978 125.891 350.831 127.808C347.841 129.775 344.858 131.743 341.882 133.713C338.963 135.801 336.051 137.891 333.147 139.98C330.43 142.096 327.722 144.213 325.021 146.329C322.391 148.562 319.771 150.794 317.159 153.025C314.722 155.286 312.297 157.545 309.877 159.803C307.543 162.174 305.219 164.545 302.904 166.912C300.727 169.342 298.56 171.771 296.402 174.195C294.377 176.689 292.363 179.18 290.358 181.666C288.462 184.252 286.577 186.835 284.701 189.412C282.966 192.049 281.241 194.681 279.525 197.306C277.936 200.018 276.357 202.722 274.786 205.42C273.341 208.207 271.905 210.987 270.477 213.759C269.176 216.625 267.884 219.484 266.601 222.331C265.463 225.233 264.335 228.124 263.213 231.005C262.218 233.992 261.232 236.967 260.251 239.931C259.407 242.981 258.571 246.018 257.74 249.042C257.046 252.164 256.357 255.275 255.674 258.368C255.187 261.223 254.705 264.065 254.226 266.893C246.505 312.447 239.39 354.42 224.457 388.304C186.679 474.023 98.9151 507.886 -174.994 416.789C-179.232 415.451 -183.483 414.103 -187.815 412.702C-191.086 411.7 -194.393 410.673 -197.722 409.632C-202.092 408.345 -206.579 406.977 -211.056 405.616C-215.472 404.36 -219.879 403.109 -224.375 401.797C-227.641 400.901 -230.915 400.001 -234.228 399.072C-237.909 398.111 -241.667 397.096 -245.421 396.084C-249.591 395.048 -253.805 393.982 -258.058 392.887C-261.741 392.018 -265.414 391.156 -269.146 390.251C-272.186 389.576 -275.257 388.878 -278.336 388.174C-282.194 387.38 -286.131 386.525 -290.065 385.674C-293.887 384.945 -297.706 384.219 -301.588 383.444C-304.708 382.899 -307.833 382.35 -310.983 381.781C-314.082 381.298 -317.225 380.781 -320.363 380.266C-323.901 379.787 -327.48 379.272 -331.071 378.747C-334.509 378.351 -337.927 377.97 -341.405 377.539L-343.72 377.322L-344.076 376.17L-344.058 376.171L-344.077 376.167L-344.207 375.744L-341.384 376.252C-340.707 376.268 -340.04 376.273 -339.364 376.288C-340.469 376.063 -341.567 375.842 -342.667 375.621C-343.191 375.629 -343.713 375.639 -344.237 375.648L-344.482 374.853C-343.866 374.976 -343.25 375.1 -342.628 375.228C-341.808 375.217 -340.991 375.201 -340.172 375.188C-341.469 374.893 -342.761 374.602 -344.068 374.301L-344.644 374.331L-344.832 373.721L-344.035 373.906C-343.129 373.857 -342.216 373.818 -341.311 373.766C-342.568 373.452 -343.845 373.124 -345.118 372.797L-345.296 372.222C-344.51 372.145 -343.726 372.061 -342.94 371.984L-345.592 371.264L-345.729 370.822C-344.433 371.175 -343.139 371.526 -341.849 371.874C-340.924 371.781 -339.998 371.689 -339.074 371.594C-341.413 370.923 -343.761 370.244 -346.119 369.557L-346.257 369.111C-343.5 369.914 -340.756 370.707 -338.028 371.489C-337.086 371.391 -336.139 371.303 -335.198 371.203C-339.003 370.051 -342.837 368.88 -346.697 367.689L-346.836 367.238C-342.587 368.55 -338.37 369.837 -334.187 371.102C-333.252 371.001 -332.324 370.888 -331.39 370.786C-336.647 369.118 -341.958 367.412 -347.321 365.67L-347.462 365.214C-341.727 367.078 -336.052 368.899 -330.437 370.679C-329.489 370.574 -328.543 370.465 -327.596 370.358C-334.307 368.135 -341.105 365.853 -347.988 363.511L-348.131 363.05C-340.882 365.517 -333.728 367.918 -326.671 370.253C-325.712 370.144 -324.749 370.04 -323.79 369.928C-331.964 367.113 -340.266 364.212 -348.696 361.223L-348.839 360.759C-340.05 363.876 -331.4 366.899 -322.889 369.826C-321.926 369.713 -320.962 369.602 -320.001 369.487C-329.637 366.049 -339.448 362.493 -349.439 358.817L-349.584 358.348C-339.246 362.154 -329.1 365.831 -319.143 369.38C-318.182 369.264 -317.227 369.139 -316.269 369.021C-327.351 364.937 -338.666 360.697 -350.217 356.299L-350.363 355.826C-338.468 360.356 -326.824 364.719 -315.427 368.916C-314.459 368.796 -313.491 368.676 -312.526 368.554C-325.061 363.793 -337.893 358.837 -351.027 353.68L-351.174 353.204Z" fill="white"/>
</mask>
<g mask="url(#mask0_771_883)">
<path d="M753.124 -228.645L-419.035 133.645L-257.002 657.891L915.157 295.601L753.124 -228.645Z" fill="url(#paint0_linear_771_883)"/>
</g>
</g>
<defs>
<linearGradient id="paint0_linear_771_883" x1="-189.225" y1="456.169" x2="664.361" y2="-15.3312" gradientUnits="userSpaceOnUse">
<stop stop-color="#F57E20"/>
<stop offset="1" stop-color="#BE3C20"/>
</linearGradient>
</defs>
</svg>
